<ttFont>
    <TTGlyph name=".notdef" xMin="246" yMin="0" xMax="1111" yMax="1291">
      <contour>
        <pt x="1084" y="28" on="1"/>
        <pt x="1084" y="1263" on="1"/>
        <pt x="272" y="1263" on="1"/>
        <pt x="272" y="28" on="1"/>
      </contour>
      <contour>
        <pt x="246" y="1291" on="1"/>
        <pt x="1111" y="1291" on="1"/>
        <pt x="1111" y="0" on="1"/>
        <pt x="246" y="0" on="1"/>
      </contour>
    </TTGlyph>
    <TTGlyph name="A" xMin="-31" yMin="-21" xMax="1427" yMax="1436">
      <contour>
        <pt x="-31" y="38" on="1"/>
        <pt x="-31" y="57" on="0"/>
        <pt x="-6" y="77" on="0"/>
        <pt x="28" y="88" on="0"/>
        <pt x="63" y="95" on="0"/>
        <pt x="74" y="102" on="1"/>
        <pt x="77" y="104" on="0"/>
        <pt x="87" y="113" on="0"/>
        <pt x="99" y="124" on="0"/>
        <pt x="111" y="133" on="0"/>
        <pt x="114" y="135" on="1"/>
        <pt x="162" y="159" on="1"/>
        <pt x="171" y="163" on="0"/>
        <pt x="198" y="201" on="0"/>
        <pt x="225" y="248" on="0"/>
        <pt x="249" y="293" on="0"/>
        <pt x="254" y="304" on="1"/>
        <pt x="256" y="306" on="0"/>
        <pt x="258" y="324" on="0"/>
        <pt x="258" y="329" on="1"/>
        <pt x="259" y="333" on="0"/>
        <pt x="265" y="346" on="0"/>
        <pt x="265" y="348" on="1"/>
        <pt x="267" y="350" on="0"/>
        <pt x="277" y="365" on="0"/>
        <pt x="289" y="381" on="0"/>
        <pt x="298" y="396" on="0"/>
        <pt x="299" y="398" on="1"/>
        <pt x="300" y="399" on="0"/>
        <pt x="302" y="412" on="0"/>
        <pt x="304" y="427" on="0"/>
        <pt x="306" y="441" on="0"/>
        <pt x="306" y="443" on="1"/>
        <pt x="312" y="475" on="0"/>
        <pt x="335" y="540" on="0"/>
        <pt x="358" y="604" on="0"/>
        <pt x="376" y="670" on="0"/>
        <pt x="379" y="704" on="1"/>
        <pt x="448" y="894" on="1"/>
        <pt x="462" y="934" on="0"/>
        <pt x="467" y="1023" on="0"/>
        <pt x="479" y="1066" on="1"/>
        <pt x="496" y="1105" on="0"/>
        <pt x="544" y="1180" on="0"/>
        <pt x="564" y="1223" on="1"/>
        <pt x="571" y="1245" on="0"/>
        <pt x="574" y="1294" on="0"/>
        <pt x="588" y="1315" on="1"/>
        <pt x="593" y="1322" on="0"/>
        <pt x="633" y="1362" on="0"/>
        <pt x="679" y="1404" on="0"/>
        <pt x="723" y="1436" on="0"/>
        <pt x="733" y="1436" on="1"/>
        <pt x="752" y="1436" on="0"/>
        <pt x="759" y="1422" on="1"/>
        <pt x="764" y="1418" on="0"/>
        <pt x="775" y="1400" on="0"/>
        <pt x="775" y="1398" on="1"/>
        <pt x="780" y="1380" on="0"/>
        <pt x="798" y="1344" on="0"/>
        <pt x="804" y="1323" on="1"/>
        <pt x="803" y="1301" on="1"/>
        <pt x="803" y="1287" on="0"/>
        <pt x="816" y="1256" on="0"/>
        <pt x="820" y="1246" on="1"/>
        <pt x="831" y="1211" on="0"/>
        <pt x="848" y="1145" on="0"/>
        <pt x="853" y="1112" on="1"/>
        <pt x="857" y="1092" on="0"/>
        <pt x="875" y="1059" on="0"/>
        <pt x="875" y="1038" on="1"/>
        <pt x="874" y="1022" on="1"/>
        <pt x="892" y="1006" on="0"/>
        <pt x="910" y="980" on="0"/>
        <pt x="921" y="953" on="0"/>
        <pt x="932" y="922" on="0"/>
        <pt x="944" y="900" on="1"/>
        <pt x="954" y="880" on="0"/>
        <pt x="964" y="845" on="0"/>
        <pt x="971" y="809" on="0"/>
        <pt x="979" y="769" on="0"/>
        <pt x="988" y="746" on="1"/>
        <pt x="989" y="741" on="0"/>
        <pt x="1000" y="717" on="0"/>
        <pt x="1000" y="713" on="1"/>
        <pt x="1000" y="675" on="1"/>
        <pt x="1000" y="673" on="0"/>
        <pt x="1008" y="659" on="0"/>
        <pt x="1018" y="642" on="0"/>
        <pt x="1026" y="626" on="0"/>
        <pt x="1026" y="623" on="1"/>
        <pt x="1026" y="622" on="0"/>
        <pt x="1027" y="613" on="0"/>
        <pt x="1028" y="602" on="0"/>
        <pt x="1030" y="592" on="0"/>
        <pt x="1031" y="592" on="1"/>
        <pt x="1059" y="564" on="1"/>
        <pt x="1066" y="558" on="0"/>
        <pt x="1070" y="542" on="0"/>
        <pt x="1072" y="523" on="0"/>
        <pt x="1074" y="504" on="0"/>
        <pt x="1079" y="495" on="1"/>
        <pt x="1091" y="467" on="0"/>
        <pt x="1109" y="408" on="0"/>
        <pt x="1124" y="379" on="1"/>
        <pt x="1133" y="358" on="0"/>
        <pt x="1145" y="311" on="0"/>
        <pt x="1145" y="289" on="1"/>
        <pt x="1145" y="277" on="1"/>
        <pt x="1158" y="254" on="0"/>
        <pt x="1190" y="218" on="0"/>
        <pt x="1200" y="201" on="1"/>
        <pt x="1209" y="179" on="0"/>
        <pt x="1229" y="153" on="0"/>
        <pt x="1248" y="137" on="0"/>
        <pt x="1266" y="128" on="0"/>
        <pt x="1275" y="123" on="1"/>
        <pt x="1297" y="110" on="0"/>
        <pt x="1344" y="98" on="0"/>
        <pt x="1380" y="92" on="1"/>
        <pt x="1408" y="85" on="1"/>
        <pt x="1421" y="77" on="0"/>
        <pt x="1427" y="46" on="0"/>
        <pt x="1427" y="35" on="1"/>
        <pt x="1427" y="14" on="0"/>
        <pt x="1394" y="-5" on="0"/>
        <pt x="1377" y="-5" on="1"/>
        <pt x="1292" y="0" on="1"/>
        <pt x="1271" y="0" on="1"/>
        <pt x="1266" y="4" on="0"/>
        <pt x="1249" y="9" on="0"/>
        <pt x="1231" y="11" on="0"/>
        <pt x="1216" y="11" on="0"/>
        <pt x="1214" y="12" on="1"/>
        <pt x="1095" y="12" on="1"/>
        <pt x="1087" y="23" on="0"/>
        <pt x="1074" y="26" on="0"/>
        <pt x="1062" y="26" on="1"/>
        <pt x="1021" y="26" on="0"/>
        <pt x="932" y="5" on="0"/>
        <pt x="882" y="5" on="1"/>
        <pt x="860" y="5" on="1"/>
        <pt x="844" y="5" on="0"/>
        <pt x="815" y="7" on="0"/>
        <pt x="804" y="14" on="1"/>
        <pt x="799" y="17" on="0"/>
        <pt x="799" y="31" on="1"/>
        <pt x="801" y="47" on="1"/>
        <pt x="803" y="52" on="0"/>
        <pt x="803" y="60" on="0"/>
        <pt x="803" y="62" on="1"/>
        <pt x="803" y="69" on="0"/>
        <pt x="809" y="71" on="1"/>
        <pt x="827" y="79" on="0"/>
        <pt x="873" y="87" on="0"/>
        <pt x="915" y="97" on="0"/>
        <pt x="944" y="115" on="0"/>
        <pt x="944" y="133" on="1"/>
        <pt x="944" y="135" on="1"/>
        <pt x="943" y="158" on="0"/>
        <pt x="938" y="217" on="0"/>
        <pt x="938" y="246" on="1"/>
        <pt x="938" y="256" on="0"/>
        <pt x="925" y="278" on="0"/>
        <pt x="924" y="287" on="1"/>
        <pt x="924" y="348" on="1"/>
        <pt x="922" y="361" on="0"/>
        <pt x="901" y="418" on="0"/>
        <pt x="870" y="474" on="0"/>
        <pt x="834" y="517" on="0"/>
        <pt x="816" y="517" on="1"/>
        <pt x="790" y="517" on="0"/>
        <pt x="735" y="495" on="0"/>
        <pt x="707" y="495" on="1"/>
        <pt x="683" y="495" on="0"/>
        <pt x="640" y="514" on="0"/>
        <pt x="611" y="514" on="1"/>
        <pt x="547" y="514" on="1"/>
        <pt x="526" y="514" on="0"/>
        <pt x="483" y="509" on="0"/>
        <pt x="465" y="498" on="1"/>
        <pt x="434" y="480" on="0"/>
        <pt x="382" y="419" on="0"/>
        <pt x="370" y="374" on="1"/>
        <pt x="363" y="304" on="1"/>
        <pt x="363" y="302" on="0"/>
        <pt x="359" y="286" on="0"/>
        <pt x="355" y="268" on="0"/>
        <pt x="351" y="253" on="0"/>
        <pt x="351" y="251" on="1"/>
        <pt x="351" y="249" on="0"/>
        <pt x="349" y="241" on="0"/>
        <pt x="349" y="237" on="1"/>
        <pt x="349" y="219" on="0"/>
        <pt x="361" y="203" on="0"/>
        <pt x="370" y="187" on="1"/>
        <pt x="375" y="178" on="0"/>
        <pt x="392" y="148" on="0"/>
        <pt x="401" y="137" on="1"/>
        <pt x="415" y="125" on="0"/>
        <pt x="462" y="111" on="0"/>
        <pt x="508" y="95" on="0"/>
        <pt x="541" y="71" on="0"/>
        <pt x="541" y="50" on="1"/>
        <pt x="541" y="43" on="1"/>
        <pt x="536" y="4" on="0"/>
        <pt x="488" y="-21" on="0"/>
        <pt x="450" y="-21" on="1"/>
        <pt x="363" y="2" on="1"/>
        <pt x="327" y="2" on="1"/>
        <pt x="309" y="2" on="0"/>
        <pt x="271" y="0" on="0"/>
        <pt x="236" y="-4" on="0"/>
        <pt x="209" y="-11" on="0"/>
        <pt x="202" y="-16" on="1"/>
        <pt x="177" y="-16" on="0"/>
        <pt x="128" y="-18" on="0"/>
        <pt x="89" y="-20" on="0"/>
        <pt x="64" y="-21" on="0"/>
        <pt x="62" y="-21" on="1"/>
        <pt x="49" y="-21" on="0"/>
        <pt x="17" y="-13" on="0"/>
        <pt x="-12" y="3" on="0"/>
        <pt x="-31" y="24" on="0"/>
      </contour>
      <contour>
        <pt x="484" y="716" on="1"/>
        <pt x="483" y="705" on="0"/>
        <pt x="481" y="684" on="0"/>
        <pt x="481" y="675" on="1"/>
        <pt x="481" y="647" on="0"/>
        <pt x="507" y="628" on="0"/>
        <pt x="534" y="628" on="1"/>
        <pt x="537" y="628" on="0"/>
        <pt x="539" y="630" on="1"/>
        <pt x="540" y="631" on="0"/>
        <pt x="541" y="633" on="1"/>
        <pt x="543" y="633" on="0"/>
        <pt x="566" y="637" on="0"/>
        <pt x="571" y="638" on="1"/>
        <pt x="580" y="637" on="0"/>
        <pt x="597" y="633" on="0"/>
        <pt x="602" y="633" on="1"/>
        <pt x="759" y="633" on="1"/>
        <pt x="827" y="633" on="0"/>
        <pt x="827" y="695" on="1"/>
        <pt x="827" y="704" on="0"/>
        <pt x="814" y="732" on="0"/>
        <pt x="796" y="765" on="0"/>
        <pt x="779" y="801" on="0"/>
        <pt x="775" y="818" on="1"/>
        <pt x="775" y="825" on="0"/>
        <pt x="770" y="830" on="1"/>
        <pt x="723" y="900" on="1"/>
        <pt x="723" y="905" on="0"/>
        <pt x="716" y="915" on="0"/>
        <pt x="714" y="920" on="1"/>
        <pt x="709" y="941" on="1"/>
        <pt x="704" y="962" on="0"/>
        <pt x="690" y="1022" on="0"/>
        <pt x="670" y="1076" on="0"/>
        <pt x="645" y="1114" on="0"/>
        <pt x="630" y="1114" on="1"/>
        <pt x="621" y="1114" on="0"/>
        <pt x="593" y="1062" on="0"/>
        <pt x="560" y="982" on="0"/>
        <pt x="527" y="885" on="0"/>
        <pt x="501" y="797" on="0"/>
        <pt x="484" y="728" on="0"/>
      </contour>
    </TTGlyph>
    <TTGlyph name="AE" xMin="-20" yMin="-16" xMax="1726" yMax="1431">
      <contour>
        <pt x="5" y="140" on="1"/>
        <pt x="7" y="142" on="0"/>
        <pt x="14" y="142" on="0"/>
        <pt x="17" y="142" on="1"/>
        <pt x="28" y="144" on="0"/>
        <pt x="50" y="144" on="0"/>
        <pt x="58" y="149" on="1"/>
        <pt x="60" y="150" on="0"/>
        <pt x="69" y="158" on="0"/>
        <pt x="78" y="168" on="0"/>
        <pt x="87" y="176" on="0"/>
        <pt x="89" y="176" on="1"/>
        <pt x="90" y="177" on="0"/>
        <pt x="107" y="184" on="0"/>
        <pt x="126" y="190" on="0"/>
        <pt x="143" y="195" on="0"/>
        <pt x="145" y="195" on="1"/>
        <pt x="157" y="200" on="0"/>
        <pt x="168" y="212" on="0"/>
        <pt x="174" y="227" on="0"/>
        <pt x="178" y="244" on="0"/>
        <pt x="183" y="254" on="1"/>
        <pt x="185" y="256" on="0"/>
        <pt x="202" y="272" on="0"/>
        <pt x="202" y="273" on="1"/>
        <pt x="203" y="274" on="0"/>
        <pt x="206" y="288" on="0"/>
        <pt x="209" y="305" on="0"/>
        <pt x="212" y="319" on="0"/>
        <pt x="212" y="322" on="1"/>
        <pt x="215" y="330" on="0"/>
        <pt x="222" y="358" on="0"/>
        <pt x="224" y="360" on="1"/>
        <pt x="224" y="362" on="0"/>
        <pt x="241" y="377" on="0"/>
        <pt x="243" y="379" on="1"/>
        <pt x="243" y="380" on="0"/>
        <pt x="245" y="389" on="0"/>
        <pt x="247" y="399" on="0"/>
        <pt x="250" y="408" on="0"/>
        <pt x="250" y="408" on="1"/>
        <pt x="252" y="409" on="0"/>
        <pt x="260" y="412" on="0"/>
        <pt x="268" y="416" on="0"/>
        <pt x="275" y="418" on="0"/>
        <pt x="276" y="417" on="1"/>
        <pt x="276" y="446" on="1"/>
        <pt x="279" y="453" on="0"/>
        <pt x="295" y="485" on="0"/>
        <pt x="311" y="522" on="0"/>
        <pt x="327" y="555" on="0"/>
        <pt x="330" y="562" on="1"/>
        <pt x="330" y="564" on="0"/>
        <pt x="332" y="575" on="0"/>
        <pt x="335" y="588" on="0"/>
        <pt x="337" y="599" on="0"/>
        <pt x="337" y="600" on="1"/>
        <pt x="339" y="602" on="0"/>
        <pt x="346" y="618" on="0"/>
        <pt x="349" y="619" on="1"/>
        <pt x="367" y="665" on="0"/>
        <pt x="386" y="755" on="0"/>
        <pt x="397" y="803" on="1"/>
        <pt x="399" y="814" on="0"/>
        <pt x="414" y="831" on="0"/>
        <pt x="432" y="847" on="0"/>
        <pt x="449" y="862" on="0"/>
        <pt x="454" y="870" on="1"/>
        <pt x="455" y="873" on="0"/>
        <pt x="457" y="893" on="0"/>
        <pt x="460" y="916" on="0"/>
        <pt x="463" y="936" on="0"/>
        <pt x="465" y="938" on="1"/>
        <pt x="469" y="962" on="0"/>
        <pt x="488" y="1006" on="0"/>
        <pt x="509" y="1050" on="0"/>
        <pt x="525" y="1094" on="0"/>
        <pt x="525" y="1118" on="1"/>
        <pt x="525" y="1126" on="0"/>
        <pt x="524" y="1141" on="0"/>
        <pt x="522" y="1149" on="1"/>
        <pt x="530" y="1161" on="0"/>
        <pt x="544" y="1168" on="0"/>
        <pt x="555" y="1172" on="0"/>
        <pt x="562" y="1184" on="0"/>
        <pt x="562" y="1202" on="1"/>
        <pt x="562" y="1213" on="1"/>
        <pt x="562" y="1219" on="0"/>
        <pt x="558" y="1233" on="0"/>
        <pt x="551" y="1235" on="1"/>
        <pt x="546" y="1233" on="0"/>
        <pt x="522" y="1233" on="0"/>
        <pt x="508" y="1233" on="1"/>
        <pt x="494" y="1233" on="0"/>
        <pt x="469" y="1233" on="0"/>
        <pt x="465" y="1235" on="1"/>
        <pt x="451" y="1238" on="0"/>
        <pt x="419" y="1259" on="0"/>
        <pt x="392" y="1289" on="0"/>
        <pt x="375" y="1323" on="0"/>
        <pt x="375" y="1337" on="1"/>
        <pt x="375" y="1344" on="0"/>
        <pt x="382" y="1364" on="0"/>
        <pt x="394" y="1383" on="0"/>
        <pt x="409" y="1398" on="0"/>
        <pt x="416" y="1400" on="1"/>
        <pt x="419" y="1400" on="0"/>
        <pt x="441" y="1393" on="0"/>
        <pt x="442" y="1389" on="1"/>
        <pt x="754" y="1389" on="1"/>
        <pt x="757" y="1388" on="0"/>
        <pt x="773" y="1386" on="0"/>
        <pt x="791" y="1383" on="0"/>
        <pt x="808" y="1381" on="0"/>
        <pt x="811" y="1381" on="1"/>
        <pt x="820" y="1381" on="1"/>
        <pt x="892" y="1399" on="0"/>
        <pt x="1039" y="1412" on="0"/>
        <pt x="1114" y="1412" on="1"/>
        <pt x="1146" y="1412" on="0"/>
        <pt x="1211" y="1410" on="0"/>
        <pt x="1243" y="1408" on="1"/>
        <pt x="1246" y="1412" on="0"/>
        <pt x="1269" y="1419" on="0"/>
        <pt x="1273" y="1419" on="1"/>
        <pt x="1397" y="1419" on="1"/>
        <pt x="1400" y="1419" on="0"/>
        <pt x="1414" y="1422" on="0"/>
        <pt x="1431" y="1425" on="0"/>
        <pt x="1444" y="1429" on="0"/>
        <pt x="1446" y="1431" on="1"/>
        <pt x="1472" y="1431" on="1"/>
        <pt x="1495" y="1431" on="0"/>
        <pt x="1538" y="1410" on="0"/>
        <pt x="1551" y="1389" on="1"/>
        <pt x="1552" y="1380" on="0"/>
        <pt x="1558" y="1331" on="0"/>
        <pt x="1564" y="1275" on="0"/>
        <pt x="1570" y="1226" on="0"/>
        <pt x="1570" y="1216" on="1"/>
        <pt x="1572" y="1214" on="0"/>
        <pt x="1581" y="1191" on="0"/>
        <pt x="1581" y="1187" on="1"/>
        <pt x="1581" y="1157" on="1"/>
        <pt x="1581" y="1145" on="0"/>
        <pt x="1580" y="1130" on="0"/>
        <pt x="1573" y="1122" on="0"/>
        <pt x="1558" y="1119" on="0"/>
        <pt x="1544" y="1119" on="1"/>
        <pt x="1524" y="1119" on="1"/>
        <pt x="1522" y="1120" on="0"/>
        <pt x="1513" y="1129" on="0"/>
        <pt x="1503" y="1139" on="0"/>
        <pt x="1495" y="1148" on="0"/>
        <pt x="1494" y="1149" on="1"/>
        <pt x="1478" y="1162" on="0"/>
        <pt x="1440" y="1180" on="0"/>
        <pt x="1427" y="1197" on="1"/>
        <pt x="1426" y="1199" on="0"/>
        <pt x="1418" y="1214" on="0"/>
        <pt x="1408" y="1230" on="0"/>
        <pt x="1398" y="1244" on="0"/>
        <pt x="1397" y="1246" on="1"/>
        <pt x="1385" y="1263" on="0"/>
        <pt x="1342" y="1285" on="0"/>
        <pt x="1292" y="1298" on="0"/>
        <pt x="1242" y="1303" on="0"/>
        <pt x="1224" y="1303" on="1"/>
        <pt x="1205" y="1303" on="1"/>
        <pt x="1203" y="1303" on="0"/>
        <pt x="1192" y="1300" on="0"/>
        <pt x="1179" y="1297" on="0"/>
        <pt x="1168" y="1294" on="0"/>
        <pt x="1167" y="1294" on="1"/>
        <pt x="1145" y="1294" on="1"/>
        <pt x="1089" y="1294" on="1"/>
        <pt x="1071" y="1292" on="0"/>
        <pt x="1037" y="1251" on="0"/>
        <pt x="1010" y="1198" on="0"/>
        <pt x="994" y="1145" on="0"/>
        <pt x="994" y="1130" on="1"/>
        <pt x="994" y="1128" on="0"/>
        <pt x="997" y="1118" on="0"/>
        <pt x="1000" y="1105" on="0"/>
        <pt x="1003" y="1094" on="0"/>
        <pt x="1003" y="1092" on="1"/>
        <pt x="1003" y="1059" on="1"/>
        <pt x="1003" y="1027" on="0"/>
        <pt x="993" y="967" on="0"/>
        <pt x="993" y="938" on="1"/>
        <pt x="993" y="927" on="0"/>
        <pt x="999" y="880" on="0"/>
        <pt x="1011" y="830" on="0"/>
        <pt x="1029" y="789" on="0"/>
        <pt x="1041" y="784" on="1"/>
        <pt x="1059" y="776" on="0"/>
        <pt x="1087" y="773" on="0"/>
        <pt x="1107" y="773" on="1"/>
        <pt x="1127" y="773" on="1"/>
        <pt x="1129" y="774" on="0"/>
        <pt x="1144" y="780" on="0"/>
        <pt x="1160" y="787" on="0"/>
        <pt x="1174" y="792" on="0"/>
        <pt x="1176" y="792" on="1"/>
        <pt x="1190" y="792" on="1"/>
        <pt x="1224" y="792" on="1"/>
        <pt x="1227" y="793" on="0"/>
        <pt x="1244" y="802" on="0"/>
        <pt x="1263" y="812" on="0"/>
        <pt x="1280" y="821" on="0"/>
        <pt x="1283" y="822" on="1"/>
        <pt x="1288" y="823" on="0"/>
        <pt x="1297" y="823" on="1"/>
        <pt x="1304" y="823" on="0"/>
        <pt x="1316" y="822" on="0"/>
        <pt x="1323" y="822" on="1"/>
        <pt x="1330" y="822" on="0"/>
        <pt x="1342" y="825" on="0"/>
        <pt x="1349" y="832" on="1"/>
        <pt x="1358" y="841" on="0"/>
        <pt x="1368" y="878" on="0"/>
        <pt x="1373" y="923" on="0"/>
        <pt x="1377" y="971" on="0"/>
        <pt x="1384" y="1010" on="0"/>
        <pt x="1398" y="1035" on="0"/>
        <pt x="1411" y="1035" on="1"/>
        <pt x="1420" y="1035" on="0"/>
        <pt x="1448" y="1016" on="0"/>
        <pt x="1475" y="990" on="0"/>
        <pt x="1494" y="964" on="0"/>
        <pt x="1494" y="957" on="1"/>
        <pt x="1494" y="638" on="1"/>
        <pt x="1501" y="625" on="0"/>
        <pt x="1505" y="594" on="0"/>
        <pt x="1505" y="578" on="1"/>
        <pt x="1505" y="536" on="1"/>
        <pt x="1505" y="533" on="0"/>
        <pt x="1505" y="516" on="0"/>
        <pt x="1505" y="497" on="0"/>
        <pt x="1504" y="479" on="0"/>
        <pt x="1503" y="476" on="1"/>
        <pt x="1500" y="462" on="0"/>
        <pt x="1481" y="455" on="0"/>
        <pt x="1470" y="455" on="1"/>
        <pt x="1454" y="455" on="1"/>
        <pt x="1428" y="455" on="0"/>
        <pt x="1400" y="476" on="0"/>
        <pt x="1383" y="508" on="0"/>
        <pt x="1370" y="546" on="0"/>
        <pt x="1359" y="562" on="1"/>
        <pt x="1348" y="579" on="0"/>
        <pt x="1323" y="616" on="0"/>
        <pt x="1292" y="648" on="0"/>
        <pt x="1255" y="668" on="0"/>
        <pt x="1231" y="668" on="1"/>
        <pt x="1220" y="668" on="0"/>
        <pt x="1204" y="665" on="0"/>
        <pt x="1195" y="657" on="1"/>
        <pt x="1032" y="657" on="1"/>
        <pt x="1022" y="657" on="0"/>
        <pt x="1011" y="631" on="0"/>
        <pt x="1003" y="597" on="0"/>
        <pt x="998" y="562" on="0"/>
        <pt x="994" y="552" on="1"/>
        <pt x="994" y="547" on="0"/>
        <pt x="994" y="523" on="0"/>
        <pt x="993" y="494" on="0"/>
        <pt x="993" y="469" on="0"/>
        <pt x="993" y="465" on="1"/>
        <pt x="993" y="391" on="0"/>
        <pt x="1017" y="250" on="0"/>
        <pt x="1022" y="176" on="1"/>
        <pt x="1025" y="170" on="0"/>
        <pt x="1045" y="160" on="0"/>
        <pt x="1069" y="154" on="0"/>
        <pt x="1093" y="150" on="0"/>
        <pt x="1100" y="149" on="1"/>
        <pt x="1104" y="148" on="0"/>
        <pt x="1123" y="145" on="0"/>
        <pt x="1144" y="141" on="0"/>
        <pt x="1163" y="138" on="0"/>
        <pt x="1167" y="138" on="1"/>
        <pt x="1235" y="138" on="1"/>
        <pt x="1236" y="138" on="0"/>
        <pt x="1247" y="135" on="0"/>
        <pt x="1260" y="132" on="0"/>
        <pt x="1271" y="129" on="0"/>
        <pt x="1273" y="128" on="1"/>
        <pt x="1292" y="128" on="1"/>
        <pt x="1352" y="128" on="0"/>
        <pt x="1455" y="166" on="0"/>
        <pt x="1503" y="195" on="1"/>
        <pt x="1505" y="197" on="0"/>
        <pt x="1522" y="204" on="0"/>
        <pt x="1524" y="206" on="1"/>
        <pt x="1524" y="207" on="0"/>
        <pt x="1533" y="224" on="0"/>
        <pt x="1542" y="244" on="0"/>
        <pt x="1551" y="261" on="0"/>
        <pt x="1551" y="263" on="1"/>
        <pt x="1554" y="267" on="0"/>
        <pt x="1570" y="289" on="0"/>
        <pt x="1589" y="314" on="0"/>
        <pt x="1606" y="336" on="0"/>
        <pt x="1610" y="341" on="1"/>
        <pt x="1616" y="348" on="0"/>
        <pt x="1634" y="368" on="0"/>
        <pt x="1656" y="386" on="0"/>
        <pt x="1681" y="398" on="0"/>
        <pt x="1693" y="398" on="1"/>
        <pt x="1705" y="398" on="0"/>
        <pt x="1718" y="380" on="0"/>
        <pt x="1724" y="356" on="0"/>
        <pt x="1726" y="331" on="0"/>
        <pt x="1726" y="324" on="1"/>
        <pt x="1726" y="317" on="0"/>
        <pt x="1726" y="294" on="0"/>
        <pt x="1724" y="292" on="1"/>
        <pt x="1724" y="291" on="0"/>
        <pt x="1719" y="280" on="0"/>
        <pt x="1712" y="267" on="0"/>
        <pt x="1706" y="255" on="0"/>
        <pt x="1705" y="254" on="1"/>
        <pt x="1699" y="228" on="0"/>
        <pt x="1692" y="155" on="0"/>
        <pt x="1672" y="87" on="0"/>
        <pt x="1631" y="36" on="0"/>
        <pt x="1591" y="33" on="1"/>
        <pt x="1513" y="33" on="1"/>
        <pt x="1477" y="29" on="0"/>
        <pt x="1402" y="12" on="0"/>
        <pt x="1363" y="12" on="1"/>
        <pt x="1351" y="12" on="0"/>
        <pt x="1329" y="22" on="0"/>
        <pt x="1318" y="22" on="1"/>
        <pt x="1301" y="22" on="0"/>
        <pt x="1260" y="20" on="0"/>
        <pt x="1217" y="18" on="0"/>
        <pt x="1175" y="15" on="0"/>
        <pt x="1157" y="14" on="1"/>
        <pt x="1154" y="13" on="0"/>
        <pt x="1138" y="10" on="0"/>
        <pt x="1119" y="6" on="0"/>
        <pt x="1103" y="3" on="0"/>
        <pt x="1100" y="3" on="1"/>
        <pt x="1081" y="3" on="1"/>
        <pt x="1078" y="4" on="0"/>
        <pt x="1061" y="10" on="0"/>
        <pt x="1041" y="16" on="0"/>
        <pt x="1024" y="22" on="0"/>
        <pt x="1022" y="22" on="1"/>
        <pt x="1017" y="22" on="1"/>
        <pt x="1001" y="22" on="0"/>
        <pt x="973" y="12" on="0"/>
        <pt x="956" y="12" on="1"/>
        <pt x="930" y="12" on="0"/>
        <pt x="882" y="22" on="0"/>
        <pt x="859" y="22" on="1"/>
        <pt x="830" y="22" on="0"/>
        <pt x="771" y="14" on="0"/>
        <pt x="740" y="14" on="1"/>
        <pt x="729" y="14" on="0"/>
        <pt x="703" y="25" on="0"/>
        <pt x="681" y="44" on="0"/>
        <pt x="666" y="68" on="0"/>
        <pt x="666" y="81" on="1"/>
        <pt x="666" y="98" on="0"/>
        <pt x="683" y="120" on="0"/>
        <pt x="695" y="138" on="1"/>
        <pt x="705" y="149" on="1"/>
        <pt x="720" y="161" on="0"/>
        <pt x="748" y="183" on="0"/>
        <pt x="770" y="210" on="0"/>
        <pt x="783" y="243" on="0"/>
        <pt x="783" y="266" on="1"/>
        <pt x="783" y="286" on="0"/>
        <pt x="771" y="314" on="0"/>
        <pt x="771" y="334" on="1"/>
        <pt x="771" y="363" on="0"/>
        <pt x="776" y="415" on="0"/>
        <pt x="781" y="446" on="1"/>
        <pt x="781" y="447" on="0"/>
        <pt x="784" y="455" on="0"/>
        <pt x="788" y="465" on="0"/>
        <pt x="791" y="474" on="0"/>
        <pt x="792" y="476" on="1"/>
        <pt x="792" y="481" on="1"/>
        <pt x="792" y="490" on="0"/>
        <pt x="783" y="513" on="0"/>
        <pt x="771" y="540" on="0"/>
        <pt x="762" y="567" on="0"/>
        <pt x="762" y="581" on="1"/>
        <pt x="762" y="583" on="0"/>
        <pt x="765" y="597" on="0"/>
        <pt x="769" y="614" on="0"/>
        <pt x="772" y="628" on="0"/>
        <pt x="773" y="630" on="1"/>
        <pt x="773" y="635" on="1"/>
        <pt x="773" y="640" on="0"/>
        <pt x="764" y="651" on="0"/>
        <pt x="751" y="660" on="0"/>
        <pt x="737" y="666" on="0"/>
        <pt x="733" y="668" on="1"/>
        <pt x="679" y="668" on="1"/>
        <pt x="658" y="668" on="0"/>
        <pt x="620" y="663" on="0"/>
        <pt x="583" y="657" on="0"/>
        <pt x="544" y="651" on="0"/>
        <pt x="522" y="649" on="1"/>
        <pt x="501" y="635" on="0"/>
        <pt x="485" y="591" on="0"/>
        <pt x="474" y="571" on="1"/>
        <pt x="472" y="568" on="0"/>
        <pt x="457" y="552" on="0"/>
        <pt x="440" y="533" on="0"/>
        <pt x="425" y="517" on="0"/>
        <pt x="423" y="514" on="1"/>
        <pt x="418" y="503" on="0"/>
        <pt x="411" y="476" on="0"/>
        <pt x="406" y="447" on="0"/>
        <pt x="401" y="419" on="0"/>
        <pt x="397" y="408" on="1"/>
        <pt x="394" y="403" on="0"/>
        <pt x="385" y="386" on="0"/>
        <pt x="376" y="367" on="0"/>
        <pt x="369" y="348" on="0"/>
        <pt x="368" y="341" on="1"/>
        <pt x="368" y="216" on="1"/>
        <pt x="383" y="196" on="0"/>
        <pt x="421" y="180" on="0"/>
        <pt x="460" y="167" on="0"/>
        <pt x="498" y="149" on="0"/>
        <pt x="512" y="128" on="1"/>
        <pt x="514" y="125" on="0"/>
        <pt x="520" y="114" on="0"/>
        <pt x="526" y="101" on="0"/>
        <pt x="531" y="91" on="0"/>
        <pt x="532" y="90" on="1"/>
        <pt x="532" y="89" on="0"/>
        <pt x="530" y="77" on="0"/>
        <pt x="527" y="62" on="0"/>
        <pt x="523" y="46" on="0"/>
        <pt x="522" y="42" on="1"/>
        <pt x="519" y="33" on="0"/>
        <pt x="503" y="21" on="0"/>
        <pt x="482" y="14" on="0"/>
        <pt x="459" y="12" on="0"/>
        <pt x="449" y="12" on="1"/>
        <pt x="444" y="12" on="0"/>
        <pt x="441" y="13" on="1"/>
        <pt x="438" y="13" on="0"/>
        <pt x="435" y="14" on="1"/>
        <pt x="433" y="14" on="0"/>
        <pt x="415" y="16" on="0"/>
        <pt x="396" y="19" on="0"/>
        <pt x="379" y="22" on="0"/>
        <pt x="378" y="22" on="1"/>
        <pt x="368" y="22" on="1"/>
        <pt x="359" y="22" on="0"/>
        <pt x="330" y="19" on="0"/>
        <pt x="302" y="16" on="0"/>
        <pt x="282" y="14" on="0"/>
        <pt x="281" y="14" on="1"/>
        <pt x="276" y="12" on="0"/>
        <pt x="255" y="-3" on="0"/>
        <pt x="250" y="-5" on="1"/>
        <pt x="205" y="-12" on="0"/>
        <pt x="140" y="-16" on="0"/>
        <pt x="100" y="-16" on="1"/>
        <pt x="66" y="-16" on="0"/>
        <pt x="20" y="2" on="0"/>
        <pt x="-9" y="22" on="1"/>
        <pt x="-9" y="36" on="1"/>
        <pt x="-9" y="47" on="0"/>
        <pt x="-7" y="52" on="1"/>
        <pt x="-20" y="66" on="0"/>
        <pt x="-20" y="92" on="1"/>
        <pt x="-20" y="100" on="0"/>
        <pt x="-18" y="117" on="0"/>
        <pt x="-16" y="125" on="1"/>
        <pt x="-14" y="131" on="0"/>
        <pt x="-5" y="140" on="0"/>
        <pt x="1" y="140" on="1"/>
      </contour>
      <contour>
        <pt x="570" y="808" on="1"/>
        <pt x="570" y="802" on="0"/>
        <pt x="580" y="793" on="0"/>
        <pt x="592" y="787" on="0"/>
        <pt x="605" y="784" on="0"/>
        <pt x="608" y="784" on="1"/>
        <pt x="610" y="784" on="0"/>
        <pt x="646" y="782" on="0"/>
        <pt x="657" y="782" on="1"/>
        <pt x="688" y="782" on="0"/>
        <pt x="743" y="794" on="0"/>
        <pt x="775" y="794" on="1"/>
        <pt x="781" y="794" on="0"/>
        <pt x="794" y="794" on="0"/>
        <pt x="800" y="792" on="1"/>
        <pt x="781" y="822" on="1"/>
        <pt x="781" y="822" on="0"/>
        <pt x="780" y="836" on="0"/>
        <pt x="779" y="855" on="0"/>
        <pt x="778" y="875" on="0"/>
        <pt x="778" y="881" on="1"/>
        <pt x="778" y="888" on="0"/>
        <pt x="779" y="915" on="0"/>
        <pt x="780" y="943" on="0"/>
        <pt x="781" y="964" on="0"/>
        <pt x="781" y="965" on="1"/>
        <pt x="781" y="968" on="0"/>
        <pt x="784" y="982" on="0"/>
        <pt x="788" y="999" on="0"/>
        <pt x="791" y="1012" on="0"/>
        <pt x="792" y="1014" on="1"/>
        <pt x="792" y="1033" on="1"/>
        <pt x="788" y="1059" on="0"/>
        <pt x="782" y="1117" on="0"/>
        <pt x="764" y="1165" on="0"/>
        <pt x="729" y="1197" on="0"/>
        <pt x="695" y="1197" on="1"/>
        <pt x="692" y="1196" on="0"/>
        <pt x="675" y="1160" on="0"/>
        <pt x="655" y="1113" on="0"/>
        <pt x="639" y="1070" on="0"/>
        <pt x="638" y="1062" on="1"/>
        <pt x="634" y="1049" on="0"/>
        <pt x="630" y="1031" on="0"/>
        <pt x="627" y="1014" on="0"/>
        <pt x="623" y="997" on="0"/>
        <pt x="619" y="986" on="1"/>
        <pt x="614" y="974" on="0"/>
        <pt x="605" y="959" on="0"/>
        <pt x="597" y="945" on="0"/>
        <pt x="591" y="930" on="0"/>
        <pt x="589" y="919" on="1"/>
        <pt x="588" y="915" on="0"/>
        <pt x="583" y="887" on="0"/>
        <pt x="577" y="853" on="0"/>
        <pt x="571" y="820" on="0"/>
        <pt x="570" y="811" on="1"/>
      </contour>
    </TTGlyph>
    <TTGlyph name="Aacute" xMin="-31" yMin="-21" xMax="1427" yMax="1853">
      <component glyphName="A" x="0" y="0" flags="0x204"/>
      <component glyphName="Acute" x="174" y="0" flags="0x4"/>
    </TTGlyph>
    <TTGlyph name="Abreve" xMin="-31" yMin="-21" xMax="1427" yMax="1847">
      <component glyphName="A" x="0" y="0" flags="0x204"/>
      <component glyphName="Breve" x="335" y="0" flags="0x4"/>
    </TTGlyph>
    <TTGlyph name="Acircumflex" xMin="-31" yMin="-21" xMax="1427" yMax="1853">
      <component glyphName="A" x="0" y="0" flags="0x204"/>
      <component glyphName="Circumflex" x="184" y="0" flags="0x4"/>
    </TTGlyph>
    <TTGlyph name="Acute" xMin="531" yMin="1509" xMax="1013" yMax="1853">
      <contour>
        <pt x="534" y="1586" on="1"/>
        <pt x="549" y="1626" on="0"/>
        <pt x="604" y="1683" on="0"/>
        <pt x="670" y="1728" on="0"/>
        <pt x="743" y="1765" on="0"/>
        <pt x="777" y="1786" on="1"/>
        <pt x="798" y="1799" on="0"/>
        <pt x="833" y="1823" on="0"/>
        <pt x="868" y="1842" on="0"/>
        <pt x="903" y="1853" on="0"/>
        <pt x="923" y="1853" on="1"/>
        <pt x="954" y="1853" on="0"/>
        <pt x="989" y="1839" on="1"/>
        <pt x="992" y="1838" on="0"/>
        <pt x="1000" y="1835" on="0"/>
        <pt x="1002" y="1834" on="1"/>
        <pt x="1003" y="1831" on="0"/>
        <pt x="1007" y="1815" on="0"/>
        <pt x="1011" y="1797" on="0"/>
        <pt x="1013" y="1781" on="0"/>
        <pt x="1012" y="1778" on="1"/>
        <pt x="1011" y="1776" on="0"/>
        <pt x="1010" y="1773" on="1"/>
        <pt x="1009" y="1771" on="0"/>
        <pt x="1007" y="1767" on="0"/>
        <pt x="1006" y="1765" on="1"/>
        <pt x="1001" y="1751" on="0"/>
        <pt x="994" y="1738" on="0"/>
        <pt x="983" y="1728" on="1"/>
        <pt x="972" y="1719" on="0"/>
        <pt x="953" y="1711" on="0"/>
        <pt x="935" y="1706" on="0"/>
        <pt x="917" y="1700" on="0"/>
        <pt x="907" y="1694" on="1"/>
        <pt x="902" y="1692" on="0"/>
        <pt x="881" y="1676" on="0"/>
        <pt x="879" y="1674" on="1"/>
        <pt x="859" y="1659" on="0"/>
        <pt x="823" y="1637" on="0"/>
        <pt x="787" y="1619" on="0"/>
        <pt x="751" y="1601" on="0"/>
        <pt x="731" y="1589" on="1"/>
        <pt x="728" y="1587" on="0"/>
        <pt x="715" y="1577" on="0"/>
        <pt x="700" y="1565" on="0"/>
        <pt x="688" y="1555" on="0"/>
        <pt x="686" y="1554" on="1"/>
        <pt x="681" y="1551" on="0"/>
        <pt x="653" y="1537" on="0"/>
        <pt x="621" y="1523" on="0"/>
        <pt x="593" y="1511" on="0"/>
        <pt x="587" y="1509" on="1"/>
        <pt x="581" y="1512" on="0"/>
        <pt x="581" y="1512" on="1"/>
        <pt x="564" y="1518" on="0"/>
        <pt x="531" y="1551" on="0"/>
        <pt x="531" y="1571" on="1"/>
        <pt x="531" y="1578" on="0"/>
      </contour>
    </TTGlyph>
    <TTGlyph name="Adieresis" xMin="-31" yMin="-21" xMax="1427" yMax="1806">
      <component glyphName="A" x="0" y="0" flags="0x204"/>
      <component glyphName="Dieresis" x="175" y="0" flags="0x4"/>
    </TTGlyph>
    <TTGlyph name="Agrave" xMin="-31" yMin="-21" xMax="1427" yMax="1854">
      <component glyphName="A" x="0" y="0" flags="0x204"/>
      <component glyphName="Grave" x="107" y="0" flags="0x4"/>
    </TTGlyph>
    <TTGlyph name="Amacron" xMin="-31" yMin="-21" xMax="1427" yMax="1708">
      <component glyphName="A" x="0" y="0" flags="0x204"/>
      <component glyphName="Macron" x="223" y="0" flags="0x4"/>
    </TTGlyph>
    <TTGlyph name="Aogonek" xMin="-31" yMin="-429" xMax="1427" yMax="1436">
      <contour>
        <pt x="1173" y="12" on="1"/>
        <pt x="1168" y="-6" on="0"/>
        <pt x="1151" y="-40" on="0"/>
        <pt x="1136" y="-75" on="0"/>
        <pt x="1125" y="-110" on="0"/>
        <pt x="1125" y="-128" on="1"/>
        <pt x="1125" y="-145" on="0"/>
        <pt x="1142" y="-185" on="0"/>
        <pt x="1147" y="-203" on="1"/>
        <pt x="1151" y="-214" on="0"/>
        <pt x="1154" y="-239" on="0"/>
        <pt x="1160" y="-250" on="1"/>
        <pt x="1167" y="-262" on="0"/>
        <pt x="1181" y="-280" on="0"/>
        <pt x="1187" y="-291" on="1"/>
        <pt x="1203" y="-300" on="1"/>
        <pt x="1210" y="-307" on="0"/>
        <pt x="1225" y="-310" on="0"/>
        <pt x="1236" y="-311" on="1"/>
        <pt x="1301" y="-315" on="1"/>
        <pt x="1319" y="-315" on="0"/>
        <pt x="1341" y="-305" on="0"/>
        <pt x="1356" y="-305" on="1"/>
        <pt x="1370" y="-305" on="1"/>
        <pt x="1389" y="-305" on="0"/>
        <pt x="1389" y="-323" on="1"/>
        <pt x="1389" y="-331" on="0"/>
        <pt x="1382" y="-340" on="1"/>
        <pt x="1360" y="-368" on="0"/>
        <pt x="1301" y="-404" on="0"/>
        <pt x="1268" y="-414" on="1"/>
        <pt x="1243" y="-426" on="1"/>
        <pt x="1232" y="-428" on="0"/>
        <pt x="1205" y="-429" on="0"/>
        <pt x="1193" y="-429" on="1"/>
        <pt x="1184" y="-429" on="0"/>
        <pt x="1152" y="-425" on="0"/>
        <pt x="1140" y="-423" on="1"/>
        <pt x="1125" y="-416" on="1"/>
        <pt x="1111" y="-412" on="0"/>
        <pt x="1086" y="-400" on="0"/>
        <pt x="1072" y="-395" on="1"/>
        <pt x="1055" y="-386" on="1"/>
        <pt x="1043" y="-369" on="1"/>
        <pt x="1039" y="-357" on="0"/>
        <pt x="1027" y="-336" on="0"/>
        <pt x="1020" y="-325" on="1"/>
        <pt x="1009" y="-306" on="0"/>
        <pt x="1000" y="-260" on="0"/>
        <pt x="1000" y="-236" on="1"/>
        <pt x="1000" y="-225" on="0"/>
        <pt x="1004" y="-193" on="0"/>
        <pt x="1006" y="-181" on="1"/>
        <pt x="1009" y="-152" on="1"/>
        <pt x="1018" y="-118" on="1"/>
        <pt x="1032" y="-86" on="1"/>
        <pt x="1047" y="-54" on="0"/>
        <pt x="1096" y="-6" on="0"/>
        <pt x="1126" y="12" on="1"/>
        <pt x="1095" y="12" on="1"/>
        <pt x="1087" y="23" on="0"/>
        <pt x="1074" y="26" on="0"/>
        <pt x="1062" y="26" on="1"/>
        <pt x="1021" y="26" on="0"/>
        <pt x="932" y="5" on="0"/>
        <pt x="882" y="5" on="1"/>
        <pt x="860" y="5" on="1"/>
        <pt x="844" y="5" on="0"/>
        <pt x="815" y="7" on="0"/>
        <pt x="804" y="14" on="1"/>
        <pt x="799" y="17" on="0"/>
        <pt x="799" y="31" on="1"/>
        <pt x="801" y="47" on="1"/>
        <pt x="803" y="52" on="0"/>
        <pt x="803" y="60" on="0"/>
        <pt x="803" y="62" on="1"/>
        <pt x="803" y="69" on="0"/>
        <pt x="809" y="71" on="1"/>
        <pt x="827" y="79" on="0"/>
        <pt x="873" y="87" on="0"/>
        <pt x="915" y="97" on="0"/>
        <pt x="944" y="115" on="0"/>
        <pt x="944" y="133" on="1"/>
        <pt x="944" y="135" on="1"/>
        <pt x="943" y="158" on="0"/>
        <pt x="938" y="217" on="0"/>
        <pt x="938" y="246" on="1"/>
        <pt x="938" y="256" on="0"/>
        <pt x="925" y="278" on="0"/>
        <pt x="924" y="287" on="1"/>
        <pt x="924" y="348" on="1"/>
        <pt x="922" y="361" on="0"/>
        <pt x="901" y="418" on="0"/>
        <pt x="870" y="474" on="0"/>
        <pt x="834" y="517" on="0"/>
        <pt x="816" y="517" on="1"/>
        <pt x="790" y="517" on="0"/>
        <pt x="735" y="495" on="0"/>
        <pt x="707" y="495" on="1"/>
        <pt x="683" y="495" on="0"/>
        <pt x="640" y="514" on="0"/>
        <pt x="611" y="514" on="1"/>
        <pt x="547" y="514" on="1"/>
        <pt x="526" y="514" on="0"/>
        <pt x="483" y="509" on="0"/>
        <pt x="465" y="498" on="1"/>
        <pt x="434" y="480" on="0"/>
        <pt x="382" y="419" on="0"/>
        <pt x="370" y="374" on="1"/>
        <pt x="363" y="304" on="1"/>
        <pt x="363" y="302" on="0"/>
        <pt x="359" y="286" on="0"/>
        <pt x="355" y="268" on="0"/>
        <pt x="351" y="253" on="0"/>
        <pt x="351" y="251" on="1"/>
        <pt x="351" y="249" on="0"/>
        <pt x="349" y="241" on="0"/>
        <pt x="349" y="237" on="1"/>
        <pt x="349" y="219" on="0"/>
        <pt x="361" y="203" on="0"/>
        <pt x="370" y="187" on="1"/>
        <pt x="375" y="178" on="0"/>
        <pt x="392" y="148" on="0"/>
        <pt x="401" y="137" on="1"/>
        <pt x="415" y="125" on="0"/>
        <pt x="462" y="111" on="0"/>
        <pt x="508" y="95" on="0"/>
        <pt x="541" y="71" on="0"/>
        <pt x="541" y="50" on="1"/>
        <pt x="541" y="43" on="1"/>
        <pt x="536" y="4" on="0"/>
        <pt x="488" y="-21" on="0"/>
        <pt x="450" y="-21" on="1"/>
        <pt x="363" y="2" on="1"/>
        <pt x="327" y="2" on="1"/>
        <pt x="309" y="2" on="0"/>
        <pt x="271" y="0" on="0"/>
        <pt x="236" y="-4" on="0"/>
        <pt x="209" y="-11" on="0"/>
        <pt x="202" y="-16" on="1"/>
        <pt x="177" y="-16" on="0"/>
        <pt x="128" y="-18" on="0"/>
        <pt x="89" y="-20" on="0"/>
        <pt x="64" y="-21" on="0"/>
        <pt x="62" y="-21" on="1"/>
        <pt x="49" y="-21" on="0"/>
        <pt x="17" y="-13" on="0"/>
        <pt x="-12" y="3" on="0"/>
        <pt x="-31" y="24" on="0"/>
        <pt x="-31" y="38" on="1"/>
        <pt x="-31" y="57" on="0"/>
        <pt x="-6" y="77" on="0"/>
        <pt x="28" y="88" on="0"/>
        <pt x="63" y="95" on="0"/>
        <pt x="74" y="102" on="1"/>
        <pt x="77" y="104" on="0"/>
        <pt x="87" y="113" on="0"/>
        <pt x="99" y="124" on="0"/>
        <pt x="111" y="133" on="0"/>
        <pt x="114" y="135" on="1"/>
        <pt x="162" y="159" on="1"/>
        <pt x="171" y="163" on="0"/>
        <pt x="198" y="201" on="0"/>
        <pt x="225" y="248" on="0"/>
        <pt x="249" y="293" on="0"/>
        <pt x="254" y="304" on="1"/>
        <pt x="256" y="306" on="0"/>
        <pt x="258" y="324" on="0"/>
        <pt x="258" y="329" on="1"/>
        <pt x="259" y="333" on="0"/>
        <pt x="265" y="346" on="0"/>
        <pt x="265" y="348" on="1"/>
        <pt x="267" y="350" on="0"/>
        <pt x="277" y="365" on="0"/>
        <pt x="289" y="381" on="0"/>
        <pt x="298" y="396" on="0"/>
        <pt x="299" y="398" on="1"/>
        <pt x="300" y="399" on="0"/>
        <pt x="302" y="412" on="0"/>
        <pt x="304" y="427" on="0"/>
        <pt x="306" y="441" on="0"/>
        <pt x="306" y="443" on="1"/>
        <pt x="312" y="475" on="0"/>
        <pt x="335" y="540" on="0"/>
        <pt x="358" y="604" on="0"/>
        <pt x="376" y="670" on="0"/>
        <pt x="379" y="704" on="1"/>
        <pt x="448" y="894" on="1"/>
        <pt x="462" y="934" on="0"/>
        <pt x="467" y="1023" on="0"/>
        <pt x="479" y="1066" on="1"/>
        <pt x="496" y="1105" on="0"/>
        <pt x="544" y="1180" on="0"/>
        <pt x="564" y="1223" on="1"/>
        <pt x="571" y="1245" on="0"/>
        <pt x="574" y="1294" on="0"/>
        <pt x="588" y="1315" on="1"/>
        <pt x="593" y="1322" on="0"/>
        <pt x="633" y="1362" on="0"/>
        <pt x="679" y="1404" on="0"/>
        <pt x="723" y="1436" on="0"/>
        <pt x="733" y="1436" on="1"/>
        <pt x="752" y="1436" on="0"/>
        <pt x="759" y="1422" on="1"/>
        <pt x="764" y="1418" on="0"/>
        <pt x="775" y="1400" on="0"/>
        <pt x="775" y="1398" on="1"/>
        <pt x="780" y="1380" on="0"/>
        <pt x="798" y="1344" on="0"/>
        <pt x="804" y="1323" on="1"/>
        <pt x="803" y="1301" on="1"/>
        <pt x="803" y="1287" on="0"/>
        <pt x="816" y="1256" on="0"/>
        <pt x="820" y="1246" on="1"/>
        <pt x="831" y="1211" on="0"/>
        <pt x="848" y="1145" on="0"/>
        <pt x="853" y="1112" on="1"/>
        <pt x="857" y="1092" on="0"/>
        <pt x="875" y="1059" on="0"/>
        <pt x="875" y="1038" on="1"/>
        <pt x="874" y="1022" on="1"/>
        <pt x="892" y="1006" on="0"/>
        <pt x="910" y="980" on="0"/>
        <pt x="921" y="953" on="0"/>
        <pt x="932" y="922" on="0"/>
        <pt x="944" y="900" on="1"/>
        <pt x="954" y="880" on="0"/>
        <pt x="964" y="845" on="0"/>
        <pt x="971" y="809" on="0"/>
        <pt x="979" y="769" on="0"/>
        <pt x="988" y="746" on="1"/>
        <pt x="989" y="741" on="0"/>
        <pt x="1000" y="717" on="0"/>
        <pt x="1000" y="713" on="1"/>
        <pt x="1000" y="675" on="1"/>
        <pt x="1000" y="673" on="0"/>
        <pt x="1008" y="659" on="0"/>
        <pt x="1018" y="642" on="0"/>
        <pt x="1026" y="626" on="0"/>
        <pt x="1026" y="623" on="1"/>
        <pt x="1026" y="622" on="0"/>
        <pt x="1027" y="613" on="0"/>
        <pt x="1028" y="602" on="0"/>
        <pt x="1030" y="592" on="0"/>
        <pt x="1031" y="592" on="1"/>
        <pt x="1059" y="564" on="1"/>
        <pt x="1066" y="558" on="0"/>
        <pt x="1070" y="542" on="0"/>
        <pt x="1072" y="523" on="0"/>
        <pt x="1074" y="504" on="0"/>
        <pt x="1079" y="495" on="1"/>
        <pt x="1091" y="467" on="0"/>
        <pt x="1109" y="408" on="0"/>
        <pt x="1124" y="379" on="1"/>
        <pt x="1133" y="358" on="0"/>
        <pt x="1145" y="311" on="0"/>
        <pt x="1145" y="289" on="1"/>
        <pt x="1145" y="277" on="1"/>
        <pt x="1158" y="254" on="0"/>
        <pt x="1190" y="218" on="0"/>
        <pt x="1200" y="201" on="1"/>
        <pt x="1209" y="179" on="0"/>
        <pt x="1229" y="153" on="0"/>
        <pt x="1248" y="137" on="0"/>
        <pt x="1266" y="128" on="0"/>
        <pt x="1275" y="123" on="1"/>
        <pt x="1297" y="110" on="0"/>
        <pt x="1344" y="98" on="0"/>
        <pt x="1380" y="92" on="1"/>
        <pt x="1408" y="85" on="1"/>
        <pt x="1421" y="77" on="0"/>
        <pt x="1427" y="46" on="0"/>
        <pt x="1427" y="35" on="1"/>
        <pt x="1427" y="14" on="0"/>
        <pt x="1394" y="-5" on="0"/>
        <pt x="1377" y="-5" on="1"/>
        <pt x="1292" y="0" on="1"/>
        <pt x="1271" y="0" on="1"/>
        <pt x="1266" y="4" on="0"/>
        <pt x="1249" y="9" on="0"/>
        <pt x="1231" y="11" on="0"/>
        <pt x="1216" y="11" on="0"/>
        <pt x="1214" y="12" on="1"/>
      </contour>
      <contour>
        <pt x="484" y="716" on="1"/>
        <pt x="483" y="705" on="0"/>
        <pt x="481" y="684" on="0"/>
        <pt x="481" y="675" on="1"/>
        <pt x="481" y="647" on="0"/>
        <pt x="507" y="628" on="0"/>
        <pt x="534" y="628" on="1"/>
        <pt x="537" y="628" on="0"/>
        <pt x="539" y="630" on="1"/>
        <pt x="540" y="631" on="0"/>
        <pt x="541" y="633" on="1"/>
        <pt x="543" y="633" on="0"/>
        <pt x="566" y="637" on="0"/>
        <pt x="571" y="638" on="1"/>
        <pt x="580" y="637" on="0"/>
        <pt x="597" y="633" on="0"/>
        <pt x="602" y="633" on="1"/>
        <pt x="759" y="633" on="1"/>
        <pt x="827" y="633" on="0"/>
        <pt x="827" y="695" on="1"/>
        <pt x="827" y="704" on="0"/>
        <pt x="814" y="732" on="0"/>
        <pt x="796" y="765" on="0"/>
        <pt x="779" y="801" on="0"/>
        <pt x="775" y="818" on="1"/>
        <pt x="775" y="825" on="0"/>
        <pt x="770" y="830" on="1"/>
        <pt x="723" y="900" on="1"/>
        <pt x="723" y="905" on="0"/>
        <pt x="716" y="915" on="0"/>
        <pt x="714" y="920" on="1"/>
        <pt x="709" y="941" on="1"/>
        <pt x="704" y="962" on="0"/>
        <pt x="690" y="1022" on="0"/>
        <pt x="670" y="1076" on="0"/>
        <pt x="645" y="1114" on="0"/>
        <pt x="630" y="1114" on="1"/>
        <pt x="621" y="1114" on="0"/>
        <pt x="593" y="1062" on="0"/>
        <pt x="560" y="982" on="0"/>
        <pt x="527" y="885" on="0"/>
        <pt x="501" y="797" on="0"/>
        <pt x="484" y="728" on="0"/>
      </contour>
    </TTGlyph>
    <TTGlyph name="Aring" xMin="-31" yMin="-21" xMax="1427" yMax="1854">
      <component glyphName="A" x="0" y="0" flags="0x204"/>
      <component glyphName="Ring" x="127" y="0" flags="0x4"/>
    </TTGlyph>
    <TTGlyph name="Atilde" xMin="-31" yMin="-21" xMax="1427" yMax="1854">
      <component glyphName="A" x="0" y="0" flags="0x204"/>
      <component glyphName="Tilde" x="153" y="0" flags="0x4"/>
    </TTGlyph>
    <TTGlyph name="B" xMin="82" yMin="-16" xMax="1272" yMax="1394">
      <contour>
        <pt x="87" y="33" on="1"/>
        <pt x="87" y="38" on="1"/>
        <pt x="90" y="41" on="0"/>
        <pt x="116" y="52" on="0"/>
        <pt x="152" y="64" on="0"/>
        <pt x="192" y="76" on="0"/>
        <pt x="228" y="86" on="0"/>
        <pt x="253" y="94" on="0"/>
        <pt x="255" y="95" on="1"/>
        <pt x="273" y="120" on="0"/>
        <pt x="291" y="173" on="0"/>
        <pt x="299" y="228" on="0"/>
        <pt x="302" y="285" on="0"/>
        <pt x="305" y="315" on="1"/>
        <pt x="312" y="338" on="0"/>
        <pt x="321" y="380" on="0"/>
        <pt x="321" y="403" on="1"/>
        <pt x="321" y="420" on="0"/>
        <pt x="305" y="446" on="0"/>
        <pt x="305" y="462" on="1"/>
        <pt x="305" y="488" on="0"/>
        <pt x="321" y="541" on="0"/>
        <pt x="321" y="564" on="1"/>
        <pt x="321" y="572" on="0"/>
        <pt x="319" y="583" on="0"/>
        <pt x="316" y="593" on="0"/>
        <pt x="314" y="603" on="0"/>
        <pt x="314" y="611" on="1"/>
        <pt x="314" y="621" on="0"/>
        <pt x="319" y="636" on="0"/>
        <pt x="326" y="649" on="0"/>
        <pt x="331" y="662" on="0"/>
        <pt x="331" y="670" on="1"/>
        <pt x="305" y="772" on="1"/>
        <pt x="305" y="787" on="0"/>
        <pt x="321" y="808" on="0"/>
        <pt x="321" y="825" on="1"/>
        <pt x="314" y="855" on="1"/>
        <pt x="314" y="919" on="1"/>
        <pt x="314" y="922" on="0"/>
        <pt x="310" y="933" on="0"/>
        <pt x="304" y="945" on="0"/>
        <pt x="300" y="955" on="0"/>
        <pt x="300" y="957" on="1"/>
        <pt x="300" y="983" on="0"/>
        <pt x="310" y="1023" on="0"/>
        <pt x="310" y="1043" on="1"/>
        <pt x="305" y="1202" on="1"/>
        <pt x="300" y="1212" on="0"/>
        <pt x="288" y="1224" on="0"/>
        <pt x="274" y="1232" on="0"/>
        <pt x="257" y="1241" on="0"/>
        <pt x="248" y="1249" on="1"/>
        <pt x="231" y="1274" on="0"/>
        <pt x="175" y="1292" on="0"/>
        <pt x="121" y="1303" on="0"/>
        <pt x="82" y="1321" on="0"/>
        <pt x="82" y="1346" on="1"/>
        <pt x="82" y="1364" on="0"/>
        <pt x="111" y="1383" on="0"/>
        <pt x="151" y="1392" on="0"/>
        <pt x="191" y="1394" on="0"/>
        <pt x="203" y="1394" on="1"/>
        <pt x="239" y="1394" on="1"/>
        <pt x="257" y="1394" on="0"/>
        <pt x="299" y="1393" on="0"/>
        <pt x="336" y="1390" on="0"/>
        <pt x="362" y="1385" on="0"/>
        <pt x="364" y="1382" on="1"/>
        <pt x="687" y="1394" on="1"/>
        <pt x="769" y="1389" on="1"/>
        <pt x="810" y="1394" on="1"/>
        <pt x="846" y="1379" on="0"/>
        <pt x="916" y="1361" on="0"/>
        <pt x="981" y="1337" on="0"/>
        <pt x="1040" y="1300" on="0"/>
        <pt x="1064" y="1266" on="1"/>
        <pt x="1086" y="1234" on="0"/>
        <pt x="1117" y="1187" on="0"/>
        <pt x="1137" y="1140" on="0"/>
        <pt x="1146" y="1086" on="0"/>
        <pt x="1146" y="1048" on="1"/>
        <pt x="1146" y="1019" on="0"/>
        <pt x="1132" y="948" on="0"/>
        <pt x="1118" y="919" on="1"/>
        <pt x="1107" y="902" on="0"/>
        <pt x="1084" y="880" on="0"/>
        <pt x="1058" y="862" on="0"/>
        <pt x="1029" y="846" on="0"/>
        <pt x="1013" y="836" on="1"/>
        <pt x="1002" y="815" on="1"/>
        <pt x="995" y="806" on="0"/>
        <pt x="958" y="798" on="0"/>
        <pt x="920" y="788" on="0"/>
        <pt x="890" y="770" on="0"/>
        <pt x="890" y="751" on="1"/>
        <pt x="890" y="742" on="0"/>
        <pt x="926" y="728" on="0"/>
        <pt x="973" y="716" on="0"/>
        <pt x="1018" y="706" on="0"/>
        <pt x="1028" y="702" on="1"/>
        <pt x="1057" y="687" on="0"/>
        <pt x="1102" y="656" on="0"/>
        <pt x="1128" y="640" on="1"/>
        <pt x="1161" y="618" on="1"/>
        <pt x="1175" y="591" on="0"/>
        <pt x="1213" y="535" on="0"/>
        <pt x="1248" y="476" on="0"/>
        <pt x="1272" y="413" on="0"/>
        <pt x="1272" y="379" on="1"/>
        <pt x="1272" y="342" on="0"/>
        <pt x="1267" y="276" on="0"/>
        <pt x="1253" y="251" on="1"/>
        <pt x="1248" y="242" on="0"/>
        <pt x="1220" y="209" on="0"/>
        <pt x="1183" y="168" on="0"/>
        <pt x="1140" y="124" on="0"/>
        <pt x="1100" y="87" on="0"/>
        <pt x="1065" y="60" on="0"/>
        <pt x="1054" y="57" on="1"/>
        <pt x="1019" y="57" on="0"/>
        <pt x="993" y="48" on="0"/>
        <pt x="988" y="48" on="1"/>
        <pt x="935" y="31" on="0"/>
        <pt x="849" y="9" on="0"/>
        <pt x="796" y="5" on="1"/>
        <pt x="751" y="-10" on="1"/>
        <pt x="724" y="0" on="0"/>
        <pt x="696" y="0" on="1"/>
        <pt x="662" y="0" on="0"/>
        <pt x="635" y="-10" on="1"/>
        <pt x="577" y="-5" on="0"/>
        <pt x="465" y="3" on="0"/>
        <pt x="404" y="3" on="1"/>
        <pt x="356" y="3" on="0"/>
        <pt x="257" y="-16" on="0"/>
        <pt x="203" y="-16" on="1"/>
        <pt x="198" y="-16" on="0"/>
        <pt x="161" y="-11" on="0"/>
        <pt x="120" y="1" on="0"/>
        <pt x="87" y="20" on="0"/>
      </contour>
      <contour>
        <pt x="506" y="303" on="1"/>
        <pt x="520" y="256" on="1"/>
        <pt x="523" y="217" on="0"/>
        <pt x="525" y="174" on="0"/>
        <pt x="534" y="149" on="0"/>
        <pt x="558" y="132" on="0"/>
        <pt x="584" y="119" on="1"/>
        <pt x="594" y="114" on="0"/>
        <pt x="606" y="106" on="0"/>
        <pt x="613" y="102" on="1"/>
        <pt x="634" y="93" on="0"/>
        <pt x="673" y="69" on="0"/>
        <pt x="699" y="69" on="1"/>
        <pt x="718" y="69" on="0"/>
        <pt x="741" y="81" on="0"/>
        <pt x="757" y="81" on="1"/>
        <pt x="803" y="76" on="1"/>
        <pt x="815" y="76" on="0"/>
        <pt x="844" y="88" on="0"/>
        <pt x="872" y="106" on="0"/>
        <pt x="897" y="126" on="0"/>
        <pt x="905" y="135" on="1"/>
        <pt x="910" y="137" on="0"/>
        <pt x="929" y="154" on="0"/>
        <pt x="949" y="174" on="0"/>
        <pt x="966" y="193" on="0"/>
        <pt x="971" y="197" on="1"/>
        <pt x="975" y="211" on="0"/>
        <pt x="992" y="237" on="0"/>
        <pt x="1007" y="264" on="0"/>
        <pt x="1019" y="293" on="0"/>
        <pt x="1019" y="310" on="1"/>
        <pt x="1019" y="354" on="0"/>
        <pt x="1012" y="443" on="0"/>
        <pt x="990" y="526" on="0"/>
        <pt x="949" y="601" on="0"/>
        <pt x="914" y="630" on="1"/>
        <pt x="882" y="653" on="0"/>
        <pt x="821" y="682" on="0"/>
        <pt x="782" y="687" on="1"/>
        <pt x="731" y="687" on="1"/>
        <pt x="690" y="691" on="0"/>
        <pt x="624" y="708" on="0"/>
        <pt x="590" y="708" on="1"/>
        <pt x="532" y="702" on="1"/>
        <pt x="530" y="698" on="0"/>
        <pt x="523" y="683" on="0"/>
        <pt x="516" y="666" on="0"/>
        <pt x="509" y="652" on="0"/>
        <pt x="506" y="649" on="1"/>
        <pt x="506" y="633" on="0"/>
        <pt x="513" y="614" on="0"/>
        <pt x="513" y="602" on="1"/>
        <pt x="499" y="462" on="1"/>
        <pt x="499" y="435" on="0"/>
        <pt x="513" y="373" on="0"/>
        <pt x="513" y="339" on="1"/>
      </contour>
      <contour>
        <pt x="526" y="761" on="1"/>
        <pt x="539" y="744" on="1"/>
        <pt x="596" y="763" on="1"/>
        <pt x="631" y="767" on="0"/>
        <pt x="708" y="773" on="0"/>
        <pt x="744" y="773" on="1"/>
        <pt x="763" y="773" on="0"/>
        <pt x="777" y="773" on="0"/>
        <pt x="782" y="772" on="1"/>
        <pt x="811" y="796" on="0"/>
        <pt x="858" y="857" on="0"/>
        <pt x="895" y="923" on="0"/>
        <pt x="925" y="993" on="0"/>
        <pt x="938" y="1026" on="1"/>
        <pt x="938" y="1043" on="1"/>
        <pt x="924" y="1069" on="1"/>
        <pt x="914" y="1105" on="0"/>
        <pt x="884" y="1177" on="0"/>
        <pt x="839" y="1237" on="0"/>
        <pt x="778" y="1278" on="0"/>
        <pt x="737" y="1282" on="1"/>
        <pt x="735" y="1282" on="0"/>
        <pt x="722" y="1284" on="0"/>
        <pt x="708" y="1285" on="0"/>
        <pt x="696" y="1287" on="0"/>
        <pt x="694" y="1287" on="1"/>
        <pt x="681" y="1289" on="0"/>
        <pt x="658" y="1301" on="0"/>
        <pt x="636" y="1315" on="0"/>
        <pt x="611" y="1325" on="0"/>
        <pt x="597" y="1325" on="1"/>
        <pt x="590" y="1325" on="0"/>
        <pt x="563" y="1311" on="0"/>
        <pt x="536" y="1290" on="0"/>
        <pt x="515" y="1268" on="0"/>
        <pt x="513" y="1259" on="1"/>
        <pt x="513" y="1218" on="1"/>
        <pt x="520" y="1138" on="1"/>
        <pt x="520" y="1122" on="0"/>
        <pt x="513" y="1087" on="0"/>
        <pt x="506" y="1052" on="0"/>
        <pt x="499" y="1019" on="0"/>
        <pt x="499" y="1005" on="1"/>
        <pt x="499" y="940" on="0"/>
        <pt x="521" y="818" on="0"/>
      </contour>
    </TTGlyph>
    <TTGlyph name="Breve" xMin="128" yMin="1565" xMax="556" yMax="1847">
      <contour>
        <pt x="328" y="1565" on="1"/>
        <pt x="320" y="1565" on="0"/>
        <pt x="304" y="1566" on="0"/>
        <pt x="297" y="1568" on="1"/>
        <pt x="297" y="1568" on="0"/>
        <pt x="283" y="1572" on="0"/>
        <pt x="268" y="1577" on="0"/>
        <pt x="256" y="1581" on="0"/>
        <pt x="256" y="1581" on="1"/>
        <pt x="243" y="1583" on="1"/>
        <pt x="229" y="1585" on="0"/>
        <pt x="212" y="1604" on="0"/>
        <pt x="205" y="1608" on="1"/>
        <pt x="189" y="1617" on="1"/>
        <pt x="179" y="1626" on="0"/>
        <pt x="167" y="1649" on="0"/>
        <pt x="157" y="1673" on="0"/>
        <pt x="146" y="1698" on="0"/>
        <pt x="138" y="1709" on="1"/>
        <pt x="137" y="1724" on="1"/>
        <pt x="132" y="1734" on="1"/>
        <pt x="130" y="1740" on="0"/>
        <pt x="130" y="1747" on="1"/>
        <pt x="131" y="1759" on="1"/>
        <pt x="131" y="1797" on="1"/>
        <pt x="131" y="1805" on="0"/>
        <pt x="129" y="1825" on="0"/>
        <pt x="128" y="1833" on="1"/>
        <pt x="137" y="1847" on="0"/>
        <pt x="150" y="1847" on="1"/>
        <pt x="164" y="1847" on="0"/>
        <pt x="173" y="1833" on="1"/>
        <pt x="175" y="1820" on="0"/>
        <pt x="179" y="1809" on="1"/>
        <pt x="183" y="1798" on="0"/>
        <pt x="204" y="1776" on="0"/>
        <pt x="208" y="1765" on="1"/>
        <pt x="209" y="1762" on="1"/>
        <pt x="210" y="1759" on="1"/>
        <pt x="213" y="1751" on="0"/>
        <pt x="221" y="1736" on="0"/>
        <pt x="229" y="1729" on="1"/>
        <pt x="243" y="1718" on="0"/>
        <pt x="283" y="1698" on="0"/>
        <pt x="300" y="1695" on="1"/>
        <pt x="312" y="1693" on="0"/>
        <pt x="330" y="1691" on="0"/>
        <pt x="341" y="1688" on="1"/>
        <pt x="349" y="1686" on="0"/>
        <pt x="360" y="1681" on="0"/>
        <pt x="367" y="1681" on="1"/>
        <pt x="374" y="1681" on="0"/>
        <pt x="377" y="1683" on="1"/>
        <pt x="385" y="1687" on="0"/>
        <pt x="391" y="1689" on="0"/>
        <pt x="393" y="1689" on="1"/>
        <pt x="395" y="1693" on="1"/>
        <pt x="396" y="1695" on="0"/>
        <pt x="397" y="1698" on="1"/>
        <pt x="408" y="1707" on="1"/>
        <pt x="450" y="1724" on="1"/>
        <pt x="455" y="1728" on="1"/>
        <pt x="468" y="1737" on="1"/>
        <pt x="471" y="1740" on="0"/>
        <pt x="471" y="1742" on="1"/>
        <pt x="474" y="1745" on="1"/>
        <pt x="480" y="1751" on="0"/>
        <pt x="487" y="1779" on="0"/>
        <pt x="496" y="1789" on="1"/>
        <pt x="500" y="1793" on="1"/>
        <pt x="501" y="1801" on="1"/>
        <pt x="511" y="1833" on="1"/>
        <pt x="520" y="1847" on="0"/>
        <pt x="533" y="1847" on="1"/>
        <pt x="541" y="1847" on="0"/>
        <pt x="551" y="1838" on="0"/>
        <pt x="556" y="1833" on="1"/>
        <pt x="556" y="1800" on="1"/>
        <pt x="556" y="1789" on="0"/>
        <pt x="554" y="1763" on="0"/>
        <pt x="552" y="1754" on="1"/>
        <pt x="547" y="1739" on="0"/>
        <pt x="533" y="1706" on="0"/>
        <pt x="530" y="1695" on="1"/>
        <pt x="525" y="1680" on="0"/>
        <pt x="519" y="1656" on="0"/>
        <pt x="512" y="1645" on="1"/>
        <pt x="499" y="1624" on="0"/>
        <pt x="467" y="1595" on="0"/>
        <pt x="446" y="1589" on="1"/>
        <pt x="428" y="1584" on="0"/>
        <pt x="403" y="1569" on="0"/>
        <pt x="379" y="1567" on="1"/>
        <pt x="369" y="1566" on="0"/>
        <pt x="349" y="1565" on="0"/>
        <pt x="341" y="1565" on="1"/>
      </contour>
    </TTGlyph>
    <TTGlyph name="C" xMin="95" yMin="-22" xMax="1392" yMax="1453">
      <contour>
        <pt x="109" y="529" on="1"/>
        <pt x="109" y="532" on="0"/>
        <pt x="106" y="544" on="0"/>
        <pt x="103" y="557" on="0"/>
        <pt x="100" y="568" on="0"/>
        <pt x="100" y="571" on="1"/>
        <pt x="98" y="578" on="0"/>
        <pt x="98" y="586" on="0"/>
        <pt x="98" y="590" on="1"/>
        <pt x="98" y="598" on="0"/>
        <pt x="102" y="608" on="0"/>
        <pt x="107" y="618" on="1"/>
        <pt x="95" y="818" on="1"/>
        <pt x="100" y="874" on="1"/>
        <pt x="102" y="877" on="0"/>
        <pt x="104" y="881" on="1"/>
        <pt x="106" y="884" on="0"/>
        <pt x="108" y="889" on="0"/>
        <pt x="109" y="891" on="1"/>
        <pt x="118" y="912" on="0"/>
        <pt x="128" y="950" on="0"/>
        <pt x="135" y="971" on="1"/>
        <pt x="140" y="991" on="0"/>
        <pt x="140" y="1009" on="1"/>
        <pt x="140" y="1031" on="0"/>
        <pt x="148" y="1045" on="1"/>
        <pt x="161" y="1075" on="0"/>
        <pt x="194" y="1130" on="0"/>
        <pt x="218" y="1167" on="1"/>
        <pt x="220" y="1170" on="0"/>
        <pt x="224" y="1177" on="0"/>
        <pt x="226" y="1180" on="1"/>
        <pt x="235" y="1193" on="0"/>
        <pt x="256" y="1225" on="0"/>
        <pt x="257" y="1227" on="1"/>
        <pt x="269" y="1245" on="0"/>
        <pt x="292" y="1263" on="0"/>
        <pt x="308" y="1278" on="1"/>
        <pt x="342" y="1304" on="0"/>
        <pt x="394" y="1348" on="0"/>
        <pt x="430" y="1370" on="1"/>
        <pt x="455" y="1381" on="1"/>
        <pt x="464" y="1384" on="0"/>
        <pt x="486" y="1395" on="0"/>
        <pt x="510" y="1407" on="0"/>
        <pt x="532" y="1417" on="0"/>
        <pt x="541" y="1420" on="1"/>
        <pt x="643" y="1434" on="1"/>
        <pt x="647" y="1434" on="0"/>
        <pt x="665" y="1440" on="0"/>
        <pt x="669" y="1445" on="1"/>
        <pt x="712" y="1446" on="0"/>
        <pt x="764" y="1448" on="0"/>
        <pt x="787" y="1448" on="1"/>
        <pt x="818" y="1448" on="0"/>
        <pt x="878" y="1446" on="0"/>
        <pt x="908" y="1445" on="1"/>
        <pt x="927" y="1440" on="0"/>
        <pt x="951" y="1435" on="0"/>
        <pt x="965" y="1432" on="0"/>
        <pt x="971" y="1432" on="0"/>
        <pt x="974" y="1432" on="1"/>
        <pt x="986" y="1433" on="0"/>
        <pt x="1001" y="1434" on="0"/>
        <pt x="1014" y="1434" on="0"/>
        <pt x="1030" y="1434" on="0"/>
        <pt x="1043" y="1434" on="1"/>
        <pt x="1054" y="1428" on="0"/>
        <pt x="1080" y="1406" on="0"/>
        <pt x="1091" y="1406" on="1"/>
        <pt x="1095" y="1406" on="0"/>
        <pt x="1103" y="1412" on="0"/>
        <pt x="1105" y="1412" on="1"/>
        <pt x="1164" y="1412" on="1"/>
        <pt x="1177" y="1414" on="0"/>
        <pt x="1200" y="1427" on="0"/>
        <pt x="1223" y="1442" on="0"/>
        <pt x="1245" y="1453" on="0"/>
        <pt x="1259" y="1453" on="1"/>
        <pt x="1276" y="1453" on="0"/>
        <pt x="1301" y="1432" on="0"/>
        <pt x="1301" y="1412" on="1"/>
        <pt x="1301" y="1246" on="1"/>
        <pt x="1302" y="1241" on="0"/>
        <pt x="1306" y="1219" on="0"/>
        <pt x="1306" y="1214" on="1"/>
        <pt x="1315" y="1166" on="0"/>
        <pt x="1339" y="1065" on="0"/>
        <pt x="1339" y="1017" on="1"/>
        <pt x="1338" y="1011" on="0"/>
        <pt x="1330" y="997" on="0"/>
        <pt x="1319" y="985" on="0"/>
        <pt x="1309" y="976" on="0"/>
        <pt x="1306" y="976" on="1"/>
        <pt x="1306" y="974" on="0"/>
        <pt x="1299" y="974" on="1"/>
        <pt x="1279" y="974" on="0"/>
        <pt x="1250" y="992" on="0"/>
        <pt x="1230" y="1020" on="0"/>
        <pt x="1220" y="1052" on="0"/>
        <pt x="1218" y="1066" on="1"/>
        <pt x="1218" y="1099" on="1"/>
        <pt x="1216" y="1113" on="0"/>
        <pt x="1209" y="1130" on="0"/>
        <pt x="1199" y="1143" on="0"/>
        <pt x="1186" y="1157" on="0"/>
        <pt x="1178" y="1168" on="1"/>
        <pt x="1167" y="1179" on="0"/>
        <pt x="1163" y="1206" on="0"/>
        <pt x="1154" y="1220" on="1"/>
        <pt x="1152" y="1224" on="0"/>
        <pt x="1138" y="1232" on="0"/>
        <pt x="1136" y="1232" on="1"/>
        <pt x="1072" y="1278" on="1"/>
        <pt x="1072" y="1279" on="0"/>
        <pt x="1063" y="1288" on="0"/>
        <pt x="1053" y="1299" on="0"/>
        <pt x="1044" y="1309" on="0"/>
        <pt x="1043" y="1311" on="1"/>
        <pt x="1032" y="1317" on="0"/>
        <pt x="1031" y="1317" on="1"/>
        <pt x="1029" y="1315" on="0"/>
        <pt x="1017" y="1315" on="1"/>
        <pt x="1010" y="1315" on="0"/>
        <pt x="1010" y="1317" on="1"/>
        <pt x="989" y="1321" on="0"/>
        <pt x="950" y="1339" on="0"/>
        <pt x="934" y="1348" on="1"/>
        <pt x="813" y="1353" on="1"/>
        <pt x="806" y="1361" on="0"/>
        <pt x="792" y="1365" on="0"/>
        <pt x="782" y="1365" on="1"/>
        <pt x="748" y="1365" on="0"/>
        <pt x="700" y="1353" on="0"/>
        <pt x="680" y="1342" on="1"/>
        <pt x="679" y="1340" on="0"/>
        <pt x="678" y="1339" on="1"/>
        <pt x="676" y="1337" on="0"/>
        <pt x="674" y="1337" on="1"/>
        <pt x="660" y="1326" on="0"/>
        <pt x="627" y="1314" on="0"/>
        <pt x="593" y="1303" on="0"/>
        <pt x="560" y="1290" on="0"/>
        <pt x="546" y="1278" on="1"/>
        <pt x="508" y="1246" on="1"/>
        <pt x="507" y="1244" on="0"/>
        <pt x="489" y="1231" on="0"/>
        <pt x="488" y="1227" on="1"/>
        <pt x="483" y="1216" on="0"/>
        <pt x="459" y="1197" on="0"/>
        <pt x="455" y="1195" on="1"/>
        <pt x="447" y="1184" on="0"/>
        <pt x="440" y="1159" on="0"/>
        <pt x="436" y="1157" on="1"/>
        <pt x="413" y="1124" on="1"/>
        <pt x="385" y="1060" on="1"/>
        <pt x="372" y="1002" on="1"/>
        <pt x="371" y="1000" on="0"/>
        <pt x="364" y="990" on="0"/>
        <pt x="355" y="979" on="0"/>
        <pt x="346" y="971" on="0"/>
        <pt x="344" y="971" on="1"/>
        <pt x="344" y="970" on="0"/>
        <pt x="342" y="956" on="0"/>
        <pt x="341" y="937" on="0"/>
        <pt x="339" y="918" on="0"/>
        <pt x="339" y="913" on="1"/>
        <pt x="339" y="886" on="1"/>
        <pt x="344" y="784" on="1"/>
        <pt x="356" y="735" on="1"/>
        <pt x="344" y="680" on="1"/>
        <pt x="344" y="632" on="0"/>
        <pt x="370" y="536" on="0"/>
        <pt x="385" y="491" on="1"/>
        <pt x="387" y="490" on="0"/>
        <pt x="403" y="467" on="1"/>
        <pt x="413" y="439" on="1"/>
        <pt x="416" y="431" on="0"/>
        <pt x="428" y="416" on="0"/>
        <pt x="443" y="402" on="0"/>
        <pt x="457" y="390" on="0"/>
        <pt x="462" y="384" on="1"/>
        <pt x="467" y="366" on="0"/>
        <pt x="471" y="352" on="0"/>
        <pt x="475" y="347" on="0"/>
        <pt x="481" y="344" on="0"/>
        <pt x="488" y="337" on="1"/>
        <pt x="495" y="334" on="0"/>
        <pt x="504" y="321" on="0"/>
        <pt x="512" y="305" on="0"/>
        <pt x="520" y="289" on="0"/>
        <pt x="527" y="284" on="1"/>
        <pt x="546" y="281" on="0"/>
        <pt x="573" y="280" on="0"/>
        <pt x="584" y="268" on="1"/>
        <pt x="608" y="248" on="0"/>
        <pt x="650" y="219" on="0"/>
        <pt x="693" y="198" on="0"/>
        <pt x="741" y="183" on="0"/>
        <pt x="771" y="178" on="1"/>
        <pt x="823" y="163" on="1"/>
        <pt x="849" y="163" on="0"/>
        <pt x="882" y="178" on="0"/>
        <pt x="898" y="178" on="1"/>
        <pt x="913" y="178" on="0"/>
        <pt x="939" y="157" on="0"/>
        <pt x="955" y="157" on="1"/>
        <pt x="968" y="157" on="0"/>
        <pt x="985" y="174" on="0"/>
        <pt x="998" y="178" on="1"/>
        <pt x="1000" y="178" on="0"/>
        <pt x="1021" y="182" on="0"/>
        <pt x="1024" y="183" on="1"/>
        <pt x="1028" y="183" on="0"/>
        <pt x="1046" y="193" on="0"/>
        <pt x="1050" y="197" on="1"/>
        <pt x="1084" y="202" on="0"/>
        <pt x="1103" y="209" on="0"/>
        <pt x="1105" y="209" on="1"/>
        <pt x="1106" y="210" on="0"/>
        <pt x="1114" y="217" on="0"/>
        <pt x="1123" y="226" on="0"/>
        <pt x="1131" y="235" on="0"/>
        <pt x="1133" y="237" on="1"/>
        <pt x="1137" y="237" on="0"/>
        <pt x="1155" y="247" on="0"/>
        <pt x="1176" y="261" on="0"/>
        <pt x="1197" y="275" on="0"/>
        <pt x="1204" y="279" on="1"/>
        <pt x="1209" y="282" on="0"/>
        <pt x="1213" y="291" on="0"/>
        <pt x="1218" y="296" on="1"/>
        <pt x="1233" y="317" on="0"/>
        <pt x="1263" y="337" on="0"/>
        <pt x="1280" y="358" on="1"/>
        <pt x="1284" y="362" on="0"/>
        <pt x="1299" y="379" on="0"/>
        <pt x="1301" y="384" on="1"/>
        <pt x="1302" y="386" on="0"/>
        <pt x="1309" y="407" on="0"/>
        <pt x="1313" y="408" on="1"/>
        <pt x="1326" y="419" on="0"/>
        <pt x="1350" y="427" on="0"/>
        <pt x="1363" y="427" on="1"/>
        <pt x="1370" y="427" on="0"/>
        <pt x="1381" y="415" on="0"/>
        <pt x="1388" y="399" on="0"/>
        <pt x="1392" y="380" on="0"/>
        <pt x="1392" y="374" on="1"/>
        <pt x="1392" y="354" on="0"/>
        <pt x="1374" y="323" on="0"/>
        <pt x="1352" y="295" on="0"/>
        <pt x="1331" y="266" on="0"/>
        <pt x="1327" y="247" on="1"/>
        <pt x="1323" y="244" on="0"/>
        <pt x="1305" y="229" on="0"/>
        <pt x="1287" y="211" on="0"/>
        <pt x="1271" y="194" on="0"/>
        <pt x="1269" y="190" on="1"/>
        <pt x="1247" y="161" on="0"/>
        <pt x="1211" y="138" on="0"/>
        <pt x="1195" y="126" on="1"/>
        <pt x="1188" y="117" on="0"/>
        <pt x="1181" y="98" on="0"/>
        <pt x="1169" y="93" on="1"/>
        <pt x="1155" y="85" on="0"/>
        <pt x="1120" y="72" on="0"/>
        <pt x="1100" y="67" on="1"/>
        <pt x="1068" y="47" on="0"/>
        <pt x="1018" y="33" on="0"/>
        <pt x="991" y="24" on="1"/>
        <pt x="951" y="2" on="1"/>
        <pt x="898" y="-1" on="0"/>
        <pt x="858" y="-12" on="0"/>
        <pt x="854" y="-12" on="1"/>
        <pt x="822" y="-11" on="0"/>
        <pt x="799" y="-2" on="0"/>
        <pt x="795" y="-2" on="1"/>
        <pt x="733" y="-22" on="1"/>
        <pt x="722" y="-21" on="0"/>
        <pt x="697" y="-19" on="0"/>
        <pt x="673" y="-16" on="0"/>
        <pt x="653" y="-11" on="0"/>
        <pt x="648" y="-7" on="1"/>
        <pt x="621" y="0" on="0"/>
        <pt x="563" y="6" on="0"/>
        <pt x="536" y="19" on="1"/>
        <pt x="462" y="48" on="1"/>
        <pt x="460" y="50" on="0"/>
        <pt x="440" y="55" on="0"/>
        <pt x="436" y="55" on="1"/>
        <pt x="407" y="93" on="0"/>
        <pt x="403" y="93" on="1"/>
        <pt x="379" y="93" on="1"/>
        <pt x="371" y="98" on="0"/>
        <pt x="350" y="127" on="0"/>
        <pt x="339" y="145" on="1"/>
        <pt x="339" y="157" on="0"/>
        <pt x="312" y="163" on="0"/>
        <pt x="302" y="163" on="1"/>
        <pt x="296" y="166" on="0"/>
        <pt x="292" y="177" on="0"/>
        <pt x="289" y="190" on="0"/>
        <pt x="285" y="204" on="0"/>
        <pt x="280" y="209" on="1"/>
        <pt x="278" y="214" on="0"/>
        <pt x="262" y="233" on="0"/>
        <pt x="257" y="237" on="1"/>
        <pt x="250" y="241" on="0"/>
        <pt x="242" y="245" on="0"/>
        <pt x="236" y="248" on="0"/>
        <pt x="230" y="255" on="0"/>
        <pt x="225" y="263" on="1"/>
        <pt x="200" y="301" on="1"/>
        <pt x="178" y="325" on="1"/>
        <pt x="178" y="360" on="0"/>
        <pt x="168" y="388" on="0"/>
        <pt x="166" y="389" on="1"/>
        <pt x="166" y="393" on="0"/>
        <pt x="161" y="420" on="0"/>
        <pt x="159" y="422" on="1"/>
        <pt x="139" y="431" on="0"/>
        <pt x="134" y="435" on="1"/>
        <pt x="130" y="438" on="0"/>
        <pt x="128" y="439" on="1"/>
      </contour>
    </TTGlyph>
    <TTGlyph name="Cacute" xMin="95" yMin="-22" xMax="1392" yMax="1853">
      <component glyphName="C" x="0" y="0" flags="0x204"/>
      <component glyphName="Acute" x="290" y="0" flags="0x4"/>
    </TTGlyph>
    <TTGlyph name="Caron" xMin="154" yMin="1483" xMax="650" yMax="1854">
      <contour>
        <pt x="225" y="1697" on="1"/>
        <pt x="214" y="1706" on="0"/>
        <pt x="200" y="1728" on="0"/>
        <pt x="187" y="1751" on="0"/>
        <pt x="169" y="1770" on="0"/>
        <pt x="154" y="1776" on="1"/>
        <pt x="154" y="1820" on="1"/>
        <pt x="154" y="1828" on="0"/>
        <pt x="157" y="1843" on="0"/>
        <pt x="167" y="1854" on="1"/>
        <pt x="191" y="1854" on="1"/>
        <pt x="200" y="1852" on="0"/>
        <pt x="212" y="1845" on="0"/>
        <pt x="224" y="1835" on="0"/>
        <pt x="238" y="1822" on="0"/>
        <pt x="249" y="1814" on="1"/>
        <pt x="285" y="1787" on="1"/>
        <pt x="294" y="1774" on="0"/>
        <pt x="312" y="1757" on="0"/>
        <pt x="328" y="1746" on="0"/>
        <pt x="339" y="1739" on="0"/>
        <pt x="341" y="1736" on="1"/>
        <pt x="351" y="1731" on="0"/>
        <pt x="369" y="1710" on="0"/>
        <pt x="386" y="1687" on="0"/>
        <pt x="400" y="1670" on="0"/>
        <pt x="407" y="1670" on="1"/>
        <pt x="415" y="1670" on="0"/>
        <pt x="443" y="1692" on="0"/>
        <pt x="470" y="1719" on="0"/>
        <pt x="490" y="1745" on="0"/>
        <pt x="490" y="1750" on="1"/>
        <pt x="514" y="1760" on="0"/>
        <pt x="535" y="1783" on="0"/>
        <pt x="550" y="1804" on="0"/>
        <pt x="568" y="1824" on="0"/>
        <pt x="589" y="1831" on="1"/>
        <pt x="592" y="1831" on="0"/>
        <pt x="605" y="1835" on="0"/>
        <pt x="620" y="1839" on="0"/>
        <pt x="634" y="1843" on="0"/>
        <pt x="639" y="1843" on="1"/>
        <pt x="642" y="1842" on="0"/>
        <pt x="646" y="1826" on="0"/>
        <pt x="649" y="1806" on="0"/>
        <pt x="650" y="1790" on="0"/>
        <pt x="650" y="1789" on="1"/>
        <pt x="650" y="1786" on="0"/>
        <pt x="629" y="1759" on="0"/>
        <pt x="603" y="1727" on="0"/>
        <pt x="578" y="1699" on="0"/>
        <pt x="574" y="1697" on="1"/>
        <pt x="574" y="1692" on="0"/>
        <pt x="555" y="1676" on="0"/>
        <pt x="532" y="1656" on="0"/>
        <pt x="511" y="1634" on="0"/>
        <pt x="509" y="1622" on="1"/>
        <pt x="501" y="1607" on="0"/>
        <pt x="480" y="1560" on="0"/>
        <pt x="453" y="1515" on="0"/>
        <pt x="422" y="1483" on="0"/>
        <pt x="404" y="1483" on="1"/>
        <pt x="389" y="1483" on="0"/>
        <pt x="354" y="1517" on="0"/>
        <pt x="323" y="1563" on="0"/>
        <pt x="298" y="1609" on="0"/>
        <pt x="292" y="1622" on="1"/>
        <pt x="285" y="1643" on="1"/>
        <pt x="282" y="1647" on="0"/>
        <pt x="262" y="1661" on="0"/>
        <pt x="241" y="1676" on="0"/>
        <pt x="225" y="1691" on="0"/>
      </contour>
    </TTGlyph>
    <TTGlyph name="Ccaron" xMin="95" yMin="-22" xMax="1392" yMax="1854">
      <component glyphName="C" x="0" y="0" flags="0x204"/>
      <component glyphName="Caron" x="396" y="0" flags="0x4"/>
    </TTGlyph>
    <TTGlyph name="Ccedilla" xMin="95" yMin="-578" xMax="1392" yMax="1453">
      <contour>
        <pt x="109" y="529" on="1"/>
        <pt x="109" y="532" on="0"/>
        <pt x="106" y="544" on="0"/>
        <pt x="103" y="557" on="0"/>
        <pt x="100" y="568" on="0"/>
        <pt x="100" y="571" on="1"/>
        <pt x="98" y="578" on="0"/>
        <pt x="98" y="586" on="0"/>
        <pt x="98" y="590" on="1"/>
        <pt x="98" y="598" on="0"/>
        <pt x="102" y="608" on="0"/>
        <pt x="107" y="618" on="1"/>
        <pt x="95" y="818" on="1"/>
        <pt x="100" y="874" on="1"/>
        <pt x="102" y="877" on="0"/>
        <pt x="104" y="881" on="1"/>
        <pt x="106" y="884" on="0"/>
        <pt x="108" y="889" on="0"/>
        <pt x="109" y="891" on="1"/>
        <pt x="118" y="912" on="0"/>
        <pt x="128" y="950" on="0"/>
        <pt x="135" y="971" on="1"/>
        <pt x="140" y="991" on="0"/>
        <pt x="140" y="1009" on="1"/>
        <pt x="140" y="1031" on="0"/>
        <pt x="148" y="1045" on="1"/>
        <pt x="161" y="1075" on="0"/>
        <pt x="194" y="1130" on="0"/>
        <pt x="218" y="1167" on="1"/>
        <pt x="220" y="1170" on="0"/>
        <pt x="224" y="1177" on="0"/>
        <pt x="226" y="1180" on="1"/>
        <pt x="235" y="1193" on="0"/>
        <pt x="256" y="1225" on="0"/>
        <pt x="257" y="1227" on="1"/>
        <pt x="269" y="1245" on="0"/>
        <pt x="292" y="1263" on="0"/>
        <pt x="308" y="1278" on="1"/>
        <pt x="342" y="1304" on="0"/>
        <pt x="394" y="1348" on="0"/>
        <pt x="430" y="1370" on="1"/>
        <pt x="455" y="1381" on="1"/>
        <pt x="464" y="1384" on="0"/>
        <pt x="486" y="1395" on="0"/>
        <pt x="510" y="1407" on="0"/>
        <pt x="532" y="1417" on="0"/>
        <pt x="541" y="1420" on="1"/>
        <pt x="643" y="1434" on="1"/>
        <pt x="647" y="1434" on="0"/>
        <pt x="665" y="1440" on="0"/>
        <pt x="669" y="1445" on="1"/>
        <pt x="712" y="1446" on="0"/>
        <pt x="764" y="1448" on="0"/>
        <pt x="787" y="1448" on="1"/>
        <pt x="818" y="1448" on="0"/>
        <pt x="878" y="1446" on="0"/>
        <pt x="908" y="1445" on="1"/>
        <pt x="927" y="1440" on="0"/>
        <pt x="951" y="1435" on="0"/>
        <pt x="965" y="1432" on="0"/>
        <pt x="971" y="1432" on="0"/>
        <pt x="974" y="1432" on="1"/>
        <pt x="986" y="1433" on="0"/>
        <pt x="1001" y="1434" on="0"/>
        <pt x="1014" y="1434" on="0"/>
        <pt x="1030" y="1434" on="0"/>
        <pt x="1043" y="1434" on="1"/>
        <pt x="1054" y="1428" on="0"/>
        <pt x="1080" y="1406" on="0"/>
        <pt x="1091" y="1406" on="1"/>
        <pt x="1095" y="1406" on="0"/>
        <pt x="1103" y="1412" on="0"/>
        <pt x="1105" y="1412" on="1"/>
        <pt x="1164" y="1412" on="1"/>
        <pt x="1177" y="1414" on="0"/>
        <pt x="1200" y="1427" on="0"/>
        <pt x="1223" y="1442" on="0"/>
        <pt x="1245" y="1453" on="0"/>
        <pt x="1259" y="1453" on="1"/>
        <pt x="1276" y="1453" on="0"/>
        <pt x="1301" y="1432" on="0"/>
        <pt x="1301" y="1412" on="1"/>
        <pt x="1301" y="1246" on="1"/>
        <pt x="1302" y="1241" on="0"/>
        <pt x="1306" y="1219" on="0"/>
        <pt x="1306" y="1214" on="1"/>
        <pt x="1315" y="1166" on="0"/>
        <pt x="1339" y="1065" on="0"/>
        <pt x="1339" y="1017" on="1"/>
        <pt x="1338" y="1011" on="0"/>
        <pt x="1330" y="997" on="0"/>
        <pt x="1319" y="985" on="0"/>
        <pt x="1309" y="976" on="0"/>
        <pt x="1306" y="976" on="1"/>
        <pt x="1306" y="974" on="0"/>
        <pt x="1299" y="974" on="1"/>
        <pt x="1279" y="974" on="0"/>
        <pt x="1250" y="992" on="0"/>
        <pt x="1230" y="1020" on="0"/>
        <pt x="1220" y="1052" on="0"/>
        <pt x="1218" y="1066" on="1"/>
        <pt x="1218" y="1099" on="1"/>
        <pt x="1216" y="1113" on="0"/>
        <pt x="1209" y="1130" on="0"/>
        <pt x="1199" y="1143" on="0"/>
        <pt x="1186" y="1157" on="0"/>
        <pt x="1178" y="1168" on="1"/>
        <pt x="1167" y="1179" on="0"/>
        <pt x="1163" y="1206" on="0"/>
        <pt x="1154" y="1220" on="1"/>
        <pt x="1152" y="1224" on="0"/>
        <pt x="1138" y="1232" on="0"/>
        <pt x="1136" y="1232" on="1"/>
        <pt x="1072" y="1278" on="1"/>
        <pt x="1072" y="1279" on="0"/>
        <pt x="1063" y="1288" on="0"/>
        <pt x="1053" y="1299" on="0"/>
        <pt x="1044" y="1309" on="0"/>
        <pt x="1043" y="1311" on="1"/>
        <pt x="1032" y="1317" on="0"/>
        <pt x="1031" y="1317" on="1"/>
        <pt x="1029" y="1315" on="0"/>
        <pt x="1017" y="1315" on="1"/>
        <pt x="1010" y="1315" on="0"/>
        <pt x="1010" y="1317" on="1"/>
        <pt x="989" y="1321" on="0"/>
        <pt x="950" y="1339" on="0"/>
        <pt x="934" y="1348" on="1"/>
        <pt x="813" y="1353" on="1"/>
        <pt x="806" y="1361" on="0"/>
        <pt x="792" y="1365" on="0"/>
        <pt x="782" y="1365" on="1"/>
        <pt x="748" y="1365" on="0"/>
        <pt x="700" y="1353" on="0"/>
        <pt x="680" y="1342" on="1"/>
        <pt x="679" y="1340" on="0"/>
        <pt x="678" y="1339" on="1"/>
        <pt x="676" y="1337" on="0"/>
        <pt x="674" y="1337" on="1"/>
        <pt x="660" y="1326" on="0"/>
        <pt x="627" y="1314" on="0"/>
        <pt x="593" y="1303" on="0"/>
        <pt x="560" y="1290" on="0"/>
        <pt x="546" y="1278" on="1"/>
        <pt x="508" y="1246" on="1"/>
        <pt x="507" y="1244" on="0"/>
        <pt x="489" y="1231" on="0"/>
        <pt x="488" y="1227" on="1"/>
        <pt x="483" y="1216" on="0"/>
        <pt x="459" y="1197" on="0"/>
        <pt x="455" y="1195" on="1"/>
        <pt x="447" y="1184" on="0"/>
        <pt x="440" y="1159" on="0"/>
        <pt x="436" y="1157" on="1"/>
        <pt x="413" y="1124" on="1"/>
        <pt x="385" y="1060" on="1"/>
        <pt x="372" y="1002" on="1"/>
        <pt x="371" y="1000" on="0"/>
        <pt x="364" y="990" on="0"/>
        <pt x="355" y="979" on="0"/>
        <pt x="346" y="971" on="0"/>
        <pt x="344" y="971" on="1"/>
        <pt x="344" y="970" on="0"/>
        <pt x="342" y="956" on="0"/>
        <pt x="341" y="937" on="0"/>
        <pt x="339" y="918" on="0"/>
        <pt x="339" y="913" on="1"/>
        <pt x="339" y="886" on="1"/>
        <pt x="344" y="784" on="1"/>
        <pt x="356" y="735" on="1"/>
        <pt x="344" y="680" on="1"/>
        <pt x="344" y="632" on="0"/>
        <pt x="370" y="536" on="0"/>
        <pt x="385" y="491" on="1"/>
        <pt x="387" y="490" on="0"/>
        <pt x="403" y="467" on="1"/>
        <pt x="413" y="439" on="1"/>
        <pt x="416" y="431" on="0"/>
        <pt x="428" y="416" on="0"/>
        <pt x="443" y="402" on="0"/>
        <pt x="457" y="390" on="0"/>
        <pt x="462" y="384" on="1"/>
        <pt x="467" y="366" on="0"/>
        <pt x="471" y="352" on="0"/>
        <pt x="475" y="347" on="0"/>
        <pt x="481" y="344" on="0"/>
        <pt x="488" y="337" on="1"/>
        <pt x="495" y="334" on="0"/>
        <pt x="504" y="321" on="0"/>
        <pt x="512" y="305" on="0"/>
        <pt x="520" y="289" on="0"/>
        <pt x="527" y="284" on="1"/>
        <pt x="546" y="281" on="0"/>
        <pt x="573" y="280" on="0"/>
        <pt x="584" y="268" on="1"/>
        <pt x="608" y="248" on="0"/>
        <pt x="650" y="219" on="0"/>
        <pt x="693" y="198" on="0"/>
        <pt x="741" y="183" on="0"/>
        <pt x="771" y="178" on="1"/>
        <pt x="823" y="163" on="1"/>
        <pt x="849" y="163" on="0"/>
        <pt x="882" y="178" on="0"/>
        <pt x="898" y="178" on="1"/>
        <pt x="913" y="178" on="0"/>
        <pt x="939" y="157" on="0"/>
        <pt x="955" y="157" on="1"/>
        <pt x="968" y="157" on="0"/>
        <pt x="985" y="174" on="0"/>
        <pt x="998" y="178" on="1"/>
        <pt x="1000" y="178" on="0"/>
        <pt x="1021" y="182" on="0"/>
        <pt x="1024" y="183" on="1"/>
        <pt x="1028" y="183" on="0"/>
        <pt x="1046" y="193" on="0"/>
        <pt x="1050" y="197" on="1"/>
        <pt x="1084" y="202" on="0"/>
        <pt x="1103" y="209" on="0"/>
        <pt x="1105" y="209" on="1"/>
        <pt x="1106" y="210" on="0"/>
        <pt x="1114" y="217" on="0"/>
        <pt x="1123" y="226" on="0"/>
        <pt x="1131" y="235" on="0"/>
        <pt x="1133" y="237" on="1"/>
        <pt x="1137" y="237" on="0"/>
        <pt x="1155" y="247" on="0"/>
        <pt x="1176" y="261" on="0"/>
        <pt x="1197" y="275" on="0"/>
        <pt x="1204" y="279" on="1"/>
        <pt x="1209" y="282" on="0"/>
        <pt x="1213" y="291" on="0"/>
        <pt x="1218" y="296" on="1"/>
        <pt x="1233" y="317" on="0"/>
        <pt x="1263" y="337" on="0"/>
        <pt x="1280" y="358" on="1"/>
        <pt x="1284" y="362" on="0"/>
        <pt x="1299" y="379" on="0"/>
        <pt x="1301" y="384" on="1"/>
        <pt x="1302" y="386" on="0"/>
        <pt x="1309" y="407" on="0"/>
        <pt x="1313" y="408" on="1"/>
        <pt x="1326" y="419" on="0"/>
        <pt x="1350" y="427" on="0"/>
        <pt x="1363" y="427" on="1"/>
        <pt x="1370" y="427" on="0"/>
        <pt x="1381" y="415" on="0"/>
        <pt x="1388" y="399" on="0"/>
        <pt x="1392" y="380" on="0"/>
        <pt x="1392" y="374" on="1"/>
        <pt x="1392" y="354" on="0"/>
        <pt x="1374" y="323" on="0"/>
        <pt x="1352" y="295" on="0"/>
        <pt x="1331" y="266" on="0"/>
        <pt x="1327" y="247" on="1"/>
        <pt x="1323" y="244" on="0"/>
        <pt x="1305" y="229" on="0"/>
        <pt x="1287" y="211" on="0"/>
        <pt x="1271" y="194" on="0"/>
        <pt x="1269" y="190" on="1"/>
        <pt x="1247" y="161" on="0"/>
        <pt x="1211" y="138" on="0"/>
        <pt x="1195" y="126" on="1"/>
        <pt x="1188" y="117" on="0"/>
        <pt x="1181" y="98" on="0"/>
        <pt x="1169" y="93" on="1"/>
        <pt x="1155" y="85" on="0"/>
        <pt x="1120" y="72" on="0"/>
        <pt x="1100" y="67" on="1"/>
        <pt x="1068" y="47" on="0"/>
        <pt x="1018" y="33" on="0"/>
        <pt x="991" y="24" on="1"/>
        <pt x="951" y="2" on="1"/>
        <pt x="919" y="0" on="0"/>
        <pt x="880" y="-5" on="0"/>
        <pt x="869" y="-8" on="1"/>
        <pt x="878" y="-13" on="0"/>
        <pt x="901" y="-25" on="0"/>
        <pt x="906" y="-31" on="1"/>
        <pt x="919" y="-47" on="0"/>
        <pt x="949" y="-78" on="0"/>
        <pt x="976" y="-110" on="0"/>
        <pt x="994" y="-140" on="0"/>
        <pt x="994" y="-154" on="1"/>
        <pt x="1001" y="-188" on="0"/>
        <pt x="1001" y="-225" on="1"/>
        <pt x="1001" y="-261" on="0"/>
        <pt x="994" y="-299" on="1"/>
        <pt x="992" y="-302" on="0"/>
        <pt x="990" y="-306" on="1"/>
        <pt x="987" y="-312" on="0"/>
        <pt x="985" y="-318" on="1"/>
        <pt x="975" y="-336" on="0"/>
        <pt x="951" y="-375" on="0"/>
        <pt x="924" y="-413" on="0"/>
        <pt x="895" y="-449" on="0"/>
        <pt x="880" y="-462" on="1"/>
        <pt x="878" y="-464" on="0"/>
        <pt x="852" y="-471" on="0"/>
        <pt x="850" y="-472" on="1"/>
        <pt x="848" y="-472" on="0"/>
        <pt x="832" y="-490" on="0"/>
        <pt x="831" y="-491" on="1"/>
        <pt x="816" y="-502" on="0"/>
        <pt x="780" y="-516" on="0"/>
        <pt x="741" y="-527" on="0"/>
        <pt x="703" y="-535" on="0"/>
        <pt x="686" y="-540" on="1"/>
        <pt x="677" y="-548" on="1"/>
        <pt x="651" y="-567" on="0"/>
        <pt x="596" y="-578" on="0"/>
        <pt x="567" y="-578" on="1"/>
        <pt x="537" y="-578" on="1"/>
        <pt x="522" y="-578" on="0"/>
        <pt x="490" y="-572" on="0"/>
        <pt x="482" y="-559" on="1"/>
        <pt x="479" y="-552" on="0"/>
        <pt x="464" y="-519" on="0"/>
        <pt x="459" y="-508" on="1"/>
        <pt x="459" y="-501" on="0"/>
        <pt x="471" y="-492" on="0"/>
        <pt x="488" y="-486" on="0"/>
        <pt x="505" y="-482" on="0"/>
        <pt x="511" y="-479" on="1"/>
        <pt x="512" y="-478" on="0"/>
        <pt x="522" y="-474" on="0"/>
        <pt x="535" y="-469" on="0"/>
        <pt x="547" y="-465" on="0"/>
        <pt x="549" y="-465" on="1"/>
        <pt x="550" y="-465" on="0"/>
        <pt x="567" y="-463" on="0"/>
        <pt x="586" y="-462" on="0"/>
        <pt x="604" y="-460" on="0"/>
        <pt x="606" y="-460" on="1"/>
        <pt x="621" y="-459" on="0"/>
        <pt x="656" y="-445" on="0"/>
        <pt x="690" y="-426" on="0"/>
        <pt x="720" y="-405" on="0"/>
        <pt x="731" y="-396" on="1"/>
        <pt x="739" y="-389" on="0"/>
        <pt x="764" y="-371" on="0"/>
        <pt x="789" y="-351" on="0"/>
        <pt x="809" y="-329" on="0"/>
        <pt x="812" y="-318" on="1"/>
        <pt x="820" y="-291" on="0"/>
        <pt x="842" y="-239" on="0"/>
        <pt x="842" y="-215" on="1"/>
        <pt x="842" y="-195" on="0"/>
        <pt x="824" y="-172" on="0"/>
        <pt x="812" y="-159" on="1"/>
        <pt x="792" y="-142" on="0"/>
        <pt x="739" y="-131" on="0"/>
        <pt x="705" y="-131" on="1"/>
        <pt x="695" y="-131" on="0"/>
        <pt x="678" y="-144" on="0"/>
        <pt x="661" y="-160" on="0"/>
        <pt x="642" y="-173" on="0"/>
        <pt x="632" y="-173" on="1"/>
        <pt x="612" y="-173" on="0"/>
        <pt x="587" y="-142" on="0"/>
        <pt x="587" y="-125" on="1"/>
        <pt x="587" y="-124" on="0"/>
        <pt x="589" y="-120" on="1"/>
        <pt x="591" y="-116" on="1"/>
        <pt x="597" y="-106" on="0"/>
        <pt x="617" y="-84" on="0"/>
        <pt x="642" y="-64" on="0"/>
        <pt x="667" y="-46" on="0"/>
        <pt x="677" y="-38" on="1"/>
        <pt x="681" y="-35" on="0"/>
        <pt x="703" y="-30" on="0"/>
        <pt x="728" y="-26" on="0"/>
        <pt x="752" y="-19" on="0"/>
        <pt x="758" y="-14" on="1"/>
        <pt x="733" y="-22" on="1"/>
        <pt x="722" y="-21" on="0"/>
        <pt x="697" y="-19" on="0"/>
        <pt x="673" y="-16" on="0"/>
        <pt x="653" y="-11" on="0"/>
        <pt x="648" y="-7" on="1"/>
        <pt x="621" y="0" on="0"/>
        <pt x="563" y="6" on="0"/>
        <pt x="536" y="19" on="1"/>
        <pt x="462" y="48" on="1"/>
        <pt x="460" y="50" on="0"/>
        <pt x="440" y="55" on="0"/>
        <pt x="436" y="55" on="1"/>
        <pt x="407" y="93" on="0"/>
        <pt x="403" y="93" on="1"/>
        <pt x="379" y="93" on="1"/>
        <pt x="371" y="98" on="0"/>
        <pt x="350" y="127" on="0"/>
        <pt x="339" y="145" on="1"/>
        <pt x="339" y="157" on="0"/>
        <pt x="312" y="163" on="0"/>
        <pt x="302" y="163" on="1"/>
        <pt x="296" y="166" on="0"/>
        <pt x="292" y="177" on="0"/>
        <pt x="289" y="190" on="0"/>
        <pt x="285" y="204" on="0"/>
        <pt x="280" y="209" on="1"/>
        <pt x="278" y="214" on="0"/>
        <pt x="262" y="233" on="0"/>
        <pt x="257" y="237" on="1"/>
        <pt x="250" y="241" on="0"/>
        <pt x="242" y="245" on="0"/>
        <pt x="236" y="248" on="0"/>
        <pt x="230" y="255" on="0"/>
        <pt x="225" y="263" on="1"/>
        <pt x="200" y="301" on="1"/>
        <pt x="178" y="325" on="1"/>
        <pt x="178" y="360" on="0"/>
        <pt x="168" y="388" on="0"/>
        <pt x="166" y="389" on="1"/>
        <pt x="166" y="393" on="0"/>
        <pt x="161" y="420" on="0"/>
        <pt x="159" y="422" on="1"/>
        <pt x="139" y="431" on="0"/>
        <pt x="134" y="435" on="1"/>
        <pt x="130" y="438" on="0"/>
        <pt x="128" y="439" on="1"/>
      </contour>
      <contour>
        <pt x="459" y="-509" on="1"/>
        <pt x="459" y="-508" on="1"/>
        <pt x="457" y="-506" on="0"/>
        <pt x="457" y="-506" on="1"/>
        <pt x="457" y="-507" on="0"/>
        <pt x="458" y="-507" on="0"/>
        <pt x="458" y="-508" on="1"/>
        <pt x="458" y="-509" on="0"/>
      </contour>
    </TTGlyph>
    <TTGlyph name="Circumflex" xMin="246" yMin="1482" xMax="740" yMax="1853">
      <contour>
        <pt x="669" y="1640" on="1"/>
        <pt x="680" y="1631" on="0"/>
        <pt x="693" y="1608" on="0"/>
        <pt x="706" y="1586" on="0"/>
        <pt x="724" y="1566" on="0"/>
        <pt x="740" y="1560" on="1"/>
        <pt x="740" y="1516" on="1"/>
        <pt x="740" y="1508" on="0"/>
        <pt x="737" y="1494" on="0"/>
        <pt x="727" y="1482" on="1"/>
        <pt x="700" y="1492" on="1"/>
        <pt x="691" y="1494" on="0"/>
        <pt x="686" y="1498" on="0"/>
        <pt x="682" y="1502" on="0"/>
        <pt x="673" y="1510" on="0"/>
        <pt x="661" y="1517" on="1"/>
        <pt x="649" y="1523" on="0"/>
        <pt x="636" y="1530" on="0"/>
        <pt x="627" y="1538" on="0"/>
        <pt x="618" y="1547" on="0"/>
        <pt x="609" y="1555" on="1"/>
        <pt x="599" y="1563" on="1"/>
        <pt x="596" y="1565" on="0"/>
        <pt x="582" y="1574" on="0"/>
        <pt x="566" y="1586" on="0"/>
        <pt x="553" y="1597" on="0"/>
        <pt x="552" y="1600" on="1"/>
        <pt x="542" y="1604" on="0"/>
        <pt x="525" y="1624" on="0"/>
        <pt x="510" y="1643" on="0"/>
        <pt x="496" y="1658" on="0"/>
        <pt x="490" y="1658" on="1"/>
        <pt x="482" y="1658" on="0"/>
        <pt x="452" y="1639" on="0"/>
        <pt x="423" y="1614" on="0"/>
        <pt x="402" y="1590" on="0"/>
        <pt x="402" y="1586" on="1"/>
        <pt x="378" y="1576" on="0"/>
        <pt x="358" y="1554" on="0"/>
        <pt x="344" y="1532" on="0"/>
        <pt x="327" y="1512" on="0"/>
        <pt x="306" y="1505" on="1"/>
        <pt x="299" y="1505" on="0"/>
        <pt x="266" y="1493" on="0"/>
        <pt x="257" y="1493" on="1"/>
        <pt x="254" y="1494" on="0"/>
        <pt x="250" y="1510" on="0"/>
        <pt x="247" y="1530" on="0"/>
        <pt x="246" y="1546" on="0"/>
        <pt x="246" y="1547" on="1"/>
        <pt x="246" y="1550" on="0"/>
        <pt x="266" y="1578" on="0"/>
        <pt x="292" y="1610" on="0"/>
        <pt x="317" y="1637" on="0"/>
        <pt x="321" y="1640" on="1"/>
        <pt x="321" y="1645" on="0"/>
        <pt x="340" y="1661" on="0"/>
        <pt x="363" y="1681" on="0"/>
        <pt x="384" y="1703" on="0"/>
        <pt x="386" y="1714" on="1"/>
        <pt x="394" y="1729" on="0"/>
        <pt x="415" y="1776" on="0"/>
        <pt x="441" y="1821" on="0"/>
        <pt x="472" y="1853" on="0"/>
        <pt x="490" y="1853" on="1"/>
        <pt x="506" y="1853" on="0"/>
        <pt x="540" y="1819" on="0"/>
        <pt x="571" y="1773" on="0"/>
        <pt x="596" y="1727" on="0"/>
        <pt x="602" y="1714" on="1"/>
        <pt x="609" y="1693" on="1"/>
        <pt x="612" y="1689" on="0"/>
        <pt x="631" y="1675" on="0"/>
        <pt x="652" y="1660" on="0"/>
        <pt x="669" y="1646" on="0"/>
      </contour>
    </TTGlyph>
    <TTGlyph name="D" xMin="94" yMin="7" xMax="1561" yMax="1434">
      <contour>
        <pt x="106" y="61" on="1"/>
        <pt x="106" y="76" on="0"/>
        <pt x="134" y="90" on="0"/>
        <pt x="177" y="99" on="0"/>
        <pt x="227" y="109" on="0"/>
        <pt x="270" y="131" on="0"/>
        <pt x="298" y="171" on="0"/>
        <pt x="298" y="206" on="1"/>
        <pt x="291" y="239" on="1"/>
        <pt x="291" y="246" on="0"/>
        <pt x="299" y="255" on="0"/>
        <pt x="309" y="263" on="0"/>
        <pt x="317" y="273" on="0"/>
        <pt x="317" y="282" on="1"/>
        <pt x="309" y="351" on="1"/>
        <pt x="314" y="391" on="1"/>
        <pt x="316" y="396" on="0"/>
        <pt x="316" y="412" on="1"/>
        <pt x="316" y="444" on="0"/>
        <pt x="297" y="491" on="0"/>
        <pt x="297" y="514" on="1"/>
        <pt x="297" y="528" on="0"/>
        <pt x="298" y="531" on="1"/>
        <pt x="310" y="569" on="0"/>
        <pt x="324" y="650" on="0"/>
        <pt x="324" y="687" on="1"/>
        <pt x="324" y="703" on="0"/>
        <pt x="317" y="709" on="1"/>
        <pt x="309" y="891" on="1"/>
        <pt x="305" y="908" on="0"/>
        <pt x="291" y="948" on="0"/>
        <pt x="291" y="969" on="1"/>
        <pt x="291" y="971" on="0"/>
        <pt x="293" y="977" on="0"/>
        <pt x="298" y="991" on="1"/>
        <pt x="298" y="1039" on="0"/>
        <pt x="290" y="1132" on="0"/>
        <pt x="286" y="1182" on="1"/>
        <pt x="288" y="1213" on="1"/>
        <pt x="288" y="1214" on="0"/>
        <pt x="278" y="1224" on="0"/>
        <pt x="265" y="1236" on="0"/>
        <pt x="255" y="1248" on="0"/>
        <pt x="255" y="1251" on="1"/>
        <pt x="257" y="1256" on="0"/>
        <pt x="259" y="1264" on="0"/>
        <pt x="259" y="1268" on="1"/>
        <pt x="259" y="1273" on="0"/>
        <pt x="257" y="1284" on="0"/>
        <pt x="255" y="1289" on="1"/>
        <pt x="254" y="1294" on="0"/>
        <pt x="229" y="1307" on="0"/>
        <pt x="193" y="1319" on="0"/>
        <pt x="152" y="1332" on="0"/>
        <pt x="117" y="1343" on="0"/>
        <pt x="94" y="1354" on="0"/>
        <pt x="94" y="1358" on="1"/>
        <pt x="94" y="1372" on="0"/>
        <pt x="110" y="1391" on="0"/>
        <pt x="134" y="1402" on="0"/>
        <pt x="163" y="1406" on="0"/>
        <pt x="177" y="1406" on="1"/>
        <pt x="200" y="1397" on="0"/>
        <pt x="249" y="1394" on="0"/>
        <pt x="272" y="1394" on="1"/>
        <pt x="333" y="1394" on="0"/>
        <pt x="383" y="1400" on="1"/>
        <pt x="422" y="1404" on="0"/>
        <pt x="508" y="1414" on="0"/>
        <pt x="544" y="1420" on="1"/>
        <pt x="565" y="1427" on="0"/>
        <pt x="587" y="1434" on="0"/>
        <pt x="589" y="1434" on="1"/>
        <pt x="601" y="1434" on="0"/>
        <pt x="614" y="1432" on="0"/>
        <pt x="618" y="1431" on="1"/>
        <pt x="720" y="1431" on="1"/>
        <pt x="725" y="1429" on="0"/>
        <pt x="740" y="1429" on="0"/>
        <pt x="746" y="1429" on="1"/>
        <pt x="753" y="1429" on="0"/>
        <pt x="766" y="1429" on="0"/>
        <pt x="772" y="1431" on="1"/>
        <pt x="831" y="1431" on="0"/>
        <pt x="939" y="1401" on="0"/>
        <pt x="996" y="1384" on="1"/>
        <pt x="998" y="1384" on="0"/>
        <pt x="1023" y="1379" on="0"/>
        <pt x="1052" y="1373" on="0"/>
        <pt x="1079" y="1368" on="0"/>
        <pt x="1082" y="1368" on="1"/>
        <pt x="1084" y="1368" on="0"/>
        <pt x="1095" y="1359" on="0"/>
        <pt x="1109" y="1350" on="0"/>
        <pt x="1120" y="1342" on="0"/>
        <pt x="1122" y="1342" on="1"/>
        <pt x="1169" y="1336" on="1"/>
        <pt x="1169" y="1336" on="0"/>
        <pt x="1176" y="1330" on="0"/>
        <pt x="1184" y="1322" on="0"/>
        <pt x="1192" y="1316" on="0"/>
        <pt x="1194" y="1315" on="1"/>
        <pt x="1222" y="1294" on="0"/>
        <pt x="1287" y="1271" on="0"/>
        <pt x="1319" y="1251" on="1"/>
        <pt x="1351" y="1213" on="0"/>
        <pt x="1429" y="1137" on="0"/>
        <pt x="1464" y="1097" on="1"/>
        <pt x="1465" y="1096" on="0"/>
        <pt x="1468" y="1090" on="0"/>
        <pt x="1472" y="1075" on="0"/>
        <pt x="1480" y="1049" on="0"/>
        <pt x="1485" y="1028" on="1"/>
        <pt x="1485" y="1016" on="0"/>
        <pt x="1489" y="1012" on="1"/>
        <pt x="1489" y="1009" on="0"/>
        <pt x="1499" y="997" on="0"/>
        <pt x="1512" y="983" on="0"/>
        <pt x="1524" y="971" on="0"/>
        <pt x="1527" y="969" on="1"/>
        <pt x="1527" y="949" on="0"/>
        <pt x="1535" y="918" on="0"/>
        <pt x="1545" y="890" on="0"/>
        <pt x="1553" y="864" on="0"/>
        <pt x="1553" y="851" on="1"/>
        <pt x="1549" y="794" on="1"/>
        <pt x="1561" y="716" on="1"/>
        <pt x="1561" y="686" on="0"/>
        <pt x="1551" y="630" on="0"/>
        <pt x="1537" y="576" on="0"/>
        <pt x="1521" y="521" on="0"/>
        <pt x="1515" y="491" on="1"/>
        <pt x="1515" y="453" on="1"/>
        <pt x="1515" y="452" on="0"/>
        <pt x="1502" y="435" on="0"/>
        <pt x="1502" y="431" on="1"/>
        <pt x="1493" y="409" on="0"/>
        <pt x="1470" y="367" on="0"/>
        <pt x="1446" y="324" on="0"/>
        <pt x="1423" y="280" on="0"/>
        <pt x="1414" y="256" on="1"/>
        <pt x="1329" y="182" on="1"/>
        <pt x="1272" y="149" on="1"/>
        <pt x="1265" y="149" on="0"/>
        <pt x="1265" y="144" on="1"/>
        <pt x="1243" y="114" on="0"/>
        <pt x="1178" y="66" on="0"/>
        <pt x="1139" y="66" on="1"/>
        <pt x="1087" y="71" on="1"/>
        <pt x="1078" y="71" on="0"/>
        <pt x="1053" y="58" on="0"/>
        <pt x="1042" y="54" on="1"/>
        <pt x="1039" y="54" on="0"/>
        <pt x="1021" y="51" on="0"/>
        <pt x="1002" y="48" on="0"/>
        <pt x="985" y="45" on="0"/>
        <pt x="983" y="45" on="1"/>
        <pt x="980" y="45" on="0"/>
        <pt x="954" y="39" on="0"/>
        <pt x="920" y="32" on="0"/>
        <pt x="886" y="24" on="0"/>
        <pt x="876" y="22" on="1"/>
        <pt x="864" y="12" on="0"/>
        <pt x="845" y="12" on="1"/>
        <pt x="838" y="12" on="0"/>
        <pt x="816" y="17" on="0"/>
        <pt x="795" y="22" on="1"/>
        <pt x="794" y="22" on="0"/>
        <pt x="783" y="19" on="0"/>
        <pt x="770" y="15" on="0"/>
        <pt x="756" y="12" on="0"/>
        <pt x="752" y="12" on="1"/>
        <pt x="745" y="14" on="0"/>
        <pt x="723" y="22" on="0"/>
        <pt x="719" y="22" on="1"/>
        <pt x="674" y="16" on="0"/>
        <pt x="589" y="12" on="0"/>
        <pt x="547" y="12" on="1"/>
        <pt x="503" y="12" on="0"/>
        <pt x="421" y="16" on="0"/>
        <pt x="378" y="22" on="1"/>
        <pt x="352" y="27" on="0"/>
        <pt x="316" y="29" on="0"/>
        <pt x="290" y="29" on="1"/>
        <pt x="176" y="7" on="1"/>
        <pt x="164" y="7" on="0"/>
        <pt x="139" y="13" on="0"/>
        <pt x="119" y="26" on="0"/>
        <pt x="106" y="46" on="0"/>
      </contour>
      <contour>
        <pt x="511" y="320" on="1"/>
        <pt x="511" y="273" on="0"/>
        <pt x="571" y="187" on="0"/>
        <pt x="660" y="123" on="0"/>
        <pt x="762" y="85" on="0"/>
        <pt x="803" y="85" on="1"/>
        <pt x="857" y="85" on="0"/>
        <pt x="944" y="109" on="0"/>
        <pt x="989" y="135" on="1"/>
        <pt x="1002" y="143" on="0"/>
        <pt x="1023" y="152" on="0"/>
        <pt x="1043" y="161" on="0"/>
        <pt x="1064" y="173" on="0"/>
        <pt x="1077" y="182" on="1"/>
        <pt x="1113" y="208" on="0"/>
        <pt x="1182" y="268" on="0"/>
        <pt x="1212" y="306" on="1"/>
        <pt x="1217" y="332" on="1"/>
        <pt x="1221" y="349" on="0"/>
        <pt x="1233" y="374" on="0"/>
        <pt x="1247" y="398" on="0"/>
        <pt x="1260" y="423" on="0"/>
        <pt x="1265" y="439" on="1"/>
        <pt x="1265" y="440" on="0"/>
        <pt x="1267" y="452" on="0"/>
        <pt x="1269" y="466" on="0"/>
        <pt x="1272" y="478" on="0"/>
        <pt x="1272" y="479" on="1"/>
        <pt x="1279" y="497" on="0"/>
        <pt x="1297" y="534" on="0"/>
        <pt x="1313" y="572" on="0"/>
        <pt x="1324" y="612" on="0"/>
        <pt x="1324" y="633" on="1"/>
        <pt x="1319" y="647" on="0"/>
        <pt x="1317" y="658" on="0"/>
        <pt x="1317" y="663" on="1"/>
        <pt x="1317" y="668" on="0"/>
        <pt x="1319" y="682" on="0"/>
        <pt x="1319" y="683" on="1"/>
        <pt x="1317" y="691" on="0"/>
        <pt x="1311" y="735" on="0"/>
        <pt x="1306" y="784" on="0"/>
        <pt x="1302" y="829" on="0"/>
        <pt x="1302" y="837" on="1"/>
        <pt x="1293" y="849" on="0"/>
        <pt x="1288" y="882" on="0"/>
        <pt x="1288" y="896" on="1"/>
        <pt x="1288" y="909" on="0"/>
        <pt x="1290" y="928" on="0"/>
        <pt x="1290" y="936" on="1"/>
        <pt x="1273" y="948" on="0"/>
        <pt x="1259" y="983" on="0"/>
        <pt x="1251" y="1021" on="0"/>
        <pt x="1242" y="1060" on="0"/>
        <pt x="1231" y="1076" on="1"/>
        <pt x="1230" y="1078" on="0"/>
        <pt x="1222" y="1087" on="0"/>
        <pt x="1212" y="1098" on="0"/>
        <pt x="1204" y="1106" on="0"/>
        <pt x="1203" y="1107" on="1"/>
        <pt x="1186" y="1130" on="1"/>
        <pt x="1130" y="1187" on="1"/>
        <pt x="1107" y="1209" on="0"/>
        <pt x="1068" y="1259" on="0"/>
        <pt x="1042" y="1277" on="1"/>
        <pt x="1023" y="1290" on="0"/>
        <pt x="988" y="1301" on="0"/>
        <pt x="952" y="1311" on="0"/>
        <pt x="914" y="1329" on="0"/>
        <pt x="893" y="1348" on="1"/>
        <pt x="881" y="1358" on="0"/>
        <pt x="828" y="1370" on="0"/>
        <pt x="768" y="1377" on="0"/>
        <pt x="713" y="1379" on="0"/>
        <pt x="700" y="1379" on="1"/>
        <pt x="654" y="1379" on="0"/>
        <pt x="547" y="1366" on="0"/>
        <pt x="504" y="1348" on="1"/>
        <pt x="496" y="1344" on="0"/>
        <pt x="485" y="1314" on="0"/>
        <pt x="478" y="1274" on="0"/>
        <pt x="475" y="1230" on="0"/>
        <pt x="475" y="1213" on="1"/>
        <pt x="475" y="1183" on="1"/>
        <pt x="475" y="1147" on="0"/>
        <pt x="494" y="1082" on="0"/>
        <pt x="494" y="1043" on="1"/>
        <pt x="494" y="1038" on="0"/>
        <pt x="489" y="1021" on="0"/>
        <pt x="487" y="1019" on="1"/>
        <pt x="484" y="998" on="0"/>
        <pt x="482" y="956" on="0"/>
        <pt x="482" y="936" on="1"/>
        <pt x="482" y="919" on="0"/>
        <pt x="484" y="884" on="0"/>
        <pt x="487" y="868" on="1"/>
        <pt x="494" y="848" on="0"/>
        <pt x="497" y="821" on="0"/>
        <pt x="497" y="808" on="1"/>
        <pt x="497" y="795" on="0"/>
        <pt x="496" y="773" on="0"/>
        <pt x="494" y="756" on="1"/>
        <pt x="496" y="732" on="1"/>
        <pt x="494" y="714" on="1"/>
        <pt x="489" y="705" on="0"/>
        <pt x="487" y="692" on="0"/>
        <pt x="487" y="682" on="1"/>
        <pt x="487" y="666" on="1"/>
        <pt x="487" y="621" on="0"/>
        <pt x="494" y="525" on="0"/>
        <pt x="499" y="479" on="1"/>
        <pt x="503" y="452" on="0"/>
        <pt x="520" y="398" on="0"/>
        <pt x="520" y="372" on="1"/>
      </contour>
    </TTGlyph>
    <TTGlyph name="Dcaron" xMin="94" yMin="7" xMax="1561" yMax="1854">
      <component glyphName="D" x="0" y="0" flags="0x204"/>
      <component glyphName="Caron" x="343" y="0" flags="0x4"/>
    </TTGlyph>
    <TTGlyph name="Dcroat" xMin="94" yMin="7" xMax="1561" yMax="1434">
      <component glyphName="Eth" x="0" y="0" flags="0x204"/>
    </TTGlyph>
    <TTGlyph name="Dieresis" xMin="251" yMin="1601" xMax="797" yMax="1806">
      <contour>
        <pt x="251" y="1709" on="1"/>
        <pt x="251" y="1720" on="0"/>
        <pt x="256" y="1739" on="0"/>
        <pt x="258" y="1750" on="1"/>
        <pt x="266" y="1773" on="0"/>
        <pt x="289" y="1806" on="0"/>
        <pt x="318" y="1806" on="1"/>
        <pt x="341" y="1806" on="0"/>
        <pt x="383" y="1790" on="0"/>
        <pt x="415" y="1763" on="0"/>
        <pt x="434" y="1724" on="0"/>
        <pt x="434" y="1702" on="1"/>
        <pt x="434" y="1688" on="0"/>
        <pt x="427" y="1654" on="0"/>
        <pt x="412" y="1625" on="0"/>
        <pt x="389" y="1605" on="0"/>
        <pt x="373" y="1605" on="1"/>
        <pt x="333" y="1605" on="0"/>
        <pt x="277" y="1636" on="0"/>
        <pt x="254" y="1667" on="1"/>
      </contour>
      <contour>
        <pt x="612" y="1704" on="1"/>
        <pt x="612" y="1713" on="0"/>
        <pt x="617" y="1734" on="0"/>
        <pt x="619" y="1743" on="1"/>
        <pt x="623" y="1768" on="0"/>
        <pt x="652" y="1806" on="0"/>
        <pt x="681" y="1806" on="1"/>
        <pt x="705" y="1806" on="0"/>
        <pt x="747" y="1789" on="0"/>
        <pt x="778" y="1760" on="0"/>
        <pt x="797" y="1721" on="0"/>
        <pt x="797" y="1700" on="1"/>
        <pt x="797" y="1685" on="0"/>
        <pt x="789" y="1650" on="0"/>
        <pt x="773" y="1621" on="0"/>
        <pt x="749" y="1601" on="0"/>
        <pt x="733" y="1601" on="1"/>
        <pt x="694" y="1601" on="0"/>
        <pt x="638" y="1638" on="0"/>
        <pt x="617" y="1664" on="1"/>
      </contour>
    </TTGlyph>
    <TTGlyph name="Dotaccent" xMin="258" yMin="1567" xMax="519" yMax="1828">
      <contour>
        <pt x="258" y="1693" on="1"/>
        <pt x="258" y="1724" on="0"/>
        <pt x="286" y="1775" on="0"/>
        <pt x="331" y="1809" on="0"/>
        <pt x="387" y="1828" on="0"/>
        <pt x="416" y="1828" on="1"/>
        <pt x="420" y="1827" on="0"/>
        <pt x="437" y="1821" on="0"/>
        <pt x="455" y="1815" on="0"/>
        <pt x="472" y="1809" on="0"/>
        <pt x="475" y="1808" on="1"/>
        <pt x="494" y="1779" on="0"/>
        <pt x="519" y="1734" on="0"/>
        <pt x="519" y="1699" on="1"/>
        <pt x="519" y="1661" on="0"/>
        <pt x="493" y="1600" on="0"/>
        <pt x="455" y="1586" on="1"/>
        <pt x="455" y="1584" on="0"/>
        <pt x="442" y="1578" on="0"/>
        <pt x="425" y="1572" on="0"/>
        <pt x="411" y="1567" on="0"/>
        <pt x="411" y="1567" on="1"/>
        <pt x="401" y="1567" on="1"/>
        <pt x="373" y="1567" on="0"/>
        <pt x="322" y="1584" on="0"/>
        <pt x="282" y="1617" on="0"/>
        <pt x="258" y="1664" on="0"/>
      </contour>
    </TTGlyph>
    <TTGlyph name="E" xMin="53" yMin="-21" xMax="1361" yMax="1384">
      <contour>
        <pt x="53" y="59" on="1"/>
        <pt x="53" y="78" on="0"/>
        <pt x="82" y="102" on="0"/>
        <pt x="123" y="117" on="0"/>
        <pt x="165" y="123" on="0"/>
        <pt x="179" y="123" on="1"/>
        <pt x="260" y="123" on="1"/>
        <pt x="269" y="125" on="0"/>
        <pt x="297" y="143" on="0"/>
        <pt x="324" y="168" on="0"/>
        <pt x="345" y="199" on="0"/>
        <pt x="347" y="213" on="1"/>
        <pt x="350" y="234" on="0"/>
        <pt x="350" y="258" on="1"/>
        <pt x="350" y="277" on="0"/>
        <pt x="347" y="298" on="1"/>
        <pt x="361" y="320" on="1"/>
        <pt x="347" y="371" on="0"/>
        <pt x="337" y="473" on="0"/>
        <pt x="337" y="522" on="1"/>
        <pt x="337" y="532" on="0"/>
        <pt x="340" y="562" on="0"/>
        <pt x="345" y="593" on="0"/>
        <pt x="351" y="622" on="0"/>
        <pt x="354" y="633" on="1"/>
        <pt x="355" y="636" on="0"/>
        <pt x="357" y="640" on="1"/>
        <pt x="361" y="648" on="0"/>
        <pt x="361" y="650" on="1"/>
        <pt x="364" y="657" on="0"/>
        <pt x="368" y="663" on="1"/>
        <pt x="370" y="668" on="0"/>
        <pt x="375" y="679" on="0"/>
        <pt x="375" y="682" on="1"/>
        <pt x="375" y="690" on="0"/>
        <pt x="359" y="702" on="0"/>
        <pt x="354" y="702" on="1"/>
        <pt x="356" y="735" on="0"/>
        <pt x="359" y="802" on="0"/>
        <pt x="359" y="834" on="1"/>
        <pt x="359" y="868" on="0"/>
        <pt x="356" y="933" on="0"/>
        <pt x="354" y="967" on="1"/>
        <pt x="349" y="981" on="0"/>
        <pt x="347" y="994" on="0"/>
        <pt x="347" y="1005" on="1"/>
        <pt x="354" y="1064" on="1"/>
        <pt x="347" y="1171" on="1"/>
        <pt x="347" y="1183" on="0"/>
        <pt x="326" y="1213" on="0"/>
        <pt x="298" y="1240" on="0"/>
        <pt x="269" y="1259" on="0"/>
        <pt x="260" y="1261" on="1"/>
        <pt x="188" y="1261" on="1"/>
        <pt x="180" y="1265" on="1"/>
        <pt x="177" y="1267" on="0"/>
        <pt x="171" y="1270" on="0"/>
        <pt x="169" y="1270" on="1"/>
        <pt x="155" y="1274" on="0"/>
        <pt x="120" y="1279" on="0"/>
        <pt x="90" y="1291" on="0"/>
        <pt x="70" y="1314" on="0"/>
        <pt x="70" y="1336" on="1"/>
        <pt x="70" y="1354" on="0"/>
        <pt x="80" y="1373" on="0"/>
        <pt x="99" y="1382" on="0"/>
        <pt x="126" y="1384" on="0"/>
        <pt x="143" y="1384" on="1"/>
        <pt x="170" y="1384" on="0"/>
        <pt x="220" y="1380" on="0"/>
        <pt x="238" y="1367" on="1"/>
        <pt x="243" y="1368" on="0"/>
        <pt x="253" y="1370" on="0"/>
        <pt x="257" y="1370" on="1"/>
        <pt x="276" y="1370" on="1"/>
        <pt x="324" y="1370" on="0"/>
        <pt x="427" y="1355" on="0"/>
        <pt x="470" y="1351" on="1"/>
        <pt x="527" y="1341" on="1"/>
        <pt x="540" y="1341" on="0"/>
        <pt x="567" y="1350" on="0"/>
        <pt x="596" y="1361" on="0"/>
        <pt x="624" y="1370" on="0"/>
        <pt x="638" y="1370" on="1"/>
        <pt x="648" y="1370" on="0"/>
        <pt x="662" y="1360" on="0"/>
        <pt x="677" y="1360" on="1"/>
        <pt x="682" y="1360" on="0"/>
        <pt x="691" y="1370" on="0"/>
        <pt x="702" y="1370" on="1"/>
        <pt x="712" y="1370" on="0"/>
        <pt x="723" y="1368" on="0"/>
        <pt x="728" y="1360" on="1"/>
        <pt x="767" y="1360" on="1"/>
        <pt x="788" y="1360" on="0"/>
        <pt x="834" y="1375" on="0"/>
        <pt x="857" y="1375" on="1"/>
        <pt x="871" y="1375" on="0"/>
        <pt x="887" y="1371" on="0"/>
        <pt x="902" y="1360" on="1"/>
        <pt x="1082" y="1351" on="1"/>
        <pt x="1095" y="1350" on="0"/>
        <pt x="1106" y="1348" on="1"/>
        <pt x="1116" y="1346" on="0"/>
        <pt x="1138" y="1343" on="0"/>
        <pt x="1146" y="1341" on="1"/>
        <pt x="1151" y="1341" on="0"/>
        <pt x="1165" y="1339" on="0"/>
        <pt x="1177" y="1333" on="0"/>
        <pt x="1186" y="1323" on="0"/>
        <pt x="1186" y="1315" on="1"/>
        <pt x="1189" y="1306" on="0"/>
        <pt x="1195" y="1265" on="0"/>
        <pt x="1200" y="1219" on="0"/>
        <pt x="1203" y="1179" on="0"/>
        <pt x="1203" y="1171" on="1"/>
        <pt x="1208" y="1137" on="0"/>
        <pt x="1214" y="1067" on="0"/>
        <pt x="1214" y="1033" on="1"/>
        <pt x="1198" y="1033" on="1"/>
        <pt x="1176" y="1033" on="0"/>
        <pt x="1162" y="1067" on="1"/>
        <pt x="1153" y="1079" on="0"/>
        <pt x="1145" y="1088" on="0"/>
        <pt x="1143" y="1093" on="1"/>
        <pt x="1129" y="1112" on="0"/>
        <pt x="1100" y="1157" on="0"/>
        <pt x="1076" y="1197" on="0"/>
        <pt x="1058" y="1230" on="0"/>
        <pt x="1055" y="1237" on="1"/>
        <pt x="1043" y="1242" on="0"/>
        <pt x="1017" y="1247" on="0"/>
        <pt x="993" y="1252" on="0"/>
        <pt x="973" y="1261" on="0"/>
        <pt x="966" y="1272" on="1"/>
        <pt x="958" y="1287" on="0"/>
        <pt x="935" y="1287" on="1"/>
        <pt x="926" y="1287" on="0"/>
        <pt x="925" y="1285" on="1"/>
        <pt x="920" y="1284" on="0"/>
        <pt x="905" y="1282" on="0"/>
        <pt x="897" y="1282" on="1"/>
        <pt x="880" y="1282" on="0"/>
        <pt x="846" y="1285" on="0"/>
        <pt x="835" y="1285" on="1"/>
        <pt x="828" y="1285" on="0"/>
        <pt x="824" y="1289" on="0"/>
        <pt x="819" y="1289" on="1"/>
        <pt x="817" y="1289" on="0"/>
        <pt x="814" y="1291" on="0"/>
        <pt x="812" y="1292" on="1"/>
        <pt x="790" y="1295" on="0"/>
        <pt x="746" y="1297" on="0"/>
        <pt x="724" y="1297" on="1"/>
        <pt x="702" y="1297" on="0"/>
        <pt x="660" y="1295" on="0"/>
        <pt x="638" y="1292" on="1"/>
        <pt x="631" y="1290" on="0"/>
        <pt x="613" y="1278" on="0"/>
        <pt x="596" y="1261" on="0"/>
        <pt x="582" y="1243" on="0"/>
        <pt x="580" y="1235" on="1"/>
        <pt x="572" y="1201" on="0"/>
        <pt x="568" y="1116" on="0"/>
        <pt x="568" y="1071" on="1"/>
        <pt x="568" y="967" on="1"/>
        <pt x="559" y="956" on="0"/>
        <pt x="555" y="933" on="0"/>
        <pt x="555" y="917" on="1"/>
        <pt x="555" y="882" on="1"/>
        <pt x="555" y="858" on="0"/>
        <pt x="558" y="812" on="0"/>
        <pt x="570" y="768" on="0"/>
        <pt x="593" y="727" on="0"/>
        <pt x="613" y="708" on="1"/>
        <pt x="774" y="702" on="1"/>
        <pt x="793" y="702" on="0"/>
        <pt x="811" y="709" on="1"/>
        <pt x="816" y="711" on="0"/>
        <pt x="830" y="714" on="0"/>
        <pt x="837" y="714" on="1"/>
        <pt x="876" y="713" on="1"/>
        <pt x="893" y="713" on="0"/>
        <pt x="907" y="723" on="1"/>
        <pt x="915" y="725" on="0"/>
        <pt x="936" y="736" on="0"/>
        <pt x="957" y="751" on="0"/>
        <pt x="975" y="766" on="0"/>
        <pt x="980" y="772" on="1"/>
        <pt x="986" y="784" on="0"/>
        <pt x="1001" y="838" on="0"/>
        <pt x="1020" y="892" on="0"/>
        <pt x="1043" y="934" on="0"/>
        <pt x="1058" y="934" on="1"/>
        <pt x="1071" y="934" on="0"/>
        <pt x="1082" y="915" on="1"/>
        <pt x="1082" y="823" on="1"/>
        <pt x="1082" y="810" on="0"/>
        <pt x="1077" y="790" on="0"/>
        <pt x="1070" y="772" on="1"/>
        <pt x="1058" y="756" on="1"/>
        <pt x="1063" y="723" on="1"/>
        <pt x="1063" y="719" on="0"/>
        <pt x="1067" y="680" on="0"/>
        <pt x="1071" y="629" on="0"/>
        <pt x="1075" y="576" on="0"/>
        <pt x="1075" y="559" on="1"/>
        <pt x="1070" y="522" on="1"/>
        <pt x="1070" y="505" on="0"/>
        <pt x="1082" y="481" on="0"/>
        <pt x="1082" y="471" on="1"/>
        <pt x="1082" y="445" on="0"/>
        <pt x="1063" y="407" on="0"/>
        <pt x="1037" y="407" on="1"/>
        <pt x="1024" y="407" on="0"/>
        <pt x="1010" y="416" on="0"/>
        <pt x="1003" y="429" on="0"/>
        <pt x="1001" y="446" on="0"/>
        <pt x="1001" y="455" on="1"/>
        <pt x="1001" y="462" on="0"/>
        <pt x="1001" y="473" on="0"/>
        <pt x="999" y="479" on="1"/>
        <pt x="971" y="528" on="1"/>
        <pt x="971" y="559" on="1"/>
        <pt x="970" y="572" on="0"/>
        <pt x="926" y="596" on="0"/>
        <pt x="860" y="616" on="0"/>
        <pt x="781" y="632" on="0"/>
        <pt x="706" y="644" on="0"/>
        <pt x="645" y="650" on="0"/>
        <pt x="631" y="650" on="1"/>
        <pt x="613" y="650" on="0"/>
        <pt x="586" y="627" on="0"/>
        <pt x="567" y="594" on="0"/>
        <pt x="557" y="557" on="0"/>
        <pt x="555" y="543" on="1"/>
        <pt x="555" y="464" on="1"/>
        <pt x="568" y="310" on="1"/>
        <pt x="568" y="223" on="1"/>
        <pt x="570" y="200" on="0"/>
        <pt x="603" y="154" on="0"/>
        <pt x="649" y="116" on="0"/>
        <pt x="701" y="92" on="0"/>
        <pt x="722" y="90" on="1"/>
        <pt x="793" y="85" on="1"/>
        <pt x="812" y="78" on="1"/>
        <pt x="876" y="78" on="1"/>
        <pt x="900" y="78" on="0"/>
        <pt x="940" y="78" on="0"/>
        <pt x="980" y="80" on="0"/>
        <pt x="1022" y="82" on="0"/>
        <pt x="1049" y="85" on="1"/>
        <pt x="1129" y="116" on="1"/>
        <pt x="1145" y="127" on="0"/>
        <pt x="1191" y="169" on="0"/>
        <pt x="1236" y="216" on="0"/>
        <pt x="1274" y="262" on="0"/>
        <pt x="1283" y="277" on="1"/>
        <pt x="1288" y="280" on="0"/>
        <pt x="1298" y="305" on="0"/>
        <pt x="1311" y="334" on="0"/>
        <pt x="1328" y="356" on="0"/>
        <pt x="1340" y="356" on="1"/>
        <pt x="1351" y="356" on="0"/>
        <pt x="1361" y="338" on="0"/>
        <pt x="1361" y="329" on="1"/>
        <pt x="1343" y="266" on="1"/>
        <pt x="1328" y="214" on="0"/>
        <pt x="1300" y="107" on="0"/>
        <pt x="1295" y="52" on="1"/>
        <pt x="1274" y="20" on="0"/>
        <pt x="1210" y="7" on="0"/>
        <pt x="1176" y="7" on="1"/>
        <pt x="1165" y="7" on="0"/>
        <pt x="1143" y="7" on="0"/>
        <pt x="1134" y="5" on="1"/>
        <pt x="1113" y="0" on="1"/>
        <pt x="1103" y="0" on="0"/>
        <pt x="1091" y="4" on="0"/>
        <pt x="1081" y="8" on="0"/>
        <pt x="1071" y="12" on="0"/>
        <pt x="1063" y="12" on="1"/>
        <pt x="999" y="5" on="1"/>
        <pt x="966" y="12" on="1"/>
        <pt x="812" y="0" on="1"/>
        <pt x="739" y="0" on="0"/>
        <pt x="593" y="12" on="0"/>
        <pt x="515" y="12" on="1"/>
        <pt x="387" y="0" on="1"/>
        <pt x="297" y="5" on="1"/>
        <pt x="279" y="5" on="0"/>
        <pt x="245" y="-3" on="0"/>
        <pt x="213" y="-13" on="0"/>
        <pt x="183" y="-21" on="0"/>
        <pt x="169" y="-21" on="1"/>
        <pt x="152" y="-21" on="0"/>
        <pt x="112" y="-11" on="0"/>
        <pt x="77" y="9" on="0"/>
        <pt x="53" y="39" on="0"/>
      </contour>
    </TTGlyph>
    <TTGlyph name="Eacute" xMin="53" yMin="-21" xMax="1361" yMax="1853">
      <component glyphName="E" x="0" y="0" flags="0x204"/>
      <component glyphName="Acute" x="243" y="0" flags="0x4"/>
    </TTGlyph>
    <TTGlyph name="Ecaron" xMin="53" yMin="-21" xMax="1361" yMax="1854">
      <component glyphName="E" x="0" y="0" flags="0x204"/>
      <component glyphName="Caron" x="358" y="0" flags="0x4"/>
    </TTGlyph>
    <TTGlyph name="Ecircumflex" xMin="53" yMin="-21" xMax="1361" yMax="1853">
      <component glyphName="E" x="0" y="0" flags="0x204"/>
      <component glyphName="Circumflex" x="253" y="0" flags="0x4"/>
    </TTGlyph>
    <TTGlyph name="Edieresis" xMin="53" yMin="-21" xMax="1361" yMax="1806">
      <component glyphName="E" x="0" y="0" flags="0x204"/>
      <component glyphName="Dieresis" x="224" y="0" flags="0x4"/>
    </TTGlyph>
    <TTGlyph name="Edotaccent" xMin="53" yMin="-21" xMax="1361" yMax="1828">
      <component glyphName="E" x="0" y="0" flags="0x204"/>
      <component glyphName="Dotaccent" x="389" y="0" flags="0x4"/>
    </TTGlyph>
    <TTGlyph name="Egrave" xMin="53" yMin="-21" xMax="1361" yMax="1854">
      <component glyphName="E" x="0" y="0" flags="0x204"/>
      <component glyphName="Grave" x="236" y="0" flags="0x4"/>
    </TTGlyph>
    <TTGlyph name="Emacron" xMin="53" yMin="-21" xMax="1361" yMax="1708">
      <component glyphName="E" x="0" y="0" flags="0x204"/>
      <component glyphName="Macron" x="274" y="0" flags="0x4"/>
    </TTGlyph>
    <TTGlyph name="Eogonek" xMin="53" yMin="-431" xMax="1361" yMax="1384">
      <contour>
        <pt x="53" y="59" on="1"/>
        <pt x="53" y="78" on="0"/>
        <pt x="82" y="102" on="0"/>
        <pt x="123" y="117" on="0"/>
        <pt x="165" y="123" on="0"/>
        <pt x="179" y="123" on="1"/>
        <pt x="260" y="123" on="1"/>
        <pt x="269" y="125" on="0"/>
        <pt x="297" y="143" on="0"/>
        <pt x="324" y="168" on="0"/>
        <pt x="345" y="199" on="0"/>
        <pt x="347" y="213" on="1"/>
        <pt x="350" y="234" on="0"/>
        <pt x="350" y="258" on="1"/>
        <pt x="350" y="277" on="0"/>
        <pt x="347" y="298" on="1"/>
        <pt x="361" y="320" on="1"/>
        <pt x="347" y="371" on="0"/>
        <pt x="337" y="473" on="0"/>
        <pt x="337" y="522" on="1"/>
        <pt x="337" y="532" on="0"/>
        <pt x="340" y="562" on="0"/>
        <pt x="345" y="593" on="0"/>
        <pt x="351" y="622" on="0"/>
        <pt x="354" y="633" on="1"/>
        <pt x="355" y="636" on="0"/>
        <pt x="357" y="640" on="1"/>
        <pt x="361" y="648" on="0"/>
        <pt x="361" y="650" on="1"/>
        <pt x="364" y="657" on="0"/>
        <pt x="368" y="663" on="1"/>
        <pt x="370" y="668" on="0"/>
        <pt x="375" y="679" on="0"/>
        <pt x="375" y="682" on="1"/>
        <pt x="375" y="690" on="0"/>
        <pt x="359" y="702" on="0"/>
        <pt x="354" y="702" on="1"/>
        <pt x="356" y="735" on="0"/>
        <pt x="359" y="802" on="0"/>
        <pt x="359" y="834" on="1"/>
        <pt x="359" y="868" on="0"/>
        <pt x="356" y="933" on="0"/>
        <pt x="354" y="967" on="1"/>
        <pt x="349" y="981" on="0"/>
        <pt x="347" y="994" on="0"/>
        <pt x="347" y="1005" on="1"/>
        <pt x="354" y="1064" on="1"/>
        <pt x="347" y="1171" on="1"/>
        <pt x="347" y="1183" on="0"/>
        <pt x="326" y="1213" on="0"/>
        <pt x="298" y="1240" on="0"/>
        <pt x="269" y="1259" on="0"/>
        <pt x="260" y="1261" on="1"/>
        <pt x="188" y="1261" on="1"/>
        <pt x="180" y="1265" on="1"/>
        <pt x="177" y="1267" on="0"/>
        <pt x="171" y="1270" on="0"/>
        <pt x="169" y="1270" on="1"/>
        <pt x="155" y="1274" on="0"/>
        <pt x="120" y="1279" on="0"/>
        <pt x="90" y="1291" on="0"/>
        <pt x="70" y="1314" on="0"/>
        <pt x="70" y="1336" on="1"/>
        <pt x="70" y="1354" on="0"/>
        <pt x="80" y="1373" on="0"/>
        <pt x="99" y="1382" on="0"/>
        <pt x="126" y="1384" on="0"/>
        <pt x="143" y="1384" on="1"/>
        <pt x="170" y="1384" on="0"/>
        <pt x="220" y="1380" on="0"/>
        <pt x="238" y="1367" on="1"/>
        <pt x="243" y="1368" on="0"/>
        <pt x="253" y="1370" on="0"/>
        <pt x="257" y="1370" on="1"/>
        <pt x="276" y="1370" on="1"/>
        <pt x="324" y="1370" on="0"/>
        <pt x="427" y="1355" on="0"/>
        <pt x="470" y="1351" on="1"/>
        <pt x="527" y="1341" on="1"/>
        <pt x="540" y="1341" on="0"/>
        <pt x="567" y="1350" on="0"/>
        <pt x="596" y="1361" on="0"/>
        <pt x="624" y="1370" on="0"/>
        <pt x="638" y="1370" on="1"/>
        <pt x="648" y="1370" on="0"/>
        <pt x="662" y="1360" on="0"/>
        <pt x="677" y="1360" on="1"/>
        <pt x="682" y="1360" on="0"/>
        <pt x="691" y="1370" on="0"/>
        <pt x="702" y="1370" on="1"/>
        <pt x="712" y="1370" on="0"/>
        <pt x="723" y="1368" on="0"/>
        <pt x="728" y="1360" on="1"/>
        <pt x="767" y="1360" on="1"/>
        <pt x="788" y="1360" on="0"/>
        <pt x="834" y="1375" on="0"/>
        <pt x="857" y="1375" on="1"/>
        <pt x="871" y="1375" on="0"/>
        <pt x="887" y="1371" on="0"/>
        <pt x="902" y="1360" on="1"/>
        <pt x="1082" y="1351" on="1"/>
        <pt x="1095" y="1350" on="0"/>
        <pt x="1106" y="1348" on="1"/>
        <pt x="1116" y="1346" on="0"/>
        <pt x="1138" y="1343" on="0"/>
        <pt x="1146" y="1341" on="1"/>
        <pt x="1151" y="1341" on="0"/>
        <pt x="1165" y="1339" on="0"/>
        <pt x="1177" y="1333" on="0"/>
        <pt x="1186" y="1323" on="0"/>
        <pt x="1186" y="1315" on="1"/>
        <pt x="1189" y="1306" on="0"/>
        <pt x="1195" y="1265" on="0"/>
        <pt x="1200" y="1219" on="0"/>
        <pt x="1203" y="1179" on="0"/>
        <pt x="1203" y="1171" on="1"/>
        <pt x="1208" y="1137" on="0"/>
        <pt x="1214" y="1067" on="0"/>
        <pt x="1214" y="1033" on="1"/>
        <pt x="1198" y="1033" on="1"/>
        <pt x="1176" y="1033" on="0"/>
        <pt x="1162" y="1067" on="1"/>
        <pt x="1153" y="1079" on="0"/>
        <pt x="1145" y="1088" on="0"/>
        <pt x="1143" y="1093" on="1"/>
        <pt x="1129" y="1112" on="0"/>
        <pt x="1100" y="1157" on="0"/>
        <pt x="1076" y="1197" on="0"/>
        <pt x="1058" y="1230" on="0"/>
        <pt x="1055" y="1237" on="1"/>
        <pt x="1043" y="1242" on="0"/>
        <pt x="1017" y="1247" on="0"/>
        <pt x="993" y="1252" on="0"/>
        <pt x="973" y="1261" on="0"/>
        <pt x="966" y="1272" on="1"/>
        <pt x="958" y="1287" on="0"/>
        <pt x="935" y="1287" on="1"/>
        <pt x="926" y="1287" on="0"/>
        <pt x="925" y="1285" on="1"/>
        <pt x="920" y="1284" on="0"/>
        <pt x="905" y="1282" on="0"/>
        <pt x="897" y="1282" on="1"/>
        <pt x="880" y="1282" on="0"/>
        <pt x="846" y="1285" on="0"/>
        <pt x="835" y="1285" on="1"/>
        <pt x="828" y="1285" on="0"/>
        <pt x="824" y="1289" on="0"/>
        <pt x="819" y="1289" on="1"/>
        <pt x="817" y="1289" on="0"/>
        <pt x="814" y="1291" on="0"/>
        <pt x="812" y="1292" on="1"/>
        <pt x="790" y="1295" on="0"/>
        <pt x="746" y="1297" on="0"/>
        <pt x="724" y="1297" on="1"/>
        <pt x="702" y="1297" on="0"/>
        <pt x="660" y="1295" on="0"/>
        <pt x="638" y="1292" on="1"/>
        <pt x="631" y="1290" on="0"/>
        <pt x="613" y="1278" on="0"/>
        <pt x="596" y="1261" on="0"/>
        <pt x="582" y="1243" on="0"/>
        <pt x="580" y="1235" on="1"/>
        <pt x="572" y="1201" on="0"/>
        <pt x="568" y="1116" on="0"/>
        <pt x="568" y="1071" on="1"/>
        <pt x="568" y="967" on="1"/>
        <pt x="559" y="956" on="0"/>
        <pt x="555" y="933" on="0"/>
        <pt x="555" y="917" on="1"/>
        <pt x="555" y="882" on="1"/>
        <pt x="555" y="858" on="0"/>
        <pt x="558" y="812" on="0"/>
        <pt x="570" y="768" on="0"/>
        <pt x="593" y="727" on="0"/>
        <pt x="613" y="708" on="1"/>
        <pt x="774" y="702" on="1"/>
        <pt x="793" y="702" on="0"/>
        <pt x="811" y="709" on="1"/>
        <pt x="816" y="711" on="0"/>
        <pt x="830" y="714" on="0"/>
        <pt x="837" y="714" on="1"/>
        <pt x="876" y="713" on="1"/>
        <pt x="893" y="713" on="0"/>
        <pt x="907" y="723" on="1"/>
        <pt x="915" y="725" on="0"/>
        <pt x="936" y="736" on="0"/>
        <pt x="957" y="751" on="0"/>
        <pt x="975" y="766" on="0"/>
        <pt x="980" y="772" on="1"/>
        <pt x="986" y="784" on="0"/>
        <pt x="1001" y="838" on="0"/>
        <pt x="1020" y="892" on="0"/>
        <pt x="1043" y="934" on="0"/>
        <pt x="1058" y="934" on="1"/>
        <pt x="1071" y="934" on="0"/>
        <pt x="1082" y="915" on="1"/>
        <pt x="1082" y="823" on="1"/>
        <pt x="1082" y="810" on="0"/>
        <pt x="1077" y="790" on="0"/>
        <pt x="1070" y="772" on="1"/>
        <pt x="1058" y="756" on="1"/>
        <pt x="1063" y="723" on="1"/>
        <pt x="1063" y="719" on="0"/>
        <pt x="1067" y="680" on="0"/>
        <pt x="1071" y="629" on="0"/>
        <pt x="1075" y="576" on="0"/>
        <pt x="1075" y="559" on="1"/>
        <pt x="1070" y="522" on="1"/>
        <pt x="1070" y="505" on="0"/>
        <pt x="1082" y="481" on="0"/>
        <pt x="1082" y="471" on="1"/>
        <pt x="1082" y="445" on="0"/>
        <pt x="1063" y="407" on="0"/>
        <pt x="1037" y="407" on="1"/>
        <pt x="1024" y="407" on="0"/>
        <pt x="1010" y="416" on="0"/>
        <pt x="1003" y="429" on="0"/>
        <pt x="1001" y="446" on="0"/>
        <pt x="1001" y="455" on="1"/>
        <pt x="1001" y="462" on="0"/>
        <pt x="1001" y="473" on="0"/>
        <pt x="999" y="479" on="1"/>
        <pt x="971" y="528" on="1"/>
        <pt x="971" y="559" on="1"/>
        <pt x="970" y="572" on="0"/>
        <pt x="926" y="596" on="0"/>
        <pt x="860" y="616" on="0"/>
        <pt x="781" y="632" on="0"/>
        <pt x="706" y="644" on="0"/>
        <pt x="645" y="650" on="0"/>
        <pt x="631" y="650" on="1"/>
        <pt x="613" y="650" on="0"/>
        <pt x="586" y="627" on="0"/>
        <pt x="567" y="594" on="0"/>
        <pt x="557" y="557" on="0"/>
        <pt x="555" y="543" on="1"/>
        <pt x="555" y="464" on="1"/>
        <pt x="568" y="310" on="1"/>
        <pt x="568" y="223" on="1"/>
        <pt x="570" y="200" on="0"/>
        <pt x="603" y="154" on="0"/>
        <pt x="649" y="116" on="0"/>
        <pt x="701" y="92" on="0"/>
        <pt x="722" y="90" on="1"/>
        <pt x="793" y="85" on="1"/>
        <pt x="812" y="78" on="1"/>
        <pt x="876" y="78" on="1"/>
        <pt x="900" y="78" on="0"/>
        <pt x="940" y="78" on="0"/>
        <pt x="980" y="80" on="0"/>
        <pt x="1022" y="82" on="0"/>
        <pt x="1049" y="85" on="1"/>
        <pt x="1129" y="116" on="1"/>
        <pt x="1145" y="127" on="0"/>
        <pt x="1191" y="169" on="0"/>
        <pt x="1236" y="216" on="0"/>
        <pt x="1274" y="262" on="0"/>
        <pt x="1283" y="277" on="1"/>
        <pt x="1288" y="280" on="0"/>
        <pt x="1298" y="305" on="0"/>
        <pt x="1311" y="334" on="0"/>
        <pt x="1328" y="356" on="0"/>
        <pt x="1340" y="356" on="1"/>
        <pt x="1351" y="356" on="0"/>
        <pt x="1361" y="338" on="0"/>
        <pt x="1361" y="329" on="1"/>
        <pt x="1343" y="266" on="1"/>
        <pt x="1328" y="214" on="0"/>
        <pt x="1300" y="107" on="0"/>
        <pt x="1295" y="52" on="1"/>
        <pt x="1274" y="20" on="0"/>
        <pt x="1210" y="7" on="0"/>
        <pt x="1176" y="7" on="1"/>
        <pt x="1168" y="7" on="0"/>
        <pt x="1152" y="7" on="0"/>
        <pt x="1144" y="6" on="1"/>
        <pt x="1138" y="-11" on="0"/>
        <pt x="1122" y="-45" on="0"/>
        <pt x="1107" y="-78" on="0"/>
        <pt x="1097" y="-112" on="0"/>
        <pt x="1097" y="-130" on="1"/>
        <pt x="1097" y="-147" on="0"/>
        <pt x="1114" y="-187" on="0"/>
        <pt x="1119" y="-205" on="1"/>
        <pt x="1123" y="-216" on="0"/>
        <pt x="1126" y="-241" on="0"/>
        <pt x="1132" y="-252" on="1"/>
        <pt x="1139" y="-264" on="0"/>
        <pt x="1153" y="-282" on="0"/>
        <pt x="1159" y="-293" on="1"/>
        <pt x="1175" y="-302" on="1"/>
        <pt x="1182" y="-309" on="0"/>
        <pt x="1197" y="-312" on="0"/>
        <pt x="1208" y="-313" on="1"/>
        <pt x="1273" y="-317" on="1"/>
        <pt x="1291" y="-317" on="0"/>
        <pt x="1313" y="-307" on="0"/>
        <pt x="1328" y="-307" on="1"/>
        <pt x="1342" y="-307" on="1"/>
        <pt x="1361" y="-307" on="0"/>
        <pt x="1361" y="-325" on="1"/>
        <pt x="1361" y="-333" on="0"/>
        <pt x="1354" y="-342" on="1"/>
        <pt x="1332" y="-370" on="0"/>
        <pt x="1273" y="-406" on="0"/>
        <pt x="1240" y="-416" on="1"/>
        <pt x="1215" y="-428" on="1"/>
        <pt x="1204" y="-430" on="0"/>
        <pt x="1177" y="-431" on="0"/>
        <pt x="1165" y="-431" on="1"/>
        <pt x="1156" y="-431" on="0"/>
        <pt x="1124" y="-427" on="0"/>
        <pt x="1112" y="-425" on="1"/>
        <pt x="1097" y="-418" on="1"/>
        <pt x="1083" y="-414" on="0"/>
        <pt x="1058" y="-402" on="0"/>
        <pt x="1044" y="-397" on="1"/>
        <pt x="1027" y="-388" on="1"/>
        <pt x="1015" y="-371" on="1"/>
        <pt x="1011" y="-359" on="0"/>
        <pt x="999" y="-338" on="0"/>
        <pt x="992" y="-327" on="1"/>
        <pt x="981" y="-308" on="0"/>
        <pt x="972" y="-262" on="0"/>
        <pt x="972" y="-238" on="1"/>
        <pt x="972" y="-227" on="0"/>
        <pt x="976" y="-195" on="0"/>
        <pt x="978" y="-183" on="1"/>
        <pt x="981" y="-154" on="1"/>
        <pt x="990" y="-120" on="1"/>
        <pt x="1004" y="-88" on="1"/>
        <pt x="1018" y="-59" on="0"/>
        <pt x="1062" y="-13" on="0"/>
        <pt x="1089" y="4" on="1"/>
        <pt x="1083" y="7" on="0"/>
        <pt x="1072" y="12" on="0"/>
        <pt x="1063" y="12" on="1"/>
        <pt x="999" y="5" on="1"/>
        <pt x="966" y="12" on="1"/>
        <pt x="812" y="0" on="1"/>
        <pt x="739" y="0" on="0"/>
        <pt x="593" y="12" on="0"/>
        <pt x="515" y="12" on="1"/>
        <pt x="387" y="0" on="1"/>
        <pt x="297" y="5" on="1"/>
        <pt x="279" y="5" on="0"/>
        <pt x="245" y="-3" on="0"/>
        <pt x="213" y="-13" on="0"/>
        <pt x="183" y="-21" on="0"/>
        <pt x="169" y="-21" on="1"/>
        <pt x="152" y="-21" on="0"/>
        <pt x="112" y="-11" on="0"/>
        <pt x="77" y="9" on="0"/>
        <pt x="53" y="39" on="0"/>
      </contour>
    </TTGlyph>
    <TTGlyph name="Eth" xMin="94" yMin="7" xMax="1561" yMax="1434">
      <contour>
        <pt x="106" y="61" on="1"/>
        <pt x="106" y="76" on="0"/>
        <pt x="134" y="90" on="0"/>
        <pt x="177" y="99" on="0"/>
        <pt x="227" y="109" on="0"/>
        <pt x="270" y="131" on="0"/>
        <pt x="298" y="171" on="0"/>
        <pt x="298" y="206" on="1"/>
        <pt x="291" y="239" on="1"/>
        <pt x="291" y="246" on="0"/>
        <pt x="299" y="255" on="0"/>
        <pt x="309" y="263" on="0"/>
        <pt x="317" y="273" on="0"/>
        <pt x="317" y="282" on="1"/>
        <pt x="309" y="351" on="1"/>
        <pt x="314" y="391" on="1"/>
        <pt x="316" y="396" on="0"/>
        <pt x="316" y="412" on="1"/>
        <pt x="316" y="444" on="0"/>
        <pt x="297" y="491" on="0"/>
        <pt x="297" y="514" on="1"/>
        <pt x="297" y="528" on="0"/>
        <pt x="298" y="531" on="1"/>
        <pt x="305" y="554" on="0"/>
        <pt x="317" y="603" on="0"/>
        <pt x="319" y="628" on="1"/>
        <pt x="305" y="629" on="0"/>
        <pt x="267" y="633" on="0"/>
        <pt x="225" y="638" on="0"/>
        <pt x="185" y="642" on="0"/>
        <pt x="171" y="642" on="1"/>
        <pt x="142" y="659" on="0"/>
        <pt x="116" y="689" on="0"/>
        <pt x="116" y="709" on="1"/>
        <pt x="116" y="750" on="0"/>
        <pt x="166" y="808" on="0"/>
        <pt x="209" y="808" on="1"/>
        <pt x="290" y="803" on="1"/>
        <pt x="309" y="803" on="1"/>
        <pt x="312" y="803" on="1"/>
        <pt x="309" y="891" on="1"/>
        <pt x="305" y="908" on="0"/>
        <pt x="291" y="948" on="0"/>
        <pt x="291" y="969" on="1"/>
        <pt x="291" y="971" on="0"/>
        <pt x="293" y="977" on="0"/>
        <pt x="298" y="991" on="1"/>
        <pt x="298" y="1039" on="0"/>
        <pt x="290" y="1132" on="0"/>
        <pt x="286" y="1182" on="1"/>
        <pt x="288" y="1213" on="1"/>
        <pt x="288" y="1214" on="0"/>
        <pt x="278" y="1224" on="0"/>
        <pt x="265" y="1236" on="0"/>
        <pt x="255" y="1248" on="0"/>
        <pt x="255" y="1251" on="1"/>
        <pt x="257" y="1256" on="0"/>
        <pt x="259" y="1264" on="0"/>
        <pt x="259" y="1268" on="1"/>
        <pt x="259" y="1273" on="0"/>
        <pt x="257" y="1284" on="0"/>
        <pt x="255" y="1289" on="1"/>
        <pt x="254" y="1294" on="0"/>
        <pt x="229" y="1307" on="0"/>
        <pt x="193" y="1319" on="0"/>
        <pt x="152" y="1332" on="0"/>
        <pt x="117" y="1343" on="0"/>
        <pt x="94" y="1354" on="0"/>
        <pt x="94" y="1358" on="1"/>
        <pt x="94" y="1372" on="0"/>
        <pt x="110" y="1391" on="0"/>
        <pt x="134" y="1402" on="0"/>
        <pt x="163" y="1406" on="0"/>
        <pt x="177" y="1406" on="1"/>
        <pt x="200" y="1397" on="0"/>
        <pt x="249" y="1394" on="0"/>
        <pt x="272" y="1394" on="1"/>
        <pt x="333" y="1394" on="0"/>
        <pt x="383" y="1400" on="1"/>
        <pt x="422" y="1404" on="0"/>
        <pt x="508" y="1414" on="0"/>
        <pt x="544" y="1420" on="1"/>
        <pt x="565" y="1427" on="0"/>
        <pt x="587" y="1434" on="0"/>
        <pt x="589" y="1434" on="1"/>
        <pt x="601" y="1434" on="0"/>
        <pt x="614" y="1432" on="0"/>
        <pt x="618" y="1431" on="1"/>
        <pt x="720" y="1431" on="1"/>
        <pt x="725" y="1429" on="0"/>
        <pt x="740" y="1429" on="0"/>
        <pt x="746" y="1429" on="1"/>
        <pt x="753" y="1429" on="0"/>
        <pt x="766" y="1429" on="0"/>
        <pt x="772" y="1431" on="1"/>
        <pt x="831" y="1431" on="0"/>
        <pt x="939" y="1401" on="0"/>
        <pt x="996" y="1384" on="1"/>
        <pt x="998" y="1384" on="0"/>
        <pt x="1023" y="1379" on="0"/>
        <pt x="1052" y="1373" on="0"/>
        <pt x="1079" y="1368" on="0"/>
        <pt x="1082" y="1368" on="1"/>
        <pt x="1084" y="1368" on="0"/>
        <pt x="1095" y="1359" on="0"/>
        <pt x="1109" y="1350" on="0"/>
        <pt x="1120" y="1342" on="0"/>
        <pt x="1122" y="1342" on="1"/>
        <pt x="1169" y="1336" on="1"/>
        <pt x="1169" y="1336" on="0"/>
        <pt x="1176" y="1330" on="0"/>
        <pt x="1184" y="1322" on="0"/>
        <pt x="1192" y="1316" on="0"/>
        <pt x="1194" y="1315" on="1"/>
        <pt x="1222" y="1294" on="0"/>
        <pt x="1287" y="1271" on="0"/>
        <pt x="1319" y="1251" on="1"/>
        <pt x="1351" y="1213" on="0"/>
        <pt x="1429" y="1137" on="0"/>
        <pt x="1464" y="1097" on="1"/>
        <pt x="1465" y="1096" on="0"/>
        <pt x="1468" y="1090" on="0"/>
        <pt x="1472" y="1075" on="0"/>
        <pt x="1480" y="1049" on="0"/>
        <pt x="1485" y="1028" on="1"/>
        <pt x="1485" y="1016" on="0"/>
        <pt x="1489" y="1012" on="1"/>
        <pt x="1489" y="1009" on="0"/>
        <pt x="1499" y="997" on="0"/>
        <pt x="1512" y="983" on="0"/>
        <pt x="1524" y="971" on="0"/>
        <pt x="1527" y="969" on="1"/>
        <pt x="1527" y="949" on="0"/>
        <pt x="1535" y="918" on="0"/>
        <pt x="1545" y="890" on="0"/>
        <pt x="1553" y="864" on="0"/>
        <pt x="1553" y="851" on="1"/>
        <pt x="1549" y="794" on="1"/>
        <pt x="1561" y="716" on="1"/>
        <pt x="1561" y="686" on="0"/>
        <pt x="1551" y="630" on="0"/>
        <pt x="1537" y="576" on="0"/>
        <pt x="1521" y="521" on="0"/>
        <pt x="1515" y="491" on="1"/>
        <pt x="1515" y="453" on="1"/>
        <pt x="1515" y="452" on="0"/>
        <pt x="1502" y="435" on="0"/>
        <pt x="1502" y="431" on="1"/>
        <pt x="1493" y="409" on="0"/>
        <pt x="1470" y="367" on="0"/>
        <pt x="1446" y="324" on="0"/>
        <pt x="1423" y="280" on="0"/>
        <pt x="1414" y="256" on="1"/>
        <pt x="1329" y="182" on="1"/>
        <pt x="1272" y="149" on="1"/>
        <pt x="1265" y="149" on="0"/>
        <pt x="1265" y="144" on="1"/>
        <pt x="1243" y="114" on="0"/>
        <pt x="1178" y="66" on="0"/>
        <pt x="1139" y="66" on="1"/>
        <pt x="1087" y="71" on="1"/>
        <pt x="1078" y="71" on="0"/>
        <pt x="1053" y="58" on="0"/>
        <pt x="1042" y="54" on="1"/>
        <pt x="1039" y="54" on="0"/>
        <pt x="1021" y="51" on="0"/>
        <pt x="1002" y="48" on="0"/>
        <pt x="985" y="45" on="0"/>
        <pt x="983" y="45" on="1"/>
        <pt x="980" y="45" on="0"/>
        <pt x="954" y="39" on="0"/>
        <pt x="920" y="32" on="0"/>
        <pt x="886" y="24" on="0"/>
        <pt x="876" y="22" on="1"/>
        <pt x="864" y="12" on="0"/>
        <pt x="845" y="12" on="1"/>
        <pt x="838" y="12" on="0"/>
        <pt x="816" y="17" on="0"/>
        <pt x="795" y="22" on="1"/>
        <pt x="794" y="22" on="0"/>
        <pt x="783" y="19" on="0"/>
        <pt x="770" y="15" on="0"/>
        <pt x="756" y="12" on="0"/>
        <pt x="752" y="12" on="1"/>
        <pt x="745" y="14" on="0"/>
        <pt x="723" y="22" on="0"/>
        <pt x="719" y="22" on="1"/>
        <pt x="674" y="16" on="0"/>
        <pt x="589" y="12" on="0"/>
        <pt x="547" y="12" on="1"/>
        <pt x="503" y="12" on="0"/>
        <pt x="421" y="16" on="0"/>
        <pt x="378" y="22" on="1"/>
        <pt x="352" y="27" on="0"/>
        <pt x="316" y="29" on="0"/>
        <pt x="290" y="29" on="1"/>
        <pt x="176" y="7" on="1"/>
        <pt x="164" y="7" on="0"/>
        <pt x="139" y="13" on="0"/>
        <pt x="119" y="26" on="0"/>
        <pt x="106" y="46" on="0"/>
      </contour>
      <contour>
        <pt x="527" y="638" on="1"/>
        <pt x="487" y="631" on="1"/>
        <pt x="489" y="593" on="0"/>
        <pt x="494" y="516" on="0"/>
        <pt x="499" y="479" on="1"/>
        <pt x="503" y="452" on="0"/>
        <pt x="520" y="398" on="0"/>
        <pt x="520" y="372" on="1"/>
        <pt x="511" y="320" on="1"/>
        <pt x="511" y="273" on="0"/>
        <pt x="571" y="187" on="0"/>
        <pt x="660" y="123" on="0"/>
        <pt x="762" y="85" on="0"/>
        <pt x="803" y="85" on="1"/>
        <pt x="857" y="85" on="0"/>
        <pt x="944" y="109" on="0"/>
        <pt x="989" y="135" on="1"/>
        <pt x="1002" y="143" on="0"/>
        <pt x="1023" y="152" on="0"/>
        <pt x="1043" y="161" on="0"/>
        <pt x="1064" y="173" on="0"/>
        <pt x="1077" y="182" on="1"/>
        <pt x="1113" y="208" on="0"/>
        <pt x="1182" y="268" on="0"/>
        <pt x="1212" y="306" on="1"/>
        <pt x="1217" y="332" on="1"/>
        <pt x="1221" y="349" on="0"/>
        <pt x="1233" y="374" on="0"/>
        <pt x="1247" y="398" on="0"/>
        <pt x="1260" y="423" on="0"/>
        <pt x="1265" y="439" on="1"/>
        <pt x="1265" y="440" on="0"/>
        <pt x="1267" y="452" on="0"/>
        <pt x="1269" y="466" on="0"/>
        <pt x="1272" y="478" on="0"/>
        <pt x="1272" y="479" on="1"/>
        <pt x="1279" y="497" on="0"/>
        <pt x="1297" y="534" on="0"/>
        <pt x="1313" y="572" on="0"/>
        <pt x="1324" y="612" on="0"/>
        <pt x="1324" y="633" on="1"/>
        <pt x="1319" y="647" on="0"/>
        <pt x="1317" y="658" on="0"/>
        <pt x="1317" y="663" on="1"/>
        <pt x="1317" y="668" on="0"/>
        <pt x="1319" y="682" on="0"/>
        <pt x="1319" y="683" on="1"/>
        <pt x="1317" y="691" on="0"/>
        <pt x="1311" y="735" on="0"/>
        <pt x="1306" y="784" on="0"/>
        <pt x="1302" y="829" on="0"/>
        <pt x="1302" y="837" on="1"/>
        <pt x="1293" y="849" on="0"/>
        <pt x="1288" y="882" on="0"/>
        <pt x="1288" y="896" on="1"/>
        <pt x="1288" y="909" on="0"/>
        <pt x="1290" y="928" on="0"/>
        <pt x="1290" y="936" on="1"/>
        <pt x="1273" y="948" on="0"/>
        <pt x="1259" y="983" on="0"/>
        <pt x="1251" y="1021" on="0"/>
        <pt x="1242" y="1060" on="0"/>
        <pt x="1231" y="1076" on="1"/>
        <pt x="1230" y="1078" on="0"/>
        <pt x="1222" y="1087" on="0"/>
        <pt x="1212" y="1098" on="0"/>
        <pt x="1204" y="1106" on="0"/>
        <pt x="1203" y="1107" on="1"/>
        <pt x="1186" y="1130" on="1"/>
        <pt x="1130" y="1187" on="1"/>
        <pt x="1107" y="1209" on="0"/>
        <pt x="1068" y="1259" on="0"/>
        <pt x="1042" y="1277" on="1"/>
        <pt x="1023" y="1290" on="0"/>
        <pt x="988" y="1301" on="0"/>
        <pt x="952" y="1311" on="0"/>
        <pt x="914" y="1329" on="0"/>
        <pt x="893" y="1348" on="1"/>
        <pt x="881" y="1358" on="0"/>
        <pt x="828" y="1370" on="0"/>
        <pt x="768" y="1377" on="0"/>
        <pt x="713" y="1379" on="0"/>
        <pt x="700" y="1379" on="1"/>
        <pt x="654" y="1379" on="0"/>
        <pt x="547" y="1366" on="0"/>
        <pt x="504" y="1348" on="1"/>
        <pt x="496" y="1344" on="0"/>
        <pt x="485" y="1314" on="0"/>
        <pt x="478" y="1274" on="0"/>
        <pt x="475" y="1230" on="0"/>
        <pt x="475" y="1213" on="1"/>
        <pt x="475" y="1183" on="1"/>
        <pt x="475" y="1147" on="0"/>
        <pt x="494" y="1082" on="0"/>
        <pt x="494" y="1043" on="1"/>
        <pt x="494" y="1038" on="0"/>
        <pt x="489" y="1021" on="0"/>
        <pt x="487" y="1019" on="1"/>
        <pt x="484" y="998" on="0"/>
        <pt x="482" y="956" on="0"/>
        <pt x="482" y="936" on="1"/>
        <pt x="482" y="919" on="0"/>
        <pt x="484" y="884" on="0"/>
        <pt x="487" y="868" on="1"/>
        <pt x="494" y="848" on="0"/>
        <pt x="497" y="821" on="0"/>
        <pt x="497" y="808" on="1"/>
        <pt x="497" y="801" on="1"/>
        <pt x="516" y="801" on="1"/>
        <pt x="520" y="801" on="0"/>
        <pt x="545" y="802" on="0"/>
        <pt x="574" y="802" on="0"/>
        <pt x="598" y="803" on="0"/>
        <pt x="602" y="803" on="1"/>
        <pt x="607" y="806" on="0"/>
        <pt x="652" y="809" on="0"/>
        <pt x="702" y="810" on="0"/>
        <pt x="745" y="811" on="0"/>
        <pt x="749" y="811" on="1"/>
        <pt x="763" y="811" on="0"/>
        <pt x="814" y="807" on="0"/>
        <pt x="864" y="796" on="0"/>
        <pt x="901" y="777" on="0"/>
        <pt x="901" y="761" on="1"/>
        <pt x="901" y="737" on="0"/>
        <pt x="873" y="688" on="0"/>
        <pt x="828" y="648" on="0"/>
        <pt x="771" y="623" on="0"/>
        <pt x="742" y="623" on="1"/>
        <pt x="740" y="623" on="1"/>
        <pt x="738" y="624" on="0"/>
        <pt x="693" y="628" on="0"/>
        <pt x="640" y="633" on="0"/>
        <pt x="595" y="637" on="0"/>
        <pt x="593" y="637" on="1"/>
      </contour>
    </TTGlyph>
    <TTGlyph name="Euro" xMin="73" yMin="-3" xMax="1101" yMax="1450">
      <contour>
        <pt x="379" y="782" on="1"/>
        <pt x="379" y="775" on="0"/>
        <pt x="369" y="761" on="0"/>
        <pt x="357" y="748" on="0"/>
        <pt x="347" y="736" on="0"/>
        <pt x="347" y="730" on="1"/>
        <pt x="347" y="725" on="0"/>
        <pt x="357" y="715" on="0"/>
        <pt x="368" y="706" on="0"/>
        <pt x="378" y="698" on="0"/>
        <pt x="378" y="695" on="1"/>
        <pt x="476" y="683" on="1"/>
        <pt x="540" y="695" on="1"/>
        <pt x="558" y="680" on="1"/>
        <pt x="674" y="695" on="1"/>
        <pt x="732" y="670" on="1"/>
        <pt x="852" y="695" on="1"/>
        <pt x="873" y="701" on="0"/>
        <pt x="890" y="701" on="1"/>
        <pt x="901" y="701" on="0"/>
        <pt x="921" y="698" on="0"/>
        <pt x="935" y="695" on="1"/>
        <pt x="942" y="681" on="0"/>
        <pt x="942" y="668" on="1"/>
        <pt x="942" y="643" on="0"/>
        <pt x="911" y="616" on="1"/>
        <pt x="903" y="613" on="0"/>
        <pt x="882" y="611" on="0"/>
        <pt x="873" y="611" on="1"/>
        <pt x="857" y="611" on="0"/>
        <pt x="822" y="615" on="0"/>
        <pt x="805" y="618" on="1"/>
        <pt x="793" y="623" on="1"/>
        <pt x="625" y="616" on="1"/>
        <pt x="566" y="623" on="1"/>
        <pt x="478" y="616" on="1"/>
        <pt x="379" y="616" on="1"/>
        <pt x="359" y="581" on="1"/>
        <pt x="362" y="567" on="0"/>
        <pt x="371" y="550" on="0"/>
        <pt x="380" y="536" on="0"/>
        <pt x="388" y="521" on="0"/>
        <pt x="390" y="509" on="1"/>
        <pt x="392" y="498" on="0"/>
        <pt x="392" y="490" on="0"/>
        <pt x="392" y="488" on="1"/>
        <pt x="392" y="477" on="1"/>
        <pt x="392" y="472" on="0"/>
        <pt x="392" y="465" on="0"/>
        <pt x="393" y="460" on="1"/>
        <pt x="395" y="452" on="0"/>
        <pt x="405" y="431" on="0"/>
        <pt x="417" y="410" on="0"/>
        <pt x="428" y="391" on="0"/>
        <pt x="431" y="384" on="1"/>
        <pt x="434" y="378" on="0"/>
        <pt x="439" y="349" on="0"/>
        <pt x="445" y="317" on="0"/>
        <pt x="451" y="288" on="0"/>
        <pt x="454" y="282" on="1"/>
        <pt x="460" y="271" on="0"/>
        <pt x="478" y="252" on="0"/>
        <pt x="498" y="234" on="0"/>
        <pt x="517" y="218" on="0"/>
        <pt x="523" y="209" on="1"/>
        <pt x="533" y="198" on="0"/>
        <pt x="545" y="171" on="0"/>
        <pt x="556" y="146" on="0"/>
        <pt x="569" y="124" on="0"/>
        <pt x="580" y="119" on="1"/>
        <pt x="589" y="115" on="0"/>
        <pt x="603" y="113" on="0"/>
        <pt x="616" y="112" on="0"/>
        <pt x="632" y="112" on="0"/>
        <pt x="644" y="111" on="1"/>
        <pt x="650" y="110" on="0"/>
        <pt x="668" y="105" on="0"/>
        <pt x="686" y="99" on="0"/>
        <pt x="702" y="95" on="0"/>
        <pt x="705" y="95" on="1"/>
        <pt x="725" y="95" on="0"/>
        <pt x="764" y="101" on="0"/>
        <pt x="781" y="104" on="1"/>
        <pt x="790" y="108" on="0"/>
        <pt x="824" y="128" on="0"/>
        <pt x="841" y="133" on="1"/>
        <pt x="866" y="145" on="0"/>
        <pt x="904" y="156" on="0"/>
        <pt x="917" y="163" on="1"/>
        <pt x="931" y="171" on="0"/>
        <pt x="936" y="172" on="0"/>
        <pt x="940" y="176" on="1"/>
        <pt x="942" y="178" on="0"/>
        <pt x="946" y="181" on="0"/>
        <pt x="949" y="183" on="1"/>
        <pt x="951" y="185" on="0"/>
        <pt x="952" y="193" on="0"/>
        <pt x="952" y="195" on="1"/>
        <pt x="952" y="200" on="0"/>
        <pt x="953" y="207" on="0"/>
        <pt x="957" y="209" on="1"/>
        <pt x="971" y="221" on="0"/>
        <pt x="993" y="237" on="0"/>
        <pt x="1007" y="251" on="1"/>
        <pt x="1049" y="317" on="1"/>
        <pt x="1051" y="322" on="0"/>
        <pt x="1065" y="327" on="0"/>
        <pt x="1071" y="327" on="1"/>
        <pt x="1093" y="327" on="0"/>
        <pt x="1101" y="303" on="1"/>
        <pt x="1092" y="286" on="0"/>
        <pt x="1072" y="260" on="0"/>
        <pt x="1063" y="246" on="1"/>
        <pt x="1052" y="230" on="0"/>
        <pt x="1034" y="190" on="0"/>
        <pt x="1025" y="178" on="1"/>
        <pt x="1005" y="152" on="0"/>
        <pt x="983" y="114" on="0"/>
        <pt x="966" y="99" on="1"/>
        <pt x="953" y="88" on="0"/>
        <pt x="920" y="66" on="0"/>
        <pt x="909" y="61" on="1"/>
        <pt x="886" y="45" on="0"/>
        <pt x="822" y="27" on="0"/>
        <pt x="795" y="22" on="1"/>
        <pt x="772" y="14" on="0"/>
        <pt x="729" y="-3" on="0"/>
        <pt x="701" y="-3" on="1"/>
        <pt x="688" y="-3" on="0"/>
        <pt x="670" y="0" on="1"/>
        <pt x="647" y="5" on="0"/>
        <pt x="592" y="10" on="0"/>
        <pt x="566" y="24" on="1"/>
        <pt x="494" y="43" on="1"/>
        <pt x="477" y="52" on="0"/>
        <pt x="445" y="68" on="0"/>
        <pt x="430" y="80" on="1"/>
        <pt x="291" y="235" on="1"/>
        <pt x="283" y="242" on="0"/>
        <pt x="279" y="256" on="0"/>
        <pt x="279" y="265" on="1"/>
        <pt x="281" y="280" on="1"/>
        <pt x="281" y="283" on="0"/>
        <pt x="266" y="285" on="0"/>
        <pt x="262" y="287" on="1"/>
        <pt x="254" y="292" on="0"/>
        <pt x="255" y="296" on="0"/>
        <pt x="250" y="303" on="1"/>
        <pt x="243" y="315" on="0"/>
        <pt x="239" y="325" on="0"/>
        <pt x="238" y="334" on="0"/>
        <pt x="236" y="345" on="0"/>
        <pt x="231" y="358" on="1"/>
        <pt x="222" y="378" on="0"/>
        <pt x="225" y="410" on="0"/>
        <pt x="219" y="432" on="1"/>
        <pt x="216" y="446" on="0"/>
        <pt x="206" y="459" on="0"/>
        <pt x="196" y="469" on="0"/>
        <pt x="188" y="483" on="0"/>
        <pt x="186" y="498" on="1"/>
        <pt x="183" y="519" on="0"/>
        <pt x="182" y="564" on="0"/>
        <pt x="182" y="586" on="1"/>
        <pt x="182" y="616" on="1"/>
        <pt x="174" y="620" on="0"/>
        <pt x="148" y="630" on="0"/>
        <pt x="132" y="630" on="1"/>
        <pt x="121" y="630" on="0"/>
        <pt x="98" y="621" on="0"/>
        <pt x="84" y="616" on="1"/>
        <pt x="81" y="627" on="0"/>
        <pt x="75" y="642" on="0"/>
        <pt x="75" y="650" on="1"/>
        <pt x="75" y="661" on="0"/>
        <pt x="87" y="682" on="0"/>
        <pt x="104" y="695" on="1"/>
        <pt x="109" y="697" on="0"/>
        <pt x="111" y="697" on="0"/>
        <pt x="113" y="697" on="1"/>
        <pt x="118" y="697" on="0"/>
        <pt x="124" y="692" on="0"/>
        <pt x="132" y="690" on="1"/>
        <pt x="179" y="695" on="1"/>
        <pt x="179" y="711" on="1"/>
        <pt x="179" y="727" on="0"/>
        <pt x="179" y="762" on="0"/>
        <pt x="181" y="782" on="1"/>
        <pt x="84" y="782" on="1"/>
        <pt x="79" y="787" on="0"/>
        <pt x="73" y="800" on="0"/>
        <pt x="73" y="806" on="1"/>
        <pt x="73" y="820" on="0"/>
        <pt x="89" y="842" on="0"/>
        <pt x="104" y="858" on="1"/>
        <pt x="167" y="848" on="1"/>
        <pt x="173" y="849" on="0"/>
        <pt x="181" y="858" on="0"/>
        <pt x="186" y="858" on="1"/>
        <pt x="188" y="872" on="0"/>
        <pt x="189" y="897" on="0"/>
        <pt x="189" y="910" on="1"/>
        <pt x="189" y="918" on="0"/>
        <pt x="189" y="936" on="0"/>
        <pt x="191" y="943" on="1"/>
        <pt x="195" y="955" on="0"/>
        <pt x="205" y="968" on="0"/>
        <pt x="216" y="978" on="0"/>
        <pt x="227" y="991" on="0"/>
        <pt x="232" y="1002" on="1"/>
        <pt x="242" y="1028" on="0"/>
        <pt x="245" y="1084" on="0"/>
        <pt x="257" y="1109" on="1"/>
        <pt x="260" y="1115" on="0"/>
        <pt x="273" y="1130" on="0"/>
        <pt x="288" y="1146" on="0"/>
        <pt x="303" y="1161" on="0"/>
        <pt x="307" y="1169" on="1"/>
        <pt x="309" y="1177" on="0"/>
        <pt x="309" y="1189" on="0"/>
        <pt x="310" y="1197" on="1"/>
        <pt x="354" y="1259" on="1"/>
        <pt x="358" y="1265" on="0"/>
        <pt x="362" y="1271" on="0"/>
        <pt x="367" y="1276" on="0"/>
        <pt x="373" y="1281" on="0"/>
        <pt x="378" y="1287" on="1"/>
        <pt x="386" y="1301" on="0"/>
        <pt x="420" y="1321" on="0"/>
        <pt x="428" y="1332" on="1"/>
        <pt x="438" y="1339" on="0"/>
        <pt x="455" y="1357" on="0"/>
        <pt x="471" y="1376" on="0"/>
        <pt x="489" y="1393" on="0"/>
        <pt x="501" y="1400" on="1"/>
        <pt x="514" y="1405" on="0"/>
        <pt x="521" y="1405" on="1"/>
        <pt x="528" y="1405" on="0"/>
        <pt x="555" y="1410" on="0"/>
        <pt x="566" y="1410" on="1"/>
        <pt x="573" y="1410" on="0"/>
        <pt x="578" y="1412" on="1"/>
        <pt x="590" y="1414" on="0"/>
        <pt x="598" y="1417" on="0"/>
        <pt x="602" y="1420" on="0"/>
        <pt x="608" y="1424" on="0"/>
        <pt x="618" y="1427" on="1"/>
        <pt x="628" y="1430" on="0"/>
        <pt x="661" y="1437" on="0"/>
        <pt x="694" y="1444" on="0"/>
        <pt x="724" y="1449" on="0"/>
        <pt x="732" y="1450" on="1"/>
        <pt x="808" y="1436" on="1"/>
        <pt x="847" y="1434" on="1"/>
        <pt x="860" y="1432" on="0"/>
        <pt x="879" y="1425" on="0"/>
        <pt x="897" y="1416" on="0"/>
        <pt x="918" y="1408" on="0"/>
        <pt x="933" y="1405" on="1"/>
        <pt x="969" y="1391" on="0"/>
        <pt x="1011" y="1375" on="1"/>
        <pt x="1028" y="1370" on="0"/>
        <pt x="1061" y="1351" on="0"/>
        <pt x="1075" y="1344" on="1"/>
        <pt x="1101" y="1223" on="1"/>
        <pt x="1101" y="1200" on="0"/>
        <pt x="1089" y="1162" on="0"/>
        <pt x="1080" y="1144" on="1"/>
        <pt x="1082" y="1137" on="0"/>
        <pt x="1082" y="1126" on="0"/>
        <pt x="1082" y="1119" on="1"/>
        <pt x="1082" y="1101" on="0"/>
        <pt x="1076" y="1063" on="0"/>
        <pt x="1071" y="1045" on="1"/>
        <pt x="1066" y="1036" on="0"/>
        <pt x="1056" y="1036" on="1"/>
        <pt x="1049" y="1036" on="0"/>
        <pt x="1037" y="1041" on="1"/>
        <pt x="1035" y="1058" on="0"/>
        <pt x="1031" y="1083" on="0"/>
        <pt x="1026" y="1097" on="1"/>
        <pt x="1018" y="1120" on="0"/>
        <pt x="1004" y="1164" on="0"/>
        <pt x="995" y="1185" on="1"/>
        <pt x="990" y="1192" on="0"/>
        <pt x="984" y="1213" on="0"/>
        <pt x="979" y="1236" on="0"/>
        <pt x="972" y="1257" on="0"/>
        <pt x="968" y="1263" on="1"/>
        <pt x="966" y="1265" on="0"/>
        <pt x="954" y="1266" on="0"/>
        <pt x="945" y="1266" on="1"/>
        <pt x="943" y="1266" on="0"/>
        <pt x="940" y="1267" on="0"/>
        <pt x="938" y="1272" on="1"/>
        <pt x="930" y="1279" on="0"/>
        <pt x="917" y="1296" on="0"/>
        <pt x="903" y="1314" on="0"/>
        <pt x="888" y="1331" on="0"/>
        <pt x="878" y="1337" on="1"/>
        <pt x="859" y="1344" on="0"/>
        <pt x="822" y="1354" on="0"/>
        <pt x="796" y="1358" on="1"/>
        <pt x="782" y="1358" on="0"/>
        <pt x="758" y="1351" on="0"/>
        <pt x="741" y="1351" on="1"/>
        <pt x="675" y="1356" on="1"/>
        <pt x="665" y="1356" on="0"/>
        <pt x="653" y="1353" on="1"/>
        <pt x="636" y="1349" on="0"/>
        <pt x="614" y="1321" on="0"/>
        <pt x="601" y="1313" on="1"/>
        <pt x="584" y="1304" on="0"/>
        <pt x="546" y="1289" on="0"/>
        <pt x="532" y="1275" on="1"/>
        <pt x="518" y="1258" on="0"/>
        <pt x="492" y="1220" on="0"/>
        <pt x="482" y="1197" on="1"/>
        <pt x="479" y="1192" on="0"/>
        <pt x="473" y="1190" on="0"/>
        <pt x="467" y="1187" on="0"/>
        <pt x="462" y="1181" on="0"/>
        <pt x="461" y="1173" on="1"/>
        <pt x="459" y="1166" on="0"/>
        <pt x="458" y="1142" on="0"/>
        <pt x="456" y="1118" on="0"/>
        <pt x="454" y="1096" on="0"/>
        <pt x="452" y="1092" on="1"/>
        <pt x="447" y="1082" on="0"/>
        <pt x="439" y="1071" on="0"/>
        <pt x="428" y="1061" on="0"/>
        <pt x="416" y="1050" on="0"/>
        <pt x="407" y="1041" on="1"/>
        <pt x="402" y="1037" on="0"/>
        <pt x="397" y="1017" on="0"/>
        <pt x="395" y="1010" on="1"/>
        <pt x="393" y="1008" on="0"/>
        <pt x="393" y="1001" on="0"/>
        <pt x="393" y="998" on="1"/>
        <pt x="398" y="953" on="1"/>
        <pt x="397" y="941" on="1"/>
        <pt x="395" y="932" on="0"/>
        <pt x="395" y="921" on="0"/>
        <pt x="395" y="917" on="1"/>
        <pt x="395" y="877" on="1"/>
        <pt x="452" y="844" on="1"/>
        <pt x="463" y="847" on="0"/>
        <pt x="480" y="850" on="0"/>
        <pt x="498" y="853" on="0"/>
        <pt x="518" y="854" on="0"/>
        <pt x="533" y="855" on="1"/>
        <pt x="543" y="855" on="0"/>
        <pt x="574" y="850" on="0"/>
        <pt x="578" y="836" on="1"/>
        <pt x="595" y="841" on="0"/>
        <pt x="628" y="844" on="0"/>
        <pt x="642" y="844" on="1"/>
        <pt x="741" y="844" on="1"/>
        <pt x="763" y="851" on="0"/>
        <pt x="811" y="860" on="0"/>
        <pt x="838" y="862" on="1"/>
        <pt x="859" y="853" on="0"/>
        <pt x="885" y="853" on="1"/>
        <pt x="889" y="853" on="0"/>
        <pt x="899" y="853" on="0"/>
        <pt x="904" y="855" on="1"/>
        <pt x="981" y="858" on="1"/>
        <pt x="986" y="851" on="0"/>
        <pt x="990" y="840" on="0"/>
        <pt x="990" y="830" on="1"/>
        <pt x="990" y="822" on="0"/>
        <pt x="977" y="796" on="0"/>
        <pt x="959" y="782" on="1"/>
        <pt x="955" y="778" on="0"/>
        <pt x="949" y="777" on="0"/>
        <pt x="945" y="777" on="1"/>
        <pt x="937" y="777" on="0"/>
        <pt x="915" y="785" on="0"/>
        <pt x="907" y="787" on="1"/>
        <pt x="896" y="790" on="0"/>
        <pt x="884" y="792" on="0"/>
        <pt x="879" y="792" on="1"/>
        <pt x="865" y="792" on="0"/>
        <pt x="842" y="781" on="0"/>
        <pt x="828" y="773" on="1"/>
        <pt x="825" y="772" on="0"/>
        <pt x="816" y="772" on="0"/>
        <pt x="812" y="772" on="1"/>
        <pt x="804" y="772" on="0"/>
        <pt x="793" y="772" on="0"/>
        <pt x="788" y="773" on="1"/>
        <pt x="764" y="777" on="1"/>
        <pt x="713" y="768" on="1"/>
        <pt x="608" y="765" on="1"/>
        <pt x="596" y="765" on="0"/>
        <pt x="581" y="768" on="0"/>
        <pt x="567" y="771" on="0"/>
        <pt x="552" y="775" on="0"/>
        <pt x="540" y="777" on="1"/>
        <pt x="535" y="774" on="0"/>
        <pt x="518" y="772" on="0"/>
        <pt x="509" y="772" on="1"/>
        <pt x="492" y="772" on="0"/>
        <pt x="458" y="778" on="0"/>
        <pt x="449" y="782" on="1"/>
      </contour>
    </TTGlyph>
    <TTGlyph name="F" xMin="43" yMin="-29" xMax="1259" yMax="1415">
      <contour>
        <pt x="1128" y="1208" on="1"/>
        <pt x="1079" y="1259" on="1"/>
        <pt x="1054" y="1281" on="0"/>
        <pt x="1011" y="1309" on="0"/>
        <pt x="969" y="1326" on="0"/>
        <pt x="926" y="1332" on="0"/>
        <pt x="900" y="1332" on="1"/>
        <pt x="891" y="1332" on="0"/>
        <pt x="889" y="1330" on="1"/>
        <pt x="862" y="1330" on="0"/>
        <pt x="831" y="1330" on="0"/>
        <pt x="815" y="1330" on="0"/>
        <pt x="810" y="1329" on="0"/>
        <pt x="810" y="1329" on="1"/>
        <pt x="733" y="1329" on="1"/>
        <pt x="716" y="1324" on="0"/>
        <pt x="680" y="1322" on="0"/>
        <pt x="663" y="1322" on="1"/>
        <pt x="625" y="1322" on="0"/>
        <pt x="586" y="1320" on="0"/>
        <pt x="574" y="1313" on="1"/>
        <pt x="563" y="1309" on="0"/>
        <pt x="559" y="1296" on="0"/>
        <pt x="559" y="1291" on="1"/>
        <pt x="559" y="1270" on="0"/>
        <pt x="548" y="1251" on="0"/>
        <pt x="531" y="1240" on="1"/>
        <pt x="528" y="1238" on="0"/>
        <pt x="525" y="1222" on="0"/>
        <pt x="522" y="1202" on="0"/>
        <pt x="521" y="1182" on="0"/>
        <pt x="521" y="1176" on="1"/>
        <pt x="521" y="1153" on="0"/>
        <pt x="535" y="1111" on="0"/>
        <pt x="535" y="1085" on="1"/>
        <pt x="526" y="1022" on="1"/>
        <pt x="526" y="999" on="0"/>
        <pt x="547" y="953" on="0"/>
        <pt x="547" y="926" on="1"/>
        <pt x="531" y="777" on="1"/>
        <pt x="531" y="768" on="0"/>
        <pt x="547" y="745" on="0"/>
        <pt x="552" y="739" on="1"/>
        <pt x="583" y="735" on="0"/>
        <pt x="647" y="720" on="0"/>
        <pt x="678" y="720" on="1"/>
        <pt x="685" y="720" on="0"/>
        <pt x="696" y="723" on="0"/>
        <pt x="701" y="734" on="1"/>
        <pt x="712" y="735" on="0"/>
        <pt x="743" y="737" on="0"/>
        <pt x="763" y="737" on="1"/>
        <pt x="790" y="737" on="0"/>
        <pt x="852" y="738" on="0"/>
        <pt x="912" y="743" on="0"/>
        <pt x="962" y="754" on="0"/>
        <pt x="976" y="765" on="1"/>
        <pt x="990" y="774" on="0"/>
        <pt x="1005" y="808" on="0"/>
        <pt x="1013" y="847" on="0"/>
        <pt x="1019" y="887" on="0"/>
        <pt x="1030" y="920" on="0"/>
        <pt x="1051" y="941" on="0"/>
        <pt x="1071" y="941" on="1"/>
        <pt x="1077" y="941" on="0"/>
        <pt x="1088" y="937" on="0"/>
        <pt x="1093" y="926" on="1"/>
        <pt x="1093" y="884" on="1"/>
        <pt x="1093" y="836" on="0"/>
        <pt x="1083" y="792" on="1"/>
        <pt x="1078" y="757" on="0"/>
        <pt x="1069" y="700" on="0"/>
        <pt x="1069" y="671" on="1"/>
        <pt x="1069" y="646" on="0"/>
        <pt x="1084" y="599" on="0"/>
        <pt x="1101" y="554" on="0"/>
        <pt x="1116" y="508" on="0"/>
        <pt x="1116" y="484" on="1"/>
        <pt x="1116" y="469" on="0"/>
        <pt x="1115" y="454" on="0"/>
        <pt x="1111" y="452" on="1"/>
        <pt x="1106" y="444" on="0"/>
        <pt x="1102" y="436" on="0"/>
        <pt x="1093" y="436" on="1"/>
        <pt x="1078" y="436" on="0"/>
        <pt x="1063" y="458" on="0"/>
        <pt x="1052" y="469" on="1"/>
        <pt x="1038" y="500" on="1"/>
        <pt x="1027" y="524" on="0"/>
        <pt x="1007" y="568" on="0"/>
        <pt x="980" y="607" on="0"/>
        <pt x="945" y="642" on="0"/>
        <pt x="920" y="656" on="1"/>
        <pt x="875" y="656" on="1"/>
        <pt x="840" y="656" on="0"/>
        <pt x="766" y="659" on="0"/>
        <pt x="739" y="664" on="1"/>
        <pt x="678" y="675" on="1"/>
        <pt x="652" y="675" on="0"/>
        <pt x="591" y="657" on="0"/>
        <pt x="564" y="656" on="1"/>
        <pt x="555" y="645" on="0"/>
        <pt x="531" y="612" on="0"/>
        <pt x="531" y="593" on="1"/>
        <pt x="547" y="519" on="0"/>
        <pt x="569" y="376" on="0"/>
        <pt x="569" y="304" on="1"/>
        <pt x="569" y="270" on="0"/>
        <pt x="566" y="247" on="0"/>
        <pt x="564" y="240" on="1"/>
        <pt x="572" y="216" on="0"/>
        <pt x="601" y="179" on="0"/>
        <pt x="639" y="150" on="0"/>
        <pt x="681" y="126" on="0"/>
        <pt x="701" y="116" on="1"/>
        <pt x="702" y="116" on="0"/>
        <pt x="713" y="104" on="0"/>
        <pt x="713" y="102" on="1"/>
        <pt x="717" y="100" on="0"/>
        <pt x="745" y="97" on="0"/>
        <pt x="749" y="97" on="1"/>
        <pt x="757" y="97" on="0"/>
        <pt x="768" y="97" on="0"/>
        <pt x="775" y="99" on="1"/>
        <pt x="783" y="100" on="0"/>
        <pt x="794" y="100" on="0"/>
        <pt x="801" y="100" on="1"/>
        <pt x="808" y="100" on="0"/>
        <pt x="824" y="100" on="0"/>
        <pt x="830" y="99" on="1"/>
        <pt x="837" y="97" on="0"/>
        <pt x="850" y="97" on="0"/>
        <pt x="856" y="97" on="1"/>
        <pt x="861" y="92" on="0"/>
        <pt x="876" y="82" on="0"/>
        <pt x="889" y="68" on="0"/>
        <pt x="898" y="52" on="0"/>
        <pt x="898" y="42" on="1"/>
        <pt x="898" y="31" on="0"/>
        <pt x="888" y="8" on="0"/>
        <pt x="871" y="-13" on="0"/>
        <pt x="851" y="-26" on="0"/>
        <pt x="841" y="-26" on="1"/>
        <pt x="839" y="-26" on="1"/>
        <pt x="828" y="-28" on="0"/>
        <pt x="801" y="-29" on="0"/>
        <pt x="791" y="-29" on="1"/>
        <pt x="777" y="-29" on="0"/>
        <pt x="752" y="-28" on="0"/>
        <pt x="732" y="-26" on="1"/>
        <pt x="713" y="-21" on="1"/>
        <pt x="696" y="-12" on="0"/>
        <pt x="654" y="2" on="0"/>
        <pt x="609" y="12" on="0"/>
        <pt x="564" y="17" on="0"/>
        <pt x="545" y="17" on="1"/>
        <pt x="524" y="17" on="0"/>
        <pt x="494" y="14" on="0"/>
        <pt x="469" y="7" on="1"/>
        <pt x="446" y="3" on="0"/>
        <pt x="397" y="0" on="0"/>
        <pt x="374" y="0" on="1"/>
        <pt x="348" y="0" on="0"/>
        <pt x="303" y="3" on="0"/>
        <pt x="277" y="7" on="1"/>
        <pt x="265" y="3" on="0"/>
        <pt x="244" y="-15" on="0"/>
        <pt x="227" y="-19" on="1"/>
        <pt x="220" y="-17" on="0"/>
        <pt x="209" y="-14" on="0"/>
        <pt x="202" y="-14" on="1"/>
        <pt x="197" y="-16" on="0"/>
        <pt x="187" y="-16" on="1"/>
        <pt x="149" y="-16" on="1"/>
        <pt x="126" y="-8" on="0"/>
        <pt x="97" y="8" on="0"/>
        <pt x="90" y="31" on="1"/>
        <pt x="90" y="63" on="0"/>
        <pt x="123" y="85" on="1"/>
        <pt x="147" y="87" on="0"/>
        <pt x="224" y="109" on="0"/>
        <pt x="296" y="145" on="0"/>
        <pt x="349" y="195" on="0"/>
        <pt x="349" y="225" on="1"/>
        <pt x="349" y="278" on="0"/>
        <pt x="344" y="355" on="0"/>
        <pt x="337" y="427" on="0"/>
        <pt x="332" y="506" on="0"/>
        <pt x="332" y="562" on="1"/>
        <pt x="332" y="579" on="0"/>
        <pt x="339" y="612" on="0"/>
        <pt x="346" y="645" on="0"/>
        <pt x="353" y="678" on="0"/>
        <pt x="353" y="695" on="1"/>
        <pt x="353" y="698" on="0"/>
        <pt x="352" y="708" on="0"/>
        <pt x="352" y="719" on="0"/>
        <pt x="351" y="728" on="0"/>
        <pt x="351" y="728" on="1"/>
        <pt x="339" y="772" on="1"/>
        <pt x="339" y="849" on="1"/>
        <pt x="339" y="866" on="0"/>
        <pt x="331" y="900" on="0"/>
        <pt x="322" y="934" on="0"/>
        <pt x="315" y="967" on="0"/>
        <pt x="315" y="983" on="1"/>
        <pt x="315" y="987" on="0"/>
        <pt x="318" y="1006" on="0"/>
        <pt x="320" y="1010" on="1"/>
        <pt x="324" y="1030" on="0"/>
        <pt x="329" y="1071" on="0"/>
        <pt x="329" y="1092" on="1"/>
        <pt x="329" y="1112" on="0"/>
        <pt x="325" y="1151" on="0"/>
        <pt x="320" y="1171" on="1"/>
        <pt x="320" y="1189" on="0"/>
        <pt x="303" y="1224" on="0"/>
        <pt x="276" y="1256" on="0"/>
        <pt x="244" y="1281" on="0"/>
        <pt x="230" y="1287" on="1"/>
        <pt x="212" y="1294" on="0"/>
        <pt x="150" y="1298" on="0"/>
        <pt x="88" y="1309" on="0"/>
        <pt x="43" y="1336" on="0"/>
        <pt x="43" y="1367" on="1"/>
        <pt x="43" y="1382" on="1"/>
        <pt x="59" y="1391" on="0"/>
        <pt x="106" y="1410" on="0"/>
        <pt x="123" y="1410" on="1"/>
        <pt x="147" y="1410" on="1"/>
        <pt x="161" y="1410" on="0"/>
        <pt x="188" y="1404" on="0"/>
        <pt x="197" y="1393" on="1"/>
        <pt x="214" y="1390" on="0"/>
        <pt x="248" y="1386" on="0"/>
        <pt x="265" y="1386" on="1"/>
        <pt x="280" y="1386" on="0"/>
        <pt x="316" y="1390" on="0"/>
        <pt x="334" y="1393" on="1"/>
        <pt x="339" y="1401" on="0"/>
        <pt x="344" y="1403" on="0"/>
        <pt x="351" y="1403" on="1"/>
        <pt x="372" y="1403" on="0"/>
        <pt x="412" y="1387" on="0"/>
        <pt x="438" y="1387" on="1"/>
        <pt x="460" y="1387" on="1"/>
        <pt x="471" y="1387" on="0"/>
        <pt x="495" y="1388" on="0"/>
        <pt x="509" y="1393" on="1"/>
        <pt x="545" y="1387" on="0"/>
        <pt x="588" y="1387" on="1"/>
        <pt x="628" y="1387" on="0"/>
        <pt x="669" y="1393" on="1"/>
        <pt x="706" y="1406" on="0"/>
        <pt x="789" y="1406" on="0"/>
        <pt x="834" y="1410" on="1"/>
        <pt x="857" y="1412" on="0"/>
        <pt x="898" y="1415" on="0"/>
        <pt x="919" y="1415" on="1"/>
        <pt x="934" y="1415" on="0"/>
        <pt x="966" y="1412" on="0"/>
        <pt x="983" y="1410" on="1"/>
        <pt x="987" y="1408" on="0"/>
        <pt x="1000" y="1399" on="0"/>
        <pt x="1013" y="1389" on="0"/>
        <pt x="1025" y="1382" on="0"/>
        <pt x="1028" y="1382" on="1"/>
        <pt x="1037" y="1382" on="0"/>
        <pt x="1050" y="1388" on="0"/>
        <pt x="1060" y="1393" on="1"/>
        <pt x="1076" y="1397" on="0"/>
        <pt x="1110" y="1400" on="0"/>
        <pt x="1128" y="1400" on="1"/>
        <pt x="1159" y="1400" on="0"/>
        <pt x="1190" y="1393" on="1"/>
        <pt x="1192" y="1393" on="0"/>
        <pt x="1207" y="1380" on="0"/>
        <pt x="1224" y="1365" on="0"/>
        <pt x="1238" y="1352" on="0"/>
        <pt x="1239" y="1351" on="1"/>
        <pt x="1239" y="1208" on="1"/>
        <pt x="1259" y="1159" on="0"/>
        <pt x="1259" y="1109" on="1"/>
        <pt x="1259" y="1097" on="0"/>
        <pt x="1258" y="1072" on="0"/>
        <pt x="1251" y="1050" on="0"/>
        <pt x="1235" y="1036" on="0"/>
        <pt x="1221" y="1036" on="1"/>
        <pt x="1215" y="1043" on="0"/>
        <pt x="1199" y="1063" on="0"/>
        <pt x="1182" y="1084" on="0"/>
        <pt x="1167" y="1104" on="0"/>
        <pt x="1162" y="1112" on="1"/>
        <pt x="1162" y="1114" on="0"/>
        <pt x="1154" y="1133" on="0"/>
        <pt x="1144" y="1154" on="0"/>
        <pt x="1135" y="1173" on="0"/>
        <pt x="1133" y="1176" on="1"/>
        <pt x="1131" y="1178" on="0"/>
        <pt x="1128" y="1206" on="0"/>
      </contour>
    </TTGlyph>
    <TTGlyph name="G" xMin="90" yMin="-10" xMax="1611" yMax="1422">
      <contour>
        <pt x="109" y="509" on="1"/>
        <pt x="109" y="518" on="0"/>
        <pt x="116" y="528" on="0"/>
        <pt x="116" y="541" on="1"/>
        <pt x="116" y="551" on="0"/>
        <pt x="106" y="559" on="0"/>
        <pt x="95" y="567" on="1"/>
        <pt x="92" y="586" on="0"/>
        <pt x="92" y="604" on="1"/>
        <pt x="92" y="678" on="1"/>
        <pt x="92" y="689" on="0"/>
        <pt x="93" y="705" on="0"/>
        <pt x="95" y="716" on="1"/>
        <pt x="102" y="725" on="0"/>
        <pt x="104" y="734" on="0"/>
        <pt x="104" y="739" on="1"/>
        <pt x="90" y="785" on="1"/>
        <pt x="104" y="844" on="1"/>
        <pt x="104" y="856" on="0"/>
        <pt x="95" y="877" on="0"/>
        <pt x="95" y="887" on="1"/>
        <pt x="95" y="895" on="0"/>
        <pt x="104" y="907" on="0"/>
        <pt x="115" y="919" on="0"/>
        <pt x="126" y="931" on="0"/>
        <pt x="128" y="939" on="1"/>
        <pt x="137" y="971" on="1"/>
        <pt x="151" y="1024" on="0"/>
        <pt x="215" y="1106" on="0"/>
        <pt x="259" y="1145" on="1"/>
        <pt x="260" y="1166" on="0"/>
        <pt x="293" y="1209" on="0"/>
        <pt x="342" y="1251" on="0"/>
        <pt x="403" y="1291" on="0"/>
        <pt x="464" y="1325" on="0"/>
        <pt x="518" y="1352" on="0"/>
        <pt x="536" y="1360" on="1"/>
        <pt x="559" y="1369" on="0"/>
        <pt x="607" y="1378" on="0"/>
        <pt x="633" y="1389" on="1"/>
        <pt x="642" y="1391" on="0"/>
        <pt x="694" y="1397" on="0"/>
        <pt x="753" y="1405" on="0"/>
        <pt x="807" y="1411" on="0"/>
        <pt x="818" y="1413" on="1"/>
        <pt x="832" y="1412" on="0"/>
        <pt x="855" y="1410" on="0"/>
        <pt x="867" y="1410" on="1"/>
        <pt x="964" y="1410" on="1"/>
        <pt x="977" y="1410" on="0"/>
        <pt x="1004" y="1410" on="0"/>
        <pt x="1016" y="1408" on="1"/>
        <pt x="1028" y="1401" on="0"/>
        <pt x="1072" y="1384" on="0"/>
        <pt x="1122" y="1370" on="0"/>
        <pt x="1170" y="1360" on="0"/>
        <pt x="1185" y="1360" on="1"/>
        <pt x="1206" y="1360" on="0"/>
        <pt x="1230" y="1379" on="0"/>
        <pt x="1249" y="1403" on="0"/>
        <pt x="1269" y="1422" on="0"/>
        <pt x="1287" y="1422" on="1"/>
        <pt x="1300" y="1422" on="0"/>
        <pt x="1318" y="1409" on="0"/>
        <pt x="1329" y="1389" on="0"/>
        <pt x="1334" y="1368" on="0"/>
        <pt x="1334" y="1360" on="1"/>
        <pt x="1339" y="1254" on="1"/>
        <pt x="1343" y="1246" on="0"/>
        <pt x="1348" y="1233" on="0"/>
        <pt x="1348" y="1228" on="1"/>
        <pt x="1348" y="1210" on="0"/>
        <pt x="1351" y="1204" on="1"/>
        <pt x="1351" y="1197" on="0"/>
        <pt x="1356" y="1170" on="0"/>
        <pt x="1362" y="1143" on="0"/>
        <pt x="1367" y="1122" on="0"/>
        <pt x="1367" y="1121" on="1"/>
        <pt x="1369" y="1105" on="0"/>
        <pt x="1377" y="1083" on="0"/>
        <pt x="1386" y="1062" on="0"/>
        <pt x="1393" y="1040" on="0"/>
        <pt x="1393" y="1024" on="1"/>
        <pt x="1393" y="1021" on="0"/>
        <pt x="1385" y="1012" on="0"/>
        <pt x="1374" y="1004" on="0"/>
        <pt x="1363" y="998" on="0"/>
        <pt x="1360" y="998" on="1"/>
        <pt x="1336" y="998" on="0"/>
        <pt x="1292" y="1029" on="0"/>
        <pt x="1256" y="1075" on="0"/>
        <pt x="1227" y="1125" on="0"/>
        <pt x="1218" y="1145" on="1"/>
        <pt x="1211" y="1157" on="1"/>
        <pt x="1206" y="1183" on="1"/>
        <pt x="1173" y="1214" on="1"/>
        <pt x="1170" y="1217" on="0"/>
        <pt x="1159" y="1230" on="0"/>
        <pt x="1147" y="1247" on="0"/>
        <pt x="1135" y="1263" on="0"/>
        <pt x="1131" y="1268" on="1"/>
        <pt x="1120" y="1284" on="0"/>
        <pt x="1084" y="1301" on="0"/>
        <pt x="1043" y="1311" on="0"/>
        <pt x="1001" y="1319" on="0"/>
        <pt x="984" y="1327" on="1"/>
        <pt x="970" y="1334" on="0"/>
        <pt x="949" y="1346" on="0"/>
        <pt x="929" y="1355" on="0"/>
        <pt x="905" y="1360" on="0"/>
        <pt x="887" y="1360" on="1"/>
        <pt x="864" y="1360" on="0"/>
        <pt x="821" y="1336" on="0"/>
        <pt x="798" y="1332" on="1"/>
        <pt x="727" y="1327" on="1"/>
        <pt x="681" y="1319" on="0"/>
        <pt x="599" y="1273" on="0"/>
        <pt x="526" y="1210" on="0"/>
        <pt x="460" y="1138" on="0"/>
        <pt x="431" y="1104" on="1"/>
        <pt x="422" y="1092" on="0"/>
        <pt x="418" y="1057" on="0"/>
        <pt x="413" y="1040" on="1"/>
        <pt x="405" y="1018" on="0"/>
        <pt x="377" y="973" on="0"/>
        <pt x="350" y="926" on="0"/>
        <pt x="329" y="879" on="0"/>
        <pt x="329" y="855" on="1"/>
        <pt x="329" y="850" on="0"/>
        <pt x="332" y="823" on="0"/>
        <pt x="334" y="788" on="0"/>
        <pt x="336" y="747" on="0"/>
        <pt x="336" y="728" on="1"/>
        <pt x="334" y="694" on="1"/>
        <pt x="349" y="670" on="1"/>
        <pt x="349" y="614" on="1"/>
        <pt x="354" y="560" on="0"/>
        <pt x="370" y="460" on="0"/>
        <pt x="396" y="412" on="1"/>
        <pt x="407" y="392" on="0"/>
        <pt x="435" y="362" on="0"/>
        <pt x="463" y="332" on="0"/>
        <pt x="491" y="300" on="0"/>
        <pt x="503" y="280" on="1"/>
        <pt x="508" y="271" on="0"/>
        <pt x="531" y="269" on="0"/>
        <pt x="541" y="259" on="1"/>
        <pt x="589" y="189" on="0"/>
        <pt x="720" y="116" on="0"/>
        <pt x="798" y="95" on="1"/>
        <pt x="818" y="91" on="0"/>
        <pt x="845" y="78" on="0"/>
        <pt x="862" y="78" on="1"/>
        <pt x="870" y="78" on="0"/>
        <pt x="881" y="81" on="1"/>
        <pt x="893" y="85" on="1"/>
        <pt x="899" y="85" on="0"/>
        <pt x="926" y="87" on="0"/>
        <pt x="957" y="90" on="0"/>
        <pt x="986" y="94" on="0"/>
        <pt x="993" y="95" on="1"/>
        <pt x="994" y="95" on="0"/>
        <pt x="1019" y="111" on="0"/>
        <pt x="1056" y="135" on="0"/>
        <pt x="1098" y="164" on="0"/>
        <pt x="1135" y="189" on="0"/>
        <pt x="1161" y="209" on="0"/>
        <pt x="1164" y="211" on="1"/>
        <pt x="1164" y="242" on="1"/>
        <pt x="1159" y="301" on="1"/>
        <pt x="1159" y="322" on="0"/>
        <pt x="1164" y="358" on="0"/>
        <pt x="1164" y="372" on="1"/>
        <pt x="1164" y="393" on="1"/>
        <pt x="1154" y="412" on="1"/>
        <pt x="1154" y="462" on="1"/>
        <pt x="1152" y="480" on="0"/>
        <pt x="1135" y="503" on="0"/>
        <pt x="1114" y="523" on="0"/>
        <pt x="1097" y="543" on="0"/>
        <pt x="1095" y="557" on="1"/>
        <pt x="1095" y="588" on="1"/>
        <pt x="1090" y="616" on="1"/>
        <pt x="1092" y="625" on="0"/>
        <pt x="1113" y="635" on="0"/>
        <pt x="1142" y="641" on="0"/>
        <pt x="1176" y="642" on="0"/>
        <pt x="1190" y="642" on="1"/>
        <pt x="1223" y="642" on="1"/>
        <pt x="1296" y="630" on="1"/>
        <pt x="1319" y="630" on="0"/>
        <pt x="1361" y="636" on="0"/>
        <pt x="1377" y="640" on="1"/>
        <pt x="1382" y="642" on="1"/>
        <pt x="1564" y="642" on="1"/>
        <pt x="1567" y="642" on="0"/>
        <pt x="1583" y="638" on="0"/>
        <pt x="1599" y="630" on="0"/>
        <pt x="1611" y="618" on="0"/>
        <pt x="1611" y="611" on="1"/>
        <pt x="1611" y="590" on="0"/>
        <pt x="1572" y="566" on="0"/>
        <pt x="1521" y="552" on="0"/>
        <pt x="1472" y="542" on="0"/>
        <pt x="1462" y="535" on="1"/>
        <pt x="1403" y="462" on="1"/>
        <pt x="1407" y="453" on="0"/>
        <pt x="1417" y="426" on="0"/>
        <pt x="1417" y="412" on="1"/>
        <pt x="1403" y="301" on="1"/>
        <pt x="1403" y="285" on="0"/>
        <pt x="1417" y="269" on="0"/>
        <pt x="1417" y="259" on="1"/>
        <pt x="1417" y="236" on="0"/>
        <pt x="1410" y="184" on="0"/>
        <pt x="1392" y="137" on="0"/>
        <pt x="1360" y="101" on="0"/>
        <pt x="1334" y="95" on="1"/>
        <pt x="1280" y="90" on="1"/>
        <pt x="1266" y="88" on="0"/>
        <pt x="1229" y="69" on="0"/>
        <pt x="1190" y="44" on="0"/>
        <pt x="1155" y="19" on="0"/>
        <pt x="1142" y="12" on="1"/>
        <pt x="1130" y="5" on="0"/>
        <pt x="1104" y="3" on="0"/>
        <pt x="1095" y="3" on="1"/>
        <pt x="1059" y="3" on="1"/>
        <pt x="1038" y="3" on="0"/>
        <pt x="1005" y="-1" on="0"/>
        <pt x="984" y="-10" on="1"/>
        <pt x="818" y="-10" on="1"/>
        <pt x="774" y="0" on="0"/>
        <pt x="725" y="0" on="1"/>
        <pt x="702" y="0" on="0"/>
        <pt x="656" y="2" on="0"/>
        <pt x="633" y="3" on="1"/>
        <pt x="622" y="3" on="0"/>
        <pt x="609" y="12" on="0"/>
        <pt x="598" y="23" on="0"/>
        <pt x="587" y="34" on="0"/>
        <pt x="580" y="36" on="1"/>
        <pt x="577" y="39" on="0"/>
        <pt x="554" y="48" on="0"/>
        <pt x="528" y="56" on="0"/>
        <pt x="505" y="62" on="0"/>
        <pt x="503" y="62" on="1"/>
        <pt x="439" y="95" on="1"/>
        <pt x="433" y="95" on="0"/>
        <pt x="406" y="104" on="0"/>
        <pt x="398" y="104" on="1"/>
        <pt x="384" y="107" on="0"/>
        <pt x="337" y="149" on="0"/>
        <pt x="286" y="201" on="0"/>
        <pt x="243" y="253" on="0"/>
        <pt x="234" y="265" on="1"/>
        <pt x="234" y="269" on="0"/>
        <pt x="216" y="292" on="0"/>
        <pt x="211" y="296" on="1"/>
        <pt x="201" y="322" on="1"/>
        <pt x="199" y="325" on="0"/>
        <pt x="185" y="335" on="0"/>
        <pt x="170" y="347" on="0"/>
        <pt x="159" y="357" on="0"/>
        <pt x="159" y="360" on="1"/>
        <pt x="149" y="424" on="1"/>
        <pt x="146" y="434" on="0"/>
        <pt x="133" y="454" on="0"/>
        <pt x="120" y="474" on="0"/>
        <pt x="109" y="496" on="0"/>
      </contour>
    </TTGlyph>
    <TTGlyph name="Gbreve" xMin="90" yMin="-10" xMax="1611" yMax="1847">
      <component glyphName="G" x="0" y="0" flags="0x204"/>
      <component glyphName="Breve" x="512" y="0" flags="0x4"/>
    </TTGlyph>
    <TTGlyph name="Gcommaaccent" xMin="90" yMin="-572" xMax="1611" yMax="1422">
      <component glyphName="G" x="0" y="0" flags="0x204"/>
      <component glyphName="commaaccent" x="844" y="0" flags="0x4"/>
    </TTGlyph>
    <TTGlyph name="Grave" xMin="70" yMin="1541" xMax="653" yMax="1854">
      <contour>
        <pt x="77" y="1727" on="1"/>
        <pt x="70" y="1742" on="0"/>
        <pt x="70" y="1761" on="1"/>
        <pt x="70" y="1788" on="0"/>
        <pt x="101" y="1835" on="0"/>
        <pt x="127" y="1846" on="1"/>
        <pt x="146" y="1854" on="0"/>
        <pt x="169" y="1854" on="1"/>
        <pt x="201" y="1854" on="0"/>
        <pt x="263" y="1826" on="0"/>
        <pt x="292" y="1811" on="1"/>
        <pt x="295" y="1809" on="0"/>
        <pt x="302" y="1806" on="0"/>
        <pt x="306" y="1804" on="1"/>
        <pt x="308" y="1803" on="0"/>
        <pt x="324" y="1795" on="0"/>
        <pt x="342" y="1783" on="0"/>
        <pt x="359" y="1771" on="0"/>
        <pt x="363" y="1767" on="1"/>
        <pt x="364" y="1766" on="0"/>
        <pt x="374" y="1758" on="0"/>
        <pt x="385" y="1749" on="0"/>
        <pt x="394" y="1740" on="0"/>
        <pt x="395" y="1739" on="1"/>
        <pt x="398" y="1739" on="0"/>
        <pt x="406" y="1736" on="0"/>
        <pt x="411" y="1734" on="1"/>
        <pt x="425" y="1730" on="0"/>
        <pt x="466" y="1721" on="0"/>
        <pt x="480" y="1711" on="1"/>
        <pt x="482" y="1711" on="0"/>
        <pt x="499" y="1701" on="0"/>
        <pt x="519" y="1688" on="0"/>
        <pt x="536" y="1676" on="0"/>
        <pt x="538" y="1674" on="1"/>
        <pt x="541" y="1674" on="0"/>
        <pt x="556" y="1668" on="0"/>
        <pt x="574" y="1662" on="0"/>
        <pt x="589" y="1657" on="0"/>
        <pt x="591" y="1656" on="1"/>
        <pt x="598" y="1651" on="0"/>
        <pt x="617" y="1626" on="0"/>
        <pt x="636" y="1597" on="0"/>
        <pt x="650" y="1570" on="0"/>
        <pt x="653" y="1564" on="1"/>
        <pt x="639" y="1558" on="0"/>
        <pt x="594" y="1541" on="0"/>
        <pt x="572" y="1541" on="1"/>
        <pt x="561" y="1541" on="0"/>
        <pt x="552" y="1544" on="1"/>
        <pt x="550" y="1547" on="0"/>
        <pt x="538" y="1558" on="0"/>
        <pt x="538" y="1559" on="1"/>
        <pt x="534" y="1559" on="1"/>
        <pt x="529" y="1559" on="0"/>
        <pt x="512" y="1557" on="0"/>
        <pt x="507" y="1557" on="1"/>
        <pt x="498" y="1557" on="0"/>
        <pt x="482" y="1564" on="0"/>
        <pt x="467" y="1573" on="0"/>
        <pt x="451" y="1580" on="0"/>
        <pt x="443" y="1580" on="1"/>
        <pt x="442" y="1581" on="0"/>
        <pt x="437" y="1581" on="1"/>
        <pt x="432" y="1581" on="0"/>
        <pt x="420" y="1580" on="0"/>
        <pt x="417" y="1580" on="1"/>
        <pt x="400" y="1580" on="0"/>
        <pt x="364" y="1591" on="0"/>
        <pt x="328" y="1605" on="0"/>
        <pt x="292" y="1620" on="0"/>
        <pt x="277" y="1624" on="1"/>
        <pt x="272" y="1626" on="0"/>
        <pt x="232" y="1641" on="0"/>
        <pt x="186" y="1657" on="0"/>
        <pt x="146" y="1671" on="0"/>
        <pt x="141" y="1672" on="1"/>
        <pt x="121" y="1681" on="0"/>
        <pt x="85" y="1707" on="0"/>
      </contour>
    </TTGlyph>
</ttFont>
